0
SECTION
2
HEADER
9
$INSUNITS
70
1
0
ENDSEC
0
SECTION
2
TABLES
0
TABLE
2
LAYER
0
ENDTAB
0
ENDSEC
0
SECTION
2
ENTITIES
0
LINE
8
TOP_outsideCutPath
10
134.7746033
20
178.7746033
11
123.8873016
21
178.7746033
0
LINE
8
TOP_outsideCutPath
10
123.8873016
20
178.7746033
11
123.8873016
21
181.7746033
0
LINE
8
TOP_outsideCutPath
10
123.8873016
20
181.7746033
11
117.8873016
21
181.7746033
0
LINE
8
TOP_outsideCutPath
10
117.8873016
20
181.7746033
11
117.8873016
21
178.7746033
0
LINE
8
TOP_outsideCutPath
10
117.8873016
20
178.7746033
11
111.8873016
21
178.7746033
0
LINE
8
TOP_outsideCutPath
10
111.8873016
20
178.7746033
11
111.8873016
21
181.7746033
0
LINE
8
TOP_outsideCutPath
10
111.8873016
20
181.7746033
11
105.8873016
21
181.7746033
0
LINE
8
TOP_outsideCutPath
10
105.8873016
20
181.7746033
11
105.8873016
21
178.7746033
0
LINE
8
TOP_outsideCutPath
10
105.8873016
20
178.7746033
11
99.8873016
21
178.7746033
0
LINE
8
TOP_outsideCutPath
10
99.8873016
20
178.7746033
11
99.8873016
21
181.7746033
0
LINE
8
TOP_outsideCutPath
10
99.8873016
20
181.7746033
11
93.8873016
21
181.7746033
0
LINE
8
TOP_outsideCutPath
10
93.8873016
20
181.7746033
11
93.8873016
21
178.7746033
0
LINE
8
TOP_outsideCutPath
10
93.8873016
20
178.7746033
11
87.8873016
21
178.7746033
0
LINE
8
TOP_outsideCutPath
10
87.8873016
20
178.7746033
11
87.8873016
21
181.7746033
0
LINE
8
TOP_outsideCutPath
10
87.8873016
20
181.7746033
11
81.8873016
21
181.7746033
0
LINE
8
TOP_outsideCutPath
10
81.8873016
20
181.7746033
11
81.8873016
21
178.7746033
0
LINE
8
TOP_outsideCutPath
10
81.8873016
20
178.7746033
11
75.8873016
21
178.7746033
0
LINE
8
TOP_outsideCutPath
10
75.8873016
20
178.7746033
11
75.8873016
21
181.7746033
0
LINE
8
TOP_outsideCutPath
10
75.8873016
20
181.7746033
11
69.8873016
21
181.7746033
0
LINE
8
TOP_outsideCutPath
10
69.8873016
20
181.7746033
11
69.8873016
21
178.7746033
0
LINE
8
TOP_outsideCutPath
10
69.8873016
20
178.7746033
11
63.8873016
21
178.7746033
0
LINE
8
TOP_outsideCutPath
10
63.8873016
20
178.7746033
11
63.8873016
21
181.7746033
0
LINE
8
TOP_outsideCutPath
10
63.8873016
20
181.7746033
11
57.8873016
21
181.7746033
0
LINE
8
TOP_outsideCutPath
10
57.8873016
20
181.7746033
11
57.8873016
21
178.7746033
0
LINE
8
TOP_outsideCutPath
10
57.8873016
20
178.7746033
11
51.8873016
21
178.7746033
0
LINE
8
TOP_outsideCutPath
10
51.8873016
20
178.7746033
11
47
21
178.7746033
0
LINE
8
TOP_outsideCutPath
10
47
20
178.7746033
11
44.5013449
21
178.7035996
0
LINE
8
TOP_outsideCutPath
10
44.5013449
20
178.7035996
11
42.0107541
21
178.4908179
0
LINE
8
TOP_outsideCutPath
10
42.0107541
20
178.4908179
11
39.5362657
21
178.1369449
0
LINE
8
TOP_outsideCutPath
10
39.5362657
20
178.1369449
11
37.0858661
21
177.6431226
0
LINE
8
TOP_outsideCutPath
10
37.0858661
20
177.6431226
11
34.6674637
21
177.0109448
0
LINE
8
TOP_outsideCutPath
10
34.6674637
20
177.0109448
11
32.2888638
21
176.2424519
0
LINE
8
TOP_outsideCutPath
10
32.2888638
20
176.2424519
11
29.9577432
21
175.3401241
0
LINE
8
TOP_outsideCutPath
10
29.9577432
20
175.3401241
11
27.6816254
21
174.3068737
0
LINE
8
TOP_outsideCutPath
10
27.6816254
20
174.3068737
11
25.4678565
21
173.1460353
0
LINE
8
TOP_outsideCutPath
10
25.4678565
20
173.1460353
11
23.3235811
21
171.8613555
0
LINE
8
TOP_outsideCutPath
10
23.3235811
20
171.8613555
11
21.25572
21
170.4569805
0
LINE
8
TOP_outsideCutPath
10
21.25572
20
170.4569805
11
19.2709469
21
168.9374429
0
LINE
8
TOP_outsideCutPath
10
19.2709469
20
168.9374429
11
17.3756676
21
167.3076469
0
LINE
8
TOP_outsideCutPath
10
17.3756676
20
167.3076469
11
15.5759989
21
165.5728525
0
LINE
8
TOP_outsideCutPath
10
15.5759989
20
165.5728525
11
13.8777493
21
163.7386587
0
LINE
8
TOP_outsideCutPath
10
13.8777493
20
163.7386587
11
12.2863996
21
161.8109852
0
LINE
8
TOP_outsideCutPath
10
12.2863996
20
161.8109852
11
10.807086
21
159.7960535
0
LINE
8
TOP_outsideCutPath
10
10.807086
20
159.7960535
11
9.4445826
21
157.7003666
0
LINE
8
TOP_outsideCutPath
10
9.4445826
20
157.7003666
11
8.2032871
21
155.5306883
0
LINE
8
TOP_outsideCutPath
10
8.2032871
20
155.5306883
11
7.0872055
21
153.294021
0
LINE
8
TOP_outsideCutPath
10
7.0872055
20
153.294021
11
6.0999399
21
150.9975834
0
LINE
8
TOP_outsideCutPath
10
6.0999399
20
150.9975834
11
5.2446767
21
148.6487872
0
LINE
8
TOP_outsideCutPath
10
5.2446767
20
148.6487872
11
4.5241763
21
146.2552129
0
LINE
8
TOP_outsideCutPath
10
4.5241763
20
146.2552129
11
3.9407638
21
143.8245857
0
LINE
8
TOP_outsideCutPath
10
3.9407638
20
143.8245857
11
3.4963224
21
141.3647502
0
LINE
8
TOP_outsideCutPath
10
3.4963224
20
141.3647502
11
3.1922864
21
138.8836454
0
LINE
8
TOP_outsideCutPath
10
3.1922864
20
138.8836454
11
3.029637
21
136.389279
0
LINE
8
TOP_outsideCutPath
10
3.029637
20
136.389279
11
3
21
134.7746033
0
LINE
8
TOP_outsideCutPath
10
3
20
134.7746033
11
3
21
123.8873016
0
LINE
8
TOP_outsideCutPath
10
3
20
123.8873016
11
0
21
123.8873016
0
LINE
8
TOP_outsideCutPath
10
0
20
123.8873016
11
0
21
117.8873016
0
LINE
8
TOP_outsideCutPath
10
0
20
117.8873016
11
3
21
117.8873016
0
LINE
8
TOP_outsideCutPath
10
3
20
117.8873016
11
3
21
111.8873016
0
LINE
8
TOP_outsideCutPath
10
3
20
111.8873016
11
0
21
111.8873016
0
LINE
8
TOP_outsideCutPath
10
0
20
111.8873016
11
0
21
105.8873016
0
LINE
8
TOP_outsideCutPath
10
0
20
105.8873016
11
3
21
105.8873016
0
LINE
8
TOP_outsideCutPath
10
3
20
105.8873016
11
3
21
99.8873016
0
LINE
8
TOP_outsideCutPath
10
3
20
99.8873016
11
0
21
99.8873016
0
LINE
8
TOP_outsideCutPath
10
0
20
99.8873016
11
0
21
93.8873016
0
LINE
8
TOP_outsideCutPath
10
0
20
93.8873016
11
3
21
93.8873016
0
LINE
8
TOP_outsideCutPath
10
3
20
93.8873016
11
3
21
87.8873016
0
LINE
8
TOP_outsideCutPath
10
3
20
87.8873016
11
0
21
87.8873016
0
LINE
8
TOP_outsideCutPath
10
0
20
87.8873016
11
0
21
81.8873016
0
LINE
8
TOP_outsideCutPath
10
0
20
81.8873016
11
3
21
81.8873016
0
LINE
8
TOP_outsideCutPath
10
3
20
81.8873016
11
3
21
75.8873016
0
LINE
8
TOP_outsideCutPath
10
3
20
75.8873016
11
0
21
75.8873016
0
LINE
8
TOP_outsideCutPath
10
0
20
75.8873016
11
0
21
69.8873016
0
LINE
8
TOP_outsideCutPath
10
0
20
69.8873016
11
3
21
69.8873016
0
LINE
8
TOP_outsideCutPath
10
3
20
69.8873016
11
3
21
63.8873016
0
LINE
8
TOP_outsideCutPath
10
3
20
63.8873016
11
0
21
63.8873016
0
LINE
8
TOP_outsideCutPath
10
0
20
63.8873016
11
0
21
57.8873016
0
LINE
8
TOP_outsideCutPath
10
0
20
57.8873016
11
3
21
57.8873016
0
LINE
8
TOP_outsideCutPath
10
3
20
57.8873016
11
3
21
51.8873016
0
LINE
8
TOP_outsideCutPath
10
3
20
51.8873016
11
3
21
47
0
LINE
8
TOP_outsideCutPath
10
3
20
47
11
3.0710036
21
44.5013449
0
LINE
8
TOP_outsideCutPath
10
3.0710036
20
44.5013449
11
3.2837853
21
42.0107541
0
LINE
8
TOP_outsideCutPath
10
3.2837853
20
42.0107541
11
3.6376584
21
39.5362657
0
LINE
8
TOP_outsideCutPath
10
3.6376584
20
39.5362657
11
4.1314807
21
37.0858661
0
LINE
8
TOP_outsideCutPath
10
4.1314807
20
37.0858661
11
4.7636584
21
34.6674637
0
LINE
8
TOP_outsideCutPath
10
4.7636584
20
34.6674637
11
5.5321513
21
32.2888638
0
LINE
8
TOP_outsideCutPath
10
5.5321513
20
32.2888638
11
6.4344791
21
29.9577432
0
LINE
8
TOP_outsideCutPath
10
6.4344791
20
29.9577432
11
7.4677296
21
27.6816254
0
LINE
8
TOP_outsideCutPath
10
7.4677296
20
27.6816254
11
8.628568
21
25.4678565
0
LINE
8
TOP_outsideCutPath
10
8.628568
20
25.4678565
11
9.9132478
21
23.3235811
0
LINE
8
TOP_outsideCutPath
10
9.9132478
20
23.3235811
11
11.3176227
21
21.25572
0
LINE
8
TOP_outsideCutPath
10
11.3176227
20
21.25572
11
12.8371603
21
19.2709469
0
LINE
8
TOP_outsideCutPath
10
12.8371603
20
19.2709469
11
14.4669564
21
17.3756676
0
LINE
8
TOP_outsideCutPath
10
14.4669564
20
17.3756676
11
16.2017507
21
15.5759989
0
LINE
8
TOP_outsideCutPath
10
16.2017507
20
15.5759989
11
18.0359446
21
13.8777493
0
LINE
8
TOP_outsideCutPath
10
18.0359446
20
13.8777493
11
19.963618
21
12.2863996
0
LINE
8
TOP_outsideCutPath
10
19.963618
20
12.2863996
11
21.9785497
21
10.807086
0
LINE
8
TOP_outsideCutPath
10
21.9785497
20
10.807086
11
24.0742366
21
9.4445826
0
LINE
8
TOP_outsideCutPath
10
24.0742366
20
9.4445826
11
26.243915
21
8.2032871
0
LINE
8
TOP_outsideCutPath
10
26.243915
20
8.2032871
11
28.4805823
21
7.0872055
0
LINE
8
TOP_outsideCutPath
10
28.4805823
20
7.0872055
11
30.7770198
21
6.0999399
0
LINE
8
TOP_outsideCutPath
10
30.7770198
20
6.0999399
11
33.1258161
21
5.2446767
0
LINE
8
TOP_outsideCutPath
10
33.1258161
20
5.2446767
11
35.5193903
21
4.5241763
0
LINE
8
TOP_outsideCutPath
10
35.5193903
20
4.5241763
11
37.9500176
21
3.9407638
0
LINE
8
TOP_outsideCutPath
10
37.9500176
20
3.9407638
11
40.409853
21
3.4963224
0
LINE
8
TOP_outsideCutPath
10
40.409853
20
3.4963224
11
42.8909578
21
3.1922864
0
LINE
8
TOP_outsideCutPath
10
42.8909578
20
3.1922864
11
45.3853243
21
3.029637
0
LINE
8
TOP_outsideCutPath
10
45.3853243
20
3.029637
11
47
21
3
0
LINE
8
TOP_outsideCutPath
10
47
20
3
11
53.9436508
21
3
0
LINE
8
TOP_outsideCutPath
10
53.9436508
20
3
11
53.9436508
21
0
0
LINE
8
TOP_outsideCutPath
10
53.9436508
20
0
11
59.9436508
21
0
0
LINE
8
TOP_outsideCutPath
10
59.9436508
20
0
11
59.9436508
21
3
0
LINE
8
TOP_outsideCutPath
10
59.9436508
20
3
11
65.9436508
21
3
0
LINE
8
TOP_outsideCutPath
10
65.9436508
20
3
11
65.9436508
21
0
0
LINE
8
TOP_outsideCutPath
10
65.9436508
20
0
11
71.9436508
21
0
0
LINE
8
TOP_outsideCutPath
10
71.9436508
20
0
11
71.9436508
21
3
0
LINE
8
TOP_outsideCutPath
10
71.9436508
20
3
11
77.9436508
21
3
0
LINE
8
TOP_outsideCutPath
10
77.9436508
20
3
11
77.9436508
21
0
0
LINE
8
TOP_outsideCutPath
10
77.9436508
20
0
11
83.9436508
21
0
0
LINE
8
TOP_outsideCutPath
10
83.9436508
20
0
11
83.9436508
21
3
0
LINE
8
TOP_outsideCutPath
10
83.9436508
20
3
11
89.9436508
21
3
0
LINE
8
TOP_outsideCutPath
10
89.9436508
20
3
11
90.8873016
21
3
0
LINE
8
TOP_outsideCutPath
10
90.8873016
20
3
11
97.8309524
21
3
0
LINE
8
TOP_outsideCutPath
10
97.8309524
20
3
11
97.8309524
21
0
0
LINE
8
TOP_outsideCutPath
10
97.8309524
20
0
11
103.8309524
21
0
0
LINE
8
TOP_outsideCutPath
10
103.8309524
20
0
11
103.8309524
21
3
0
LINE
8
TOP_outsideCutPath
10
103.8309524
20
3
11
109.8309524
21
3
0
LINE
8
TOP_outsideCutPath
10
109.8309524
20
3
11
109.8309524
21
0
0
LINE
8
TOP_outsideCutPath
10
109.8309524
20
0
11
115.8309524
21
0
0
LINE
8
TOP_outsideCutPath
10
115.8309524
20
0
11
115.8309524
21
3
0
LINE
8
TOP_outsideCutPath
10
115.8309524
20
3
11
121.8309524
21
3
0
LINE
8
TOP_outsideCutPath
10
121.8309524
20
3
11
121.8309524
21
0
0
LINE
8
TOP_outsideCutPath
10
121.8309524
20
0
11
127.8309524
21
0
0
LINE
8
TOP_outsideCutPath
10
127.8309524
20
0
11
127.8309524
21
3
0
LINE
8
TOP_outsideCutPath
10
127.8309524
20
3
11
133.8309524
21
3
0
LINE
8
TOP_outsideCutPath
10
133.8309524
20
3
11
134.7746033
21
3
0
LINE
8
TOP_outsideCutPath
10
134.7746033
20
3
11
137.2732583
21
3.0710036
0
LINE
8
TOP_outsideCutPath
10
137.2732583
20
3.0710036
11
139.7638492
21
3.2837853
0
LINE
8
TOP_outsideCutPath
10
139.7638492
20
3.2837853
11
142.2383375
21
3.6376584
0
LINE
8
TOP_outsideCutPath
10
142.2383375
20
3.6376584
11
144.6887372
21
4.1314807
0
LINE
8
TOP_outsideCutPath
10
144.6887372
20
4.1314807
11
147.1071395
21
4.7636584
0
LINE
8
TOP_outsideCutPath
10
147.1071395
20
4.7636584
11
149.4857394
21
5.5321513
0
LINE
8
TOP_outsideCutPath
10
149.4857394
20
5.5321513
11
151.81686
21
6.4344791
0
LINE
8
TOP_outsideCutPath
10
151.81686
20
6.4344791
11
154.0929778
21
7.4677296
0
LINE
8
TOP_outsideCutPath
10
154.0929778
20
7.4677296
11
156.3067468
21
8.628568
0
LINE
8
TOP_outsideCutPath
10
156.3067468
20
8.628568
11
158.4510221
21
9.9132478
0
LINE
8
TOP_outsideCutPath
10
158.4510221
20
9.9132478
11
160.5188833
21
11.3176227
0
LINE
8
TOP_outsideCutPath
10
160.5188833
20
11.3176227
11
162.5036564
21
12.8371603
0
LINE
8
TOP_outsideCutPath
10
162.5036564
20
12.8371603
11
164.3989357
21
14.4669564
0
LINE
8
TOP_outsideCutPath
10
164.3989357
20
14.4669564
11
166.1986043
21
16.2017507
0
LINE
8
TOP_outsideCutPath
10
166.1986043
20
16.2017507
11
167.896854
21
18.0359446
0
LINE
8
TOP_outsideCutPath
10
167.896854
20
18.0359446
11
169.4882036
21
19.963618
0
LINE
8
TOP_outsideCutPath
10
169.4882036
20
19.963618
11
170.9675173
21
21.9785497
0
LINE
8
TOP_outsideCutPath
10
170.9675173
20
21.9785497
11
172.3300206
21
24.0742366
0
LINE
8
TOP_outsideCutPath
10
172.3300206
20
24.0742366
11
173.5713162
21
26.243915
0
LINE
8
TOP_outsideCutPath
10
173.5713162
20
26.243915
11
174.6873978
21
28.4805823
0
LINE
8
TOP_outsideCutPath
10
174.6873978
20
28.4805823
11
175.6746633
21
30.7770198
0
LINE
8
TOP_outsideCutPath
10
175.6746633
20
30.7770198
11
176.5299265
21
33.1258161
0
LINE
8
TOP_outsideCutPath
10
176.5299265
20
33.1258161
11
177.250427
21
35.5193903
0
LINE
8
TOP_outsideCutPath
10
177.250427
20
35.5193903
11
177.8338394
21
37.9500176
0
LINE
8
TOP_outsideCutPath
10
177.8338394
20
37.9500176
11
178.2782808
21
40.409853
0
LINE
8
TOP_outsideCutPath
10
178.2782808
20
40.409853
11
178.5823169
21
42.8909578
0
LINE
8
TOP_outsideCutPath
10
178.5823169
20
42.8909578
11
178.7449663
21
45.3853243
0
LINE
8
TOP_outsideCutPath
10
178.7449663
20
45.3853243
11
178.7746033
21
47
0
LINE
8
TOP_outsideCutPath
10
178.7746033
20
47
11
178.7746033
21
57.8873016
0
LINE
8
TOP_outsideCutPath
10
178.7746033
20
57.8873016
11
181.7746033
21
57.8873016
0
LINE
8
TOP_outsideCutPath
10
181.7746033
20
57.8873016
11
181.7746033
21
63.8873016
0
LINE
8
TOP_outsideCutPath
10
181.7746033
20
63.8873016
11
178.7746033
21
63.8873016
0
LINE
8
TOP_outsideCutPath
10
178.7746033
20
63.8873016
11
178.7746033
21
69.8873016
0
LINE
8
TOP_outsideCutPath
10
178.7746033
20
69.8873016
11
181.7746033
21
69.8873016
0
LINE
8
TOP_outsideCutPath
10
181.7746033
20
69.8873016
11
181.7746033
21
75.8873016
0
LINE
8
TOP_outsideCutPath
10
181.7746033
20
75.8873016
11
178.7746033
21
75.8873016
0
LINE
8
TOP_outsideCutPath
10
178.7746033
20
75.8873016
11
178.7746033
21
81.8873016
0
LINE
8
TOP_outsideCutPath
10
178.7746033
20
81.8873016
11
181.7746033
21
81.8873016
0
LINE
8
TOP_outsideCutPath
10
181.7746033
20
81.8873016
11
181.7746033
21
87.8873016
0
LINE
8
TOP_outsideCutPath
10
181.7746033
20
87.8873016
11
178.7746033
21
87.8873016
0
LINE
8
TOP_outsideCutPath
10
178.7746033
20
87.8873016
11
178.7746033
21
93.8873016
0
LINE
8
TOP_outsideCutPath
10
178.7746033
20
93.8873016
11
181.7746033
21
93.8873016
0
LINE
8
TOP_outsideCutPath
10
181.7746033
20
93.8873016
11
181.7746033
21
99.8873016
0
LINE
8
TOP_outsideCutPath
10
181.7746033
20
99.8873016
11
178.7746033
21
99.8873016
0
LINE
8
TOP_outsideCutPath
10
178.7746033
20
99.8873016
11
178.7746033
21
105.8873016
0
LINE
8
TOP_outsideCutPath
10
178.7746033
20
105.8873016
11
181.7746033
21
105.8873016
0
LINE
8
TOP_outsideCutPath
10
181.7746033
20
105.8873016
11
181.7746033
21
111.8873016
0
LINE
8
TOP_outsideCutPath
10
181.7746033
20
111.8873016
11
178.7746033
21
111.8873016
0
LINE
8
TOP_outsideCutPath
10
178.7746033
20
111.8873016
11
178.7746033
21
117.8873016
0
LINE
8
TOP_outsideCutPath
10
178.7746033
20
117.8873016
11
181.7746033
21
117.8873016
0
LINE
8
TOP_outsideCutPath
10
181.7746033
20
117.8873016
11
181.7746033
21
123.8873016
0
LINE
8
TOP_outsideCutPath
10
181.7746033
20
123.8873016
11
178.7746033
21
123.8873016
0
LINE
8
TOP_outsideCutPath
10
178.7746033
20
123.8873016
11
178.7746033
21
129.8873016
0
LINE
8
TOP_outsideCutPath
10
178.7746033
20
129.8873016
11
178.7746033
21
134.7746033
0
LINE
8
TOP_outsideCutPath
10
178.7746033
20
134.7746033
11
178.7035996
21
137.2732583
0
LINE
8
TOP_outsideCutPath
10
178.7035996
20
137.2732583
11
178.4908179
21
139.7638492
0
LINE
8
TOP_outsideCutPath
10
178.4908179
20
139.7638492
11
178.1369449
21
142.2383375
0
LINE
8
TOP_outsideCutPath
10
178.1369449
20
142.2383375
11
177.6431226
21
144.6887372
0
LINE
8
TOP_outsideCutPath
10
177.6431226
20
144.6887372
11
177.0109448
21
147.1071395
0
LINE
8
TOP_outsideCutPath
10
177.0109448
20
147.1071395
11
176.2424519
21
149.4857394
0
LINE
8
TOP_outsideCutPath
10
176.2424519
20
149.4857394
11
175.3401241
21
151.81686
0
LINE
8
TOP_outsideCutPath
10
175.3401241
20
151.81686
11
174.3068737
21
154.0929778
0
LINE
8
TOP_outsideCutPath
10
174.3068737
20
154.0929778
11
173.1460353
21
156.3067468
0
LINE
8
TOP_outsideCutPath
10
173.1460353
20
156.3067468
11
171.8613555
21
158.4510221
0
LINE
8
TOP_outsideCutPath
10
171.8613555
20
158.4510221
11
170.4569805
21
160.5188833
0
LINE
8
TOP_outsideCutPath
10
170.4569805
20
160.5188833
11
168.9374429
21
162.5036564
0
LINE
8
TOP_outsideCutPath
10
168.9374429
20
162.5036564
11
167.3076469
21
164.3989357
0
LINE
8
TOP_outsideCutPath
10
167.3076469
20
164.3989357
11
165.5728525
21
166.1986043
0
LINE
8
TOP_outsideCutPath
10
165.5728525
20
166.1986043
11
163.7386587
21
167.896854
0
LINE
8
TOP_outsideCutPath
10
163.7386587
20
167.896854
11
161.8109852
21
169.4882036
0
LINE
8
TOP_outsideCutPath
10
161.8109852
20
169.4882036
11
159.7960535
21
170.9675173
0
LINE
8
TOP_outsideCutPath
10
159.7960535
20
170.9675173
11
157.7003666
21
172.3300206
0
LINE
8
TOP_outsideCutPath
10
157.7003666
20
172.3300206
11
155.5306883
21
173.5713162
0
LINE
8
TOP_outsideCutPath
10
155.5306883
20
173.5713162
11
153.294021
21
174.6873978
0
LINE
8
TOP_outsideCutPath
10
153.294021
20
174.6873978
11
150.9975834
21
175.6746633
0
LINE
8
TOP_outsideCutPath
10
150.9975834
20
175.6746633
11
148.6487872
21
176.5299265
0
LINE
8
TOP_outsideCutPath
10
148.6487872
20
176.5299265
11
146.2552129
21
177.250427
0
LINE
8
TOP_outsideCutPath
10
146.2552129
20
177.250427
11
143.8245857
21
177.8338394
0
LINE
8
TOP_outsideCutPath
10
143.8245857
20
177.8338394
11
141.3647502
21
178.2782808
0
LINE
8
TOP_outsideCutPath
10
141.3647502
20
178.2782808
11
138.8836454
21
178.5823169
0
LINE
8
TOP_outsideCutPath
10
138.8836454
20
178.5823169
11
136.389279
21
178.7449663
0
LINE
8
TOP_outsideCutPath
10
136.389279
20
178.7449663
11
134.7746033
21
178.7746033
0
LINE
8
BOTTOM_outsideCutPath
10
319.5492065
20
178.7746033
11
308.6619049
21
178.7746033
0
LINE
8
BOTTOM_outsideCutPath
10
308.6619049
20
178.7746033
11
308.6619049
21
181.7746033
0
LINE
8
BOTTOM_outsideCutPath
10
308.6619049
20
181.7746033
11
302.6619049
21
181.7746033
0
LINE
8
BOTTOM_outsideCutPath
10
302.6619049
20
181.7746033
11
302.6619049
21
178.7746033
0
LINE
8
BOTTOM_outsideCutPath
10
302.6619049
20
178.7746033
11
296.6619049
21
178.7746033
0
LINE
8
BOTTOM_outsideCutPath
10
296.6619049
20
178.7746033
11
296.6619049
21
181.7746033
0
LINE
8
BOTTOM_outsideCutPath
10
296.6619049
20
181.7746033
11
290.6619049
21
181.7746033
0
LINE
8
BOTTOM_outsideCutPath
10
290.6619049
20
181.7746033
11
290.6619049
21
178.7746033
0
LINE
8
BOTTOM_outsideCutPath
10
290.6619049
20
178.7746033
11
284.6619049
21
178.7746033
0
LINE
8
BOTTOM_outsideCutPath
10
284.6619049
20
178.7746033
11
284.6619049
21
181.7746033
0
LINE
8
BOTTOM_outsideCutPath
10
284.6619049
20
181.7746033
11
278.6619049
21
181.7746033
0
LINE
8
BOTTOM_outsideCutPath
10
278.6619049
20
181.7746033
11
278.6619049
21
178.7746033
0
LINE
8
BOTTOM_outsideCutPath
10
278.6619049
20
178.7746033
11
272.6619049
21
178.7746033
0
LINE
8
BOTTOM_outsideCutPath
10
272.6619049
20
178.7746033
11
272.6619049
21
181.7746033
0
LINE
8
BOTTOM_outsideCutPath
10
272.6619049
20
181.7746033
11
266.6619049
21
181.7746033
0
LINE
8
BOTTOM_outsideCutPath
10
266.6619049
20
181.7746033
11
266.6619049
21
178.7746033
0
LINE
8
BOTTOM_outsideCutPath
10
266.6619049
20
178.7746033
11
260.6619049
21
178.7746033
0
LINE
8
BOTTOM_outsideCutPath
10
260.6619049
20
178.7746033
11
260.6619049
21
181.7746033
0
LINE
8
BOTTOM_outsideCutPath
10
260.6619049
20
181.7746033
11
254.6619049
21
181.7746033
0
LINE
8
BOTTOM_outsideCutPath
10
254.6619049
20
181.7746033
11
254.6619049
21
178.7746033
0
LINE
8
BOTTOM_outsideCutPath
10
254.6619049
20
178.7746033
11
248.6619049
21
178.7746033
0
LINE
8
BOTTOM_outsideCutPath
10
248.6619049
20
178.7746033
11
248.6619049
21
181.7746033
0
LINE
8
BOTTOM_outsideCutPath
10
248.6619049
20
181.7746033
11
242.6619049
21
181.7746033
0
LINE
8
BOTTOM_outsideCutPath
10
242.6619049
20
181.7746033
11
242.6619049
21
178.7746033
0
LINE
8
BOTTOM_outsideCutPath
10
242.6619049
20
178.7746033
11
236.6619049
21
178.7746033
0
LINE
8
BOTTOM_outsideCutPath
10
236.6619049
20
178.7746033
11
231.7746033
21
178.7746033
0
LINE
8
BOTTOM_outsideCutPath
10
231.7746033
20
178.7746033
11
229.2759482
21
178.7035996
0
LINE
8
BOTTOM_outsideCutPath
10
229.2759482
20
178.7035996
11
226.7853573
21
178.4908179
0
LINE
8
BOTTOM_outsideCutPath
10
226.7853573
20
178.4908179
11
224.310869
21
178.1369449
0
LINE
8
BOTTOM_outsideCutPath
10
224.310869
20
178.1369449
11
221.8604693
21
177.6431226
0
LINE
8
BOTTOM_outsideCutPath
10
221.8604693
20
177.6431226
11
219.442067
21
177.0109448
0
LINE
8
BOTTOM_outsideCutPath
10
219.442067
20
177.0109448
11
217.0634671
21
176.2424519
0
LINE
8
BOTTOM_outsideCutPath
10
217.0634671
20
176.2424519
11
214.7323465
21
175.3401241
0
LINE
8
BOTTOM_outsideCutPath
10
214.7323465
20
175.3401241
11
212.4562287
21
174.3068737
0
LINE
8
BOTTOM_outsideCutPath
10
212.4562287
20
174.3068737
11
210.2424597
21
173.1460353
0
LINE
8
BOTTOM_outsideCutPath
10
210.2424597
20
173.1460353
11
208.0981844
21
171.8613555
0
LINE
8
BOTTOM_outsideCutPath
10
208.0981844
20
171.8613555
11
206.0303232
21
170.4569805
0
LINE
8
BOTTOM_outsideCutPath
10
206.0303232
20
170.4569805
11
204.0455501
21
168.9374429
0
LINE
8
BOTTOM_outsideCutPath
10
204.0455501
20
168.9374429
11
202.1502708
21
167.3076469
0
LINE
8
BOTTOM_outsideCutPath
10
202.1502708
20
167.3076469
11
200.3506022
21
165.5728525
0
LINE
8
BOTTOM_outsideCutPath
10
200.3506022
20
165.5728525
11
198.6523525
21
163.7386587
0
LINE
8
BOTTOM_outsideCutPath
10
198.6523525
20
163.7386587
11
197.0610029
21
161.8109852
0
LINE
8
BOTTOM_outsideCutPath
10
197.0610029
20
161.8109852
11
195.5816892
21
159.7960535
0
LINE
8
BOTTOM_outsideCutPath
10
195.5816892
20
159.7960535
11
194.2191859
21
157.7003666
0
LINE
8
BOTTOM_outsideCutPath
10
194.2191859
20
157.7003666
11
192.9778903
21
155.5306883
0
LINE
8
BOTTOM_outsideCutPath
10
192.9778903
20
155.5306883
11
191.8618087
21
153.294021
0
LINE
8
BOTTOM_outsideCutPath
10
191.8618087
20
153.294021
11
190.8745432
21
150.9975834
0
LINE
8
BOTTOM_outsideCutPath
10
190.8745432
20
150.9975834
11
190.01928
21
148.6487872
0
LINE
8
BOTTOM_outsideCutPath
10
190.01928
20
148.6487872
11
189.2987795
21
146.2552129
0
LINE
8
BOTTOM_outsideCutPath
10
189.2987795
20
146.2552129
11
188.7153671
21
143.8245857
0
LINE
8
BOTTOM_outsideCutPath
10
188.7153671
20
143.8245857
11
188.2709257
21
141.3647502
0
LINE
8
BOTTOM_outsideCutPath
10
188.2709257
20
141.3647502
11
187.9668896
21
138.8836454
0
LINE
8
BOTTOM_outsideCutPath
10
187.9668896
20
138.8836454
11
187.8042403
21
136.389279
0
LINE
8
BOTTOM_outsideCutPath
10
187.8042403
20
136.389279
11
187.7746033
21
134.7746033
0
LINE
8
BOTTOM_outsideCutPath
10
187.7746033
20
134.7746033
11
187.7746033
21
123.8873016
0
LINE
8
BOTTOM_outsideCutPath
10
187.7746033
20
123.8873016
11
184.7746033
21
123.8873016
0
LINE
8
BOTTOM_outsideCutPath
10
184.7746033
20
123.8873016
11
184.7746033
21
117.8873016
0
LINE
8
BOTTOM_outsideCutPath
10
184.7746033
20
117.8873016
11
187.7746033
21
117.8873016
0
LINE
8
BOTTOM_outsideCutPath
10
187.7746033
20
117.8873016
11
187.7746033
21
111.8873016
0
LINE
8
BOTTOM_outsideCutPath
10
187.7746033
20
111.8873016
11
184.7746033
21
111.8873016
0
LINE
8
BOTTOM_outsideCutPath
10
184.7746033
20
111.8873016
11
184.7746033
21
105.8873016
0
LINE
8
BOTTOM_outsideCutPath
10
184.7746033
20
105.8873016
11
187.7746033
21
105.8873016
0
LINE
8
BOTTOM_outsideCutPath
10
187.7746033
20
105.8873016
11
187.7746033
21
99.8873016
0
LINE
8
BOTTOM_outsideCutPath
10
187.7746033
20
99.8873016
11
184.7746033
21
99.8873016
0
LINE
8
BOTTOM_outsideCutPath
10
184.7746033
20
99.8873016
11
184.7746033
21
93.8873016
0
LINE
8
BOTTOM_outsideCutPath
10
184.7746033
20
93.8873016
11
187.7746033
21
93.8873016
0
LINE
8
BOTTOM_outsideCutPath
10
187.7746033
20
93.8873016
11
187.7746033
21
87.8873016
0
LINE
8
BOTTOM_outsideCutPath
10
187.7746033
20
87.8873016
11
184.7746033
21
87.8873016
0
LINE
8
BOTTOM_outsideCutPath
10
184.7746033
20
87.8873016
11
184.7746033
21
81.8873016
0
LINE
8
BOTTOM_outsideCutPath
10
184.7746033
20
81.8873016
11
187.7746033
21
81.8873016
0
LINE
8
BOTTOM_outsideCutPath
10
187.7746033
20
81.8873016
11
187.7746033
21
75.8873016
0
LINE
8
BOTTOM_outsideCutPath
10
187.7746033
20
75.8873016
11
184.7746033
21
75.8873016
0
LINE
8
BOTTOM_outsideCutPath
10
184.7746033
20
75.8873016
11
184.7746033
21
69.8873016
0
LINE
8
BOTTOM_outsideCutPath
10
184.7746033
20
69.8873016
11
187.7746033
21
69.8873016
0
LINE
8
BOTTOM_outsideCutPath
10
187.7746033
20
69.8873016
11
187.7746033
21
63.8873016
0
LINE
8
BOTTOM_outsideCutPath
10
187.7746033
20
63.8873016
11
184.7746033
21
63.8873016
0
LINE
8
BOTTOM_outsideCutPath
10
184.7746033
20
63.8873016
11
184.7746033
21
57.8873016
0
LINE
8
BOTTOM_outsideCutPath
10
184.7746033
20
57.8873016
11
187.7746033
21
57.8873016
0
LINE
8
BOTTOM_outsideCutPath
10
187.7746033
20
57.8873016
11
187.7746033
21
51.8873016
0
LINE
8
BOTTOM_outsideCutPath
10
187.7746033
20
51.8873016
11
187.7746033
21
47
0
LINE
8
BOTTOM_outsideCutPath
10
187.7746033
20
47
11
187.8456069
21
44.5013449
0
LINE
8
BOTTOM_outsideCutPath
10
187.8456069
20
44.5013449
11
188.0583886
21
42.0107541
0
LINE
8
BOTTOM_outsideCutPath
10
188.0583886
20
42.0107541
11
188.4122616
21
39.5362657
0
LINE
8
BOTTOM_outsideCutPath
10
188.4122616
20
39.5362657
11
188.9060839
21
37.0858661
0
LINE
8
BOTTOM_outsideCutPath
10
188.9060839
20
37.0858661
11
189.5382617
21
34.6674637
0
LINE
8
BOTTOM_outsideCutPath
10
189.5382617
20
34.6674637
11
190.3067546
21
32.2888638
0
LINE
8
BOTTOM_outsideCutPath
10
190.3067546
20
32.2888638
11
191.2090824
21
29.9577432
0
LINE
8
BOTTOM_outsideCutPath
10
191.2090824
20
29.9577432
11
192.2423329
21
27.6816254
0
LINE
8
BOTTOM_outsideCutPath
10
192.2423329
20
27.6816254
11
193.4031712
21
25.4678565
0
LINE
8
BOTTOM_outsideCutPath
10
193.4031712
20
25.4678565
11
194.687851
21
23.3235811
0
LINE
8
BOTTOM_outsideCutPath
10
194.687851
20
23.3235811
11
196.092226
21
21.25572
0
LINE
8
BOTTOM_outsideCutPath
10
196.092226
20
21.25572
11
197.6117636
21
19.2709469
0
LINE
8
BOTTOM_outsideCutPath
10
197.6117636
20
19.2709469
11
199.2415596
21
17.3756676
0
LINE
8
BOTTOM_outsideCutPath
10
199.2415596
20
17.3756676
11
200.976354
21
15.5759989
0
LINE
8
BOTTOM_outsideCutPath
10
200.976354
20
15.5759989
11
202.8105478
21
13.8777493
0
LINE
8
BOTTOM_outsideCutPath
10
202.8105478
20
13.8777493
11
204.7382213
21
12.2863996
0
LINE
8
BOTTOM_outsideCutPath
10
204.7382213
20
12.2863996
11
206.753153
21
10.807086
0
LINE
8
BOTTOM_outsideCutPath
10
206.753153
20
10.807086
11
208.8488399
21
9.4445826
0
LINE
8
BOTTOM_outsideCutPath
10
208.8488399
20
9.4445826
11
211.0185182
21
8.2032871
0
LINE
8
BOTTOM_outsideCutPath
10
211.0185182
20
8.2032871
11
213.2551855
21
7.0872055
0
LINE
8
BOTTOM_outsideCutPath
10
213.2551855
20
7.0872055
11
215.5516231
21
6.0999399
0
LINE
8
BOTTOM_outsideCutPath
10
215.5516231
20
6.0999399
11
217.9004193
21
5.2446767
0
LINE
8
BOTTOM_outsideCutPath
10
217.9004193
20
5.2446767
11
220.2939936
21
4.5241763
0
LINE
8
BOTTOM_outsideCutPath
10
220.2939936
20
4.5241763
11
222.7246208
21
3.9407638
0
LINE
8
BOTTOM_outsideCutPath
10
222.7246208
20
3.9407638
11
225.1844563
21
3.4963224
0
LINE
8
BOTTOM_outsideCutPath
10
225.1844563
20
3.4963224
11
227.6655611
21
3.1922864
0
LINE
8
BOTTOM_outsideCutPath
10
227.6655611
20
3.1922864
11
230.1599275
21
3.029637
0
LINE
8
BOTTOM_outsideCutPath
10
230.1599275
20
3.029637
11
231.7746033
21
3
0
LINE
8
BOTTOM_outsideCutPath
10
231.7746033
20
3
11
238.7182541
21
3
0
LINE
8
BOTTOM_outsideCutPath
10
238.7182541
20
3
11
238.7182541
21
0
0
LINE
8
BOTTOM_outsideCutPath
10
238.7182541
20
0
11
244.7182541
21
0
0
LINE
8
BOTTOM_outsideCutPath
10
244.7182541
20
0
11
244.7182541
21
3
0
LINE
8
BOTTOM_outsideCutPath
10
244.7182541
20
3
11
250.7182541
21
3
0
LINE
8
BOTTOM_outsideCutPath
10
250.7182541
20
3
11
250.7182541
21
0
0
LINE
8
BOTTOM_outsideCutPath
10
250.7182541
20
0
11
256.7182541
21
0
0
LINE
8
BOTTOM_outsideCutPath
10
256.7182541
20
0
11
256.7182541
21
3
0
LINE
8
BOTTOM_outsideCutPath
10
256.7182541
20
3
11
262.7182541
21
3
0
LINE
8
BOTTOM_outsideCutPath
10
262.7182541
20
3
11
262.7182541
21
0
0
LINE
8
BOTTOM_outsideCutPath
10
262.7182541
20
0
11
268.7182541
21
0
0
LINE
8
BOTTOM_outsideCutPath
10
268.7182541
20
0
11
268.7182541
21
3
0
LINE
8
BOTTOM_outsideCutPath
10
268.7182541
20
3
11
274.7182541
21
3
0
LINE
8
BOTTOM_outsideCutPath
10
274.7182541
20
3
11
275.6619049
21
3
0
LINE
8
BOTTOM_outsideCutPath
10
275.6619049
20
3
11
282.6055557
21
3
0
LINE
8
BOTTOM_outsideCutPath
10
282.6055557
20
3
11
282.6055557
21
0
0
LINE
8
BOTTOM_outsideCutPath
10
282.6055557
20
0
11
288.6055557
21
0
0
LINE
8
BOTTOM_outsideCutPath
10
288.6055557
20
0
11
288.6055557
21
3
0
LINE
8
BOTTOM_outsideCutPath
10
288.6055557
20
3
11
294.6055557
21
3
0
LINE
8
BOTTOM_outsideCutPath
10
294.6055557
20
3
11
294.6055557
21
0
0
LINE
8
BOTTOM_outsideCutPath
10
294.6055557
20
0
11
300.6055557
21
0
0
LINE
8
BOTTOM_outsideCutPath
10
300.6055557
20
0
11
300.6055557
21
3
0
LINE
8
BOTTOM_outsideCutPath
10
300.6055557
20
3
11
306.6055557
21
3
0
LINE
8
BOTTOM_outsideCutPath
10
306.6055557
20
3
11
306.6055557
21
0
0
LINE
8
BOTTOM_outsideCutPath
10
306.6055557
20
0
11
312.6055557
21
0
0
LINE
8
BOTTOM_outsideCutPath
10
312.6055557
20
0
11
312.6055557
21
3
0
LINE
8
BOTTOM_outsideCutPath
10
312.6055557
20
3
11
318.6055557
21
3
0
LINE
8
BOTTOM_outsideCutPath
10
318.6055557
20
3
11
319.5492065
21
3
0
LINE
8
BOTTOM_outsideCutPath
10
319.5492065
20
3
11
322.0478616
21
3.0710036
0
LINE
8
BOTTOM_outsideCutPath
10
322.0478616
20
3.0710036
11
324.5384524
21
3.2837853
0
LINE
8
BOTTOM_outsideCutPath
10
324.5384524
20
3.2837853
11
327.0129408
21
3.6376584
0
LINE
8
BOTTOM_outsideCutPath
10
327.0129408
20
3.6376584
11
329.4633404
21
4.1314807
0
LINE
8
BOTTOM_outsideCutPath
10
329.4633404
20
4.1314807
11
331.8817428
21
4.7636584
0
LINE
8
BOTTOM_outsideCutPath
10
331.8817428
20
4.7636584
11
334.2603427
21
5.5321513
0
LINE
8
BOTTOM_outsideCutPath
10
334.2603427
20
5.5321513
11
336.5914633
21
6.4344791
0
LINE
8
BOTTOM_outsideCutPath
10
336.5914633
20
6.4344791
11
338.8675811
21
7.4677296
0
LINE
8
BOTTOM_outsideCutPath
10
338.8675811
20
7.4677296
11
341.0813501
21
8.628568
0
LINE
8
BOTTOM_outsideCutPath
10
341.0813501
20
8.628568
11
343.2256254
21
9.9132478
0
LINE
8
BOTTOM_outsideCutPath
10
343.2256254
20
9.9132478
11
345.2934865
21
11.3176227
0
LINE
8
BOTTOM_outsideCutPath
10
345.2934865
20
11.3176227
11
347.2782596
21
12.8371603
0
LINE
8
BOTTOM_outsideCutPath
10
347.2782596
20
12.8371603
11
349.1735389
21
14.4669564
0
LINE
8
BOTTOM_outsideCutPath
10
349.1735389
20
14.4669564
11
350.9732076
21
16.2017507
0
LINE
8
BOTTOM_outsideCutPath
10
350.9732076
20
16.2017507
11
352.6714572
21
18.0359446
0
LINE
8
BOTTOM_outsideCutPath
10
352.6714572
20
18.0359446
11
354.2628069
21
19.963618
0
LINE
8
BOTTOM_outsideCutPath
10
354.2628069
20
19.963618
11
355.7421206
21
21.9785497
0
LINE
8
BOTTOM_outsideCutPath
10
355.7421206
20
21.9785497
11
357.1046239
21
24.0742366
0
LINE
8
BOTTOM_outsideCutPath
10
357.1046239
20
24.0742366
11
358.3459194
21
26.243915
0
LINE
8
BOTTOM_outsideCutPath
10
358.3459194
20
26.243915
11
359.462001
21
28.4805823
0
LINE
8
BOTTOM_outsideCutPath
10
359.462001
20
28.4805823
11
360.4492666
21
30.7770198
0
LINE
8
BOTTOM_outsideCutPath
10
360.4492666
20
30.7770198
11
361.3045298
21
33.1258161
0
LINE
8
BOTTOM_outsideCutPath
10
361.3045298
20
33.1258161
11
362.0250302
21
35.5193903
0
LINE
8
BOTTOM_outsideCutPath
10
362.0250302
20
35.5193903
11
362.6084427
21
37.9500176
0
LINE
8
BOTTOM_outsideCutPath
10
362.6084427
20
37.9500176
11
363.0528841
21
40.409853
0
LINE
8
BOTTOM_outsideCutPath
10
363.0528841
20
40.409853
11
363.3569201
21
42.8909578
0
LINE
8
BOTTOM_outsideCutPath
10
363.3569201
20
42.8909578
11
363.5195695
21
45.3853243
0
LINE
8
BOTTOM_outsideCutPath
10
363.5195695
20
45.3853243
11
363.5492065
21
47
0
LINE
8
BOTTOM_outsideCutPath
10
363.5492065
20
47
11
363.5492065
21
57.8873016
0
LINE
8
BOTTOM_outsideCutPath
10
363.5492065
20
57.8873016
11
366.5492065
21
57.8873016
0
LINE
8
BOTTOM_outsideCutPath
10
366.5492065
20
57.8873016
11
366.5492065
21
63.8873016
0
LINE
8
BOTTOM_outsideCutPath
10
366.5492065
20
63.8873016
11
363.5492065
21
63.8873016
0
LINE
8
BOTTOM_outsideCutPath
10
363.5492065
20
63.8873016
11
363.5492065
21
69.8873016
0
LINE
8
BOTTOM_outsideCutPath
10
363.5492065
20
69.8873016
11
366.5492065
21
69.8873016
0
LINE
8
BOTTOM_outsideCutPath
10
366.5492065
20
69.8873016
11
366.5492065
21
75.8873016
0
LINE
8
BOTTOM_outsideCutPath
10
366.5492065
20
75.8873016
11
363.5492065
21
75.8873016
0
LINE
8
BOTTOM_outsideCutPath
10
363.5492065
20
75.8873016
11
363.5492065
21
81.8873016
0
LINE
8
BOTTOM_outsideCutPath
10
363.5492065
20
81.8873016
11
366.5492065
21
81.8873016
0
LINE
8
BOTTOM_outsideCutPath
10
366.5492065
20
81.8873016
11
366.5492065
21
87.8873016
0
LINE
8
BOTTOM_outsideCutPath
10
366.5492065
20
87.8873016
11
363.5492065
21
87.8873016
0
LINE
8
BOTTOM_outsideCutPath
10
363.5492065
20
87.8873016
11
363.5492065
21
93.8873016
0
LINE
8
BOTTOM_outsideCutPath
10
363.5492065
20
93.8873016
11
366.5492065
21
93.8873016
0
LINE
8
BOTTOM_outsideCutPath
10
366.5492065
20
93.8873016
11
366.5492065
21
99.8873016
0
LINE
8
BOTTOM_outsideCutPath
10
366.5492065
20
99.8873016
11
363.5492065
21
99.8873016
0
LINE
8
BOTTOM_outsideCutPath
10
363.5492065
20
99.8873016
11
363.5492065
21
105.8873016
0
LINE
8
BOTTOM_outsideCutPath
10
363.5492065
20
105.8873016
11
366.5492065
21
105.8873016
0
LINE
8
BOTTOM_outsideCutPath
10
366.5492065
20
105.8873016
11
366.5492065
21
111.8873016
0
LINE
8
BOTTOM_outsideCutPath
10
366.5492065
20
111.8873016
11
363.5492065
21
111.8873016
0
LINE
8
BOTTOM_outsideCutPath
10
363.5492065
20
111.8873016
11
363.5492065
21
117.8873016
0
LINE
8
BOTTOM_outsideCutPath
10
363.5492065
20
117.8873016
11
366.5492065
21
117.8873016
0
LINE
8
BOTTOM_outsideCutPath
10
366.5492065
20
117.8873016
11
366.5492065
21
123.8873016
0
LINE
8
BOTTOM_outsideCutPath
10
366.5492065
20
123.8873016
11
363.5492065
21
123.8873016
0
LINE
8
BOTTOM_outsideCutPath
10
363.5492065
20
123.8873016
11
363.5492065
21
129.8873016
0
LINE
8
BOTTOM_outsideCutPath
10
363.5492065
20
129.8873016
11
363.5492065
21
134.7746033
0
LINE
8
BOTTOM_outsideCutPath
10
363.5492065
20
134.7746033
11
363.4782029
21
137.2732583
0
LINE
8
BOTTOM_outsideCutPath
10
363.4782029
20
137.2732583
11
363.2654212
21
139.7638492
0
LINE
8
BOTTOM_outsideCutPath
10
363.2654212
20
139.7638492
11
362.9115481
21
142.2383375
0
LINE
8
BOTTOM_outsideCutPath
10
362.9115481
20
142.2383375
11
362.4177258
21
144.6887372
0
LINE
8
BOTTOM_outsideCutPath
10
362.4177258
20
144.6887372
11
361.7855481
21
147.1071395
0
LINE
8
BOTTOM_outsideCutPath
10
361.7855481
20
147.1071395
11
361.0170552
21
149.4857394
0
LINE
8
BOTTOM_outsideCutPath
10
361.0170552
20
149.4857394
11
360.1147274
21
151.81686
0
LINE
8
BOTTOM_outsideCutPath
10
360.1147274
20
151.81686
11
359.0814769
21
154.0929778
0
LINE
8
BOTTOM_outsideCutPath
10
359.0814769
20
154.0929778
11
357.9206385
21
156.3067468
0
LINE
8
BOTTOM_outsideCutPath
10
357.9206385
20
156.3067468
11
356.6359587
21
158.4510221
0
LINE
8
BOTTOM_outsideCutPath
10
356.6359587
20
158.4510221
11
355.2315838
21
160.5188833
0
LINE
8
BOTTOM_outsideCutPath
10
355.2315838
20
160.5188833
11
353.7120462
21
162.5036564
0
LINE
8
BOTTOM_outsideCutPath
10
353.7120462
20
162.5036564
11
352.0822501
21
164.3989357
0
LINE
8
BOTTOM_outsideCutPath
10
352.0822501
20
164.3989357
11
350.3474558
21
166.1986043
0
LINE
8
BOTTOM_outsideCutPath
10
350.3474558
20
166.1986043
11
348.513262
21
167.896854
0
LINE
8
BOTTOM_outsideCutPath
10
348.513262
20
167.896854
11
346.5855885
21
169.4882036
0
LINE
8
BOTTOM_outsideCutPath
10
346.5855885
20
169.4882036
11
344.5706568
21
170.9675173
0
LINE
8
BOTTOM_outsideCutPath
10
344.5706568
20
170.9675173
11
342.4749699
21
172.3300206
0
LINE
8
BOTTOM_outsideCutPath
10
342.4749699
20
172.3300206
11
340.3052915
21
173.5713162
0
LINE
8
BOTTOM_outsideCutPath
10
340.3052915
20
173.5713162
11
338.0686242
21
174.6873978
0
LINE
8
BOTTOM_outsideCutPath
10
338.0686242
20
174.6873978
11
335.7721867
21
175.6746633
0
LINE
8
BOTTOM_outsideCutPath
10
335.7721867
20
175.6746633
11
333.4233905
21
176.5299265
0
LINE
8
BOTTOM_outsideCutPath
10
333.4233905
20
176.5299265
11
331.0298162
21
177.250427
0
LINE
8
BOTTOM_outsideCutPath
10
331.0298162
20
177.250427
11
328.5991889
21
177.8338394
0
LINE
8
BOTTOM_outsideCutPath
10
328.5991889
20
177.8338394
11
326.1393535
21
178.2782808
0
LINE
8
BOTTOM_outsideCutPath
10
326.1393535
20
178.2782808
11
323.6582487
21
178.5823169
0
LINE
8
BOTTOM_outsideCutPath
10
323.6582487
20
178.5823169
11
321.1638823
21
178.7449663
0
LINE
8
BOTTOM_outsideCutPath
10
321.1638823
20
178.7449663
11
319.5492065
21
178.7746033
0
LINE
8
SIDE_insideCutPath
10
43.8873016
20
184.7746033
11
43.8873016
21
206.2746033
0
LINE
8
SIDE_insideCutPath
10
43.8873016
20
217.0246033
11
43.8873016
21
238.5246033
0
LINE
8
SIDE_insideCutPath
10
43.8873016
20
249.2746033
11
43.8873016
21
270.7746033
0
LINE
8
SIDE_insideCutPath
10
46.9204451
20
184.7746033
11
46.9204451
21
190.1496033
0
LINE
8
SIDE_insideCutPath
10
46.9204451
20
200.8996033
11
46.9204451
21
222.3996033
0
LINE
8
SIDE_insideCutPath
10
46.9204451
20
233.1496033
11
46.9204451
21
254.6496033
0
LINE
8
SIDE_insideCutPath
10
46.9204451
20
265.3996033
11
46.9204451
21
270.7746033
0
LINE
8
SIDE_insideCutPath
10
49.9535885
20
184.7746033
11
49.9535885
21
206.2746033
0
LINE
8
SIDE_insideCutPath
10
49.9535885
20
217.0246033
11
49.9535885
21
238.5246033
0
LINE
8
SIDE_insideCutPath
10
49.9535885
20
249.2746033
11
49.9535885
21
270.7746033
0
LINE
8
SIDE_insideCutPath
10
52.9867319
20
184.7746033
11
52.9867319
21
190.1496033
0
LINE
8
SIDE_insideCutPath
10
52.9867319
20
200.8996033
11
52.9867319
21
222.3996033
0
LINE
8
SIDE_insideCutPath
10
52.9867319
20
233.1496033
11
52.9867319
21
254.6496033
0
LINE
8
SIDE_insideCutPath
10
52.9867319
20
265.3996033
11
52.9867319
21
270.7746033
0
LINE
8
SIDE_insideCutPath
10
56.0198753
20
184.7746033
11
56.0198753
21
206.2746033
0
LINE
8
SIDE_insideCutPath
10
56.0198753
20
217.0246033
11
56.0198753
21
238.5246033
0
LINE
8
SIDE_insideCutPath
10
56.0198753
20
249.2746033
11
56.0198753
21
270.7746033
0
LINE
8
SIDE_insideCutPath
10
59.0530188
20
184.7746033
11
59.0530188
21
190.1496033
0
LINE
8
SIDE_insideCutPath
10
59.0530188
20
200.8996033
11
59.0530188
21
222.3996033
0
LINE
8
SIDE_insideCutPath
10
59.0530188
20
233.1496033
11
59.0530188
21
254.6496033
0
LINE
8
SIDE_insideCutPath
10
59.0530188
20
265.3996033
11
59.0530188
21
270.7746033
0
LINE
8
SIDE_insideCutPath
10
62.0861622
20
184.7746033
11
62.0861622
21
206.2746033
0
LINE
8
SIDE_insideCutPath
10
62.0861622
20
217.0246033
11
62.0861622
21
238.5246033
0
LINE
8
SIDE_insideCutPath
10
62.0861622
20
249.2746033
11
62.0861622
21
270.7746033
0
LINE
8
SIDE_insideCutPath
10
65.1193056
20
184.7746033
11
65.1193056
21
190.1496033
0
LINE
8
SIDE_insideCutPath
10
65.1193056
20
200.8996033
11
65.1193056
21
222.3996033
0
LINE
8
SIDE_insideCutPath
10
65.1193056
20
233.1496033
11
65.1193056
21
254.6496033
0
LINE
8
SIDE_insideCutPath
10
65.1193056
20
265.3996033
11
65.1193056
21
270.7746033
0
LINE
8
SIDE_insideCutPath
10
68.1524491
20
184.7746033
11
68.1524491
21
206.2746033
0
LINE
8
SIDE_insideCutPath
10
68.1524491
20
217.0246033
11
68.1524491
21
238.5246033
0
LINE
8
SIDE_insideCutPath
10
68.1524491
20
249.2746033
11
68.1524491
21
270.7746033
0
LINE
8
SIDE_insideCutPath
10
71.1855925
20
184.7746033
11
71.1855925
21
190.1496033
0
LINE
8
SIDE_insideCutPath
10
71.1855925
20
200.8996033
11
71.1855925
21
222.3996033
0
LINE
8
SIDE_insideCutPath
10
71.1855925
20
233.1496033
11
71.1855925
21
254.6496033
0
LINE
8
SIDE_insideCutPath
10
71.1855925
20
265.3996033
11
71.1855925
21
270.7746033
0
LINE
8
SIDE_insideCutPath
10
74.2187359
20
184.7746033
11
74.2187359
21
206.2746033
0
LINE
8
SIDE_insideCutPath
10
74.2187359
20
217.0246033
11
74.2187359
21
238.5246033
0
LINE
8
SIDE_insideCutPath
10
74.2187359
20
249.2746033
11
74.2187359
21
270.7746033
0
LINE
8
SIDE_insideCutPath
10
77.2518794
20
184.7746033
11
77.2518794
21
190.1496033
0
LINE
8
SIDE_insideCutPath
10
77.2518794
20
200.8996033
11
77.2518794
21
222.3996033
0
LINE
8
SIDE_insideCutPath
10
77.2518794
20
233.1496033
11
77.2518794
21
254.6496033
0
LINE
8
SIDE_insideCutPath
10
77.2518794
20
265.3996033
11
77.2518794
21
270.7746033
0
LINE
8
SIDE_insideCutPath
10
80.2850228
20
184.7746033
11
80.2850228
21
206.2746033
0
LINE
8
SIDE_insideCutPath
10
80.2850228
20
217.0246033
11
80.2850228
21
238.5246033
0
LINE
8
SIDE_insideCutPath
10
80.2850228
20
249.2746033
11
80.2850228
21
270.7746033
0
LINE
8
SIDE_insideCutPath
10
83.3181662
20
184.7746033
11
83.3181662
21
190.1496033
0
LINE
8
SIDE_insideCutPath
10
83.3181662
20
200.8996033
11
83.3181662
21
222.3996033
0
LINE
8
SIDE_insideCutPath
10
83.3181662
20
233.1496033
11
83.3181662
21
254.6496033
0
LINE
8
SIDE_insideCutPath
10
83.3181662
20
265.3996033
11
83.3181662
21
270.7746033
0
LINE
8
SIDE_insideCutPath
10
86.3513097
20
184.7746033
11
86.3513097
21
206.2746033
0
LINE
8
SIDE_insideCutPath
10
86.3513097
20
217.0246033
11
86.3513097
21
238.5246033
0
LINE
8
SIDE_insideCutPath
10
86.3513097
20
249.2746033
11
86.3513097
21
270.7746033
0
LINE
8
SIDE_insideCutPath
10
89.3844531
20
184.7746033
11
89.3844531
21
190.1496033
0
LINE
8
SIDE_insideCutPath
10
89.3844531
20
200.8996033
11
89.3844531
21
222.3996033
0
LINE
8
SIDE_insideCutPath
10
89.3844531
20
233.1496033
11
89.3844531
21
254.6496033
0
LINE
8
SIDE_insideCutPath
10
89.3844531
20
265.3996033
11
89.3844531
21
270.7746033
0
LINE
8
SIDE_insideCutPath
10
92.4175965
20
184.7746033
11
92.4175965
21
206.2746033
0
LINE
8
SIDE_insideCutPath
10
92.4175965
20
217.0246033
11
92.4175965
21
238.5246033
0
LINE
8
SIDE_insideCutPath
10
92.4175965
20
249.2746033
11
92.4175965
21
270.7746033
0
LINE
8
SIDE_insideCutPath
10
95.4507399
20
184.7746033
11
95.4507399
21
190.1496033
0
LINE
8
SIDE_insideCutPath
10
95.4507399
20
200.8996033
11
95.4507399
21
222.3996033
0
LINE
8
SIDE_insideCutPath
10
95.4507399
20
233.1496033
11
95.4507399
21
254.6496033
0
LINE
8
SIDE_insideCutPath
10
95.4507399
20
265.3996033
11
95.4507399
21
270.7746033
0
LINE
8
SIDE_insideCutPath
10
98.4838834
20
184.7746033
11
98.4838834
21
206.2746033
0
LINE
8
SIDE_insideCutPath
10
98.4838834
20
217.0246033
11
98.4838834
21
238.5246033
0
LINE
8
SIDE_insideCutPath
10
98.4838834
20
249.2746033
11
98.4838834
21
270.7746033
0
LINE
8
SIDE_insideCutPath
10
101.5170268
20
184.7746033
11
101.5170268
21
190.1496033
0
LINE
8
SIDE_insideCutPath
10
101.5170268
20
200.8996033
11
101.5170268
21
222.3996033
0
LINE
8
SIDE_insideCutPath
10
101.5170268
20
233.1496033
11
101.5170268
21
254.6496033
0
LINE
8
SIDE_insideCutPath
10
101.5170268
20
265.3996033
11
101.5170268
21
270.7746033
0
LINE
8
SIDE_insideCutPath
10
104.5501702
20
184.7746033
11
104.5501702
21
206.2746033
0
LINE
8
SIDE_insideCutPath
10
104.5501702
20
217.0246033
11
104.5501702
21
238.5246033
0
LINE
8
SIDE_insideCutPath
10
104.5501702
20
249.2746033
11
104.5501702
21
270.7746033
0
LINE
8
SIDE_insideCutPath
10
107.5833137
20
184.7746033
11
107.5833137
21
190.1496033
0
LINE
8
SIDE_insideCutPath
10
107.5833137
20
200.8996033
11
107.5833137
21
222.3996033
0
LINE
8
SIDE_insideCutPath
10
107.5833137
20
233.1496033
11
107.5833137
21
254.6496033
0
LINE
8
SIDE_insideCutPath
10
107.5833137
20
265.3996033
11
107.5833137
21
270.7746033
0
LINE
8
SIDE_insideCutPath
10
198.3579169
20
184.7746033
11
198.3579169
21
206.2746033
0
LINE
8
SIDE_insideCutPath
10
198.3579169
20
217.0246033
11
198.3579169
21
238.5246033
0
LINE
8
SIDE_insideCutPath
10
198.3579169
20
249.2746033
11
198.3579169
21
270.7746033
0
LINE
8
SIDE_insideCutPath
10
201.3910603
20
184.7746033
11
201.3910603
21
190.1496033
0
LINE
8
SIDE_insideCutPath
10
201.3910603
20
200.8996033
11
201.3910603
21
222.3996033
0
LINE
8
SIDE_insideCutPath
10
201.3910603
20
233.1496033
11
201.3910603
21
254.6496033
0
LINE
8
SIDE_insideCutPath
10
201.3910603
20
265.3996033
11
201.3910603
21
270.7746033
0
LINE
8
SIDE_insideCutPath
10
204.4242038
20
184.7746033
11
204.4242038
21
206.2746033
0
LINE
8
SIDE_insideCutPath
10
204.4242038
20
217.0246033
11
204.4242038
21
238.5246033
0
LINE
8
SIDE_insideCutPath
10
204.4242038
20
249.2746033
11
204.4242038
21
270.7746033
0
LINE
8
SIDE_insideCutPath
10
207.4573472
20
184.7746033
11
207.4573472
21
190.1496033
0
LINE
8
SIDE_insideCutPath
10
207.4573472
20
200.8996033
11
207.4573472
21
222.3996033
0
LINE
8
SIDE_insideCutPath
10
207.4573472
20
233.1496033
11
207.4573472
21
254.6496033
0
LINE
8
SIDE_insideCutPath
10
207.4573472
20
265.3996033
11
207.4573472
21
270.7746033
0
LINE
8
SIDE_insideCutPath
10
210.4904906
20
184.7746033
11
210.4904906
21
206.2746033
0
LINE
8
SIDE_insideCutPath
10
210.4904906
20
217.0246033
11
210.4904906
21
238.5246033
0
LINE
8
SIDE_insideCutPath
10
210.4904906
20
249.2746033
11
210.4904906
21
270.7746033
0
LINE
8
SIDE_insideCutPath
10
213.5236341
20
184.7746033
11
213.5236341
21
190.1496033
0
LINE
8
SIDE_insideCutPath
10
213.5236341
20
200.8996033
11
213.5236341
21
222.3996033
0
LINE
8
SIDE_insideCutPath
10
213.5236341
20
233.1496033
11
213.5236341
21
254.6496033
0
LINE
8
SIDE_insideCutPath
10
213.5236341
20
265.3996033
11
213.5236341
21
270.7746033
0
LINE
8
SIDE_insideCutPath
10
216.5567775
20
184.7746033
11
216.5567775
21
206.2746033
0
LINE
8
SIDE_insideCutPath
10
216.5567775
20
217.0246033
11
216.5567775
21
238.5246033
0
LINE
8
SIDE_insideCutPath
10
216.5567775
20
249.2746033
11
216.5567775
21
270.7746033
0
LINE
8
SIDE_insideCutPath
10
219.5899209
20
184.7746033
11
219.5899209
21
190.1496033
0
LINE
8
SIDE_insideCutPath
10
219.5899209
20
200.8996033
11
219.5899209
21
222.3996033
0
LINE
8
SIDE_insideCutPath
10
219.5899209
20
233.1496033
11
219.5899209
21
254.6496033
0
LINE
8
SIDE_insideCutPath
10
219.5899209
20
265.3996033
11
219.5899209
21
270.7746033
0
LINE
8
SIDE_insideCutPath
10
222.6230644
20
184.7746033
11
222.6230644
21
206.2746033
0
LINE
8
SIDE_insideCutPath
10
222.6230644
20
217.0246033
11
222.6230644
21
238.5246033
0
LINE
8
SIDE_insideCutPath
10
222.6230644
20
249.2746033
11
222.6230644
21
270.7746033
0
LINE
8
SIDE_insideCutPath
10
225.6562078
20
184.7746033
11
225.6562078
21
190.1496033
0
LINE
8
SIDE_insideCutPath
10
225.6562078
20
200.8996033
11
225.6562078
21
222.3996033
0
LINE
8
SIDE_insideCutPath
10
225.6562078
20
233.1496033
11
225.6562078
21
254.6496033
0
LINE
8
SIDE_insideCutPath
10
225.6562078
20
265.3996033
11
225.6562078
21
270.7746033
0
LINE
8
SIDE_insideCutPath
10
228.6893512
20
184.7746033
11
228.6893512
21
206.2746033
0
LINE
8
SIDE_insideCutPath
10
228.6893512
20
217.0246033
11
228.6893512
21
238.5246033
0
LINE
8
SIDE_insideCutPath
10
228.6893512
20
249.2746033
11
228.6893512
21
270.7746033
0
LINE
8
SIDE_insideCutPath
10
231.7224947
20
184.7746033
11
231.7224947
21
190.1496033
0
LINE
8
SIDE_insideCutPath
10
231.7224947
20
200.8996033
11
231.7224947
21
222.3996033
0
LINE
8
SIDE_insideCutPath
10
231.7224947
20
233.1496033
11
231.7224947
21
254.6496033
0
LINE
8
SIDE_insideCutPath
10
231.7224947
20
265.3996033
11
231.7224947
21
270.7746033
0
LINE
8
SIDE_insideCutPath
10
234.7556381
20
184.7746033
11
234.7556381
21
206.2746033
0
LINE
8
SIDE_insideCutPath
10
234.7556381
20
217.0246033
11
234.7556381
21
238.5246033
0
LINE
8
SIDE_insideCutPath
10
234.7556381
20
249.2746033
11
234.7556381
21
270.7746033
0
LINE
8
SIDE_insideCutPath
10
237.7887815
20
184.7746033
11
237.7887815
21
190.1496033
0
LINE
8
SIDE_insideCutPath
10
237.7887815
20
200.8996033
11
237.7887815
21
222.3996033
0
LINE
8
SIDE_insideCutPath
10
237.7887815
20
233.1496033
11
237.7887815
21
254.6496033
0
LINE
8
SIDE_insideCutPath
10
237.7887815
20
265.3996033
11
237.7887815
21
270.7746033
0
LINE
8
SIDE_insideCutPath
10
240.8219249
20
184.7746033
11
240.8219249
21
206.2746033
0
LINE
8
SIDE_insideCutPath
10
240.8219249
20
217.0246033
11
240.8219249
21
238.5246033
0
LINE
8
SIDE_insideCutPath
10
240.8219249
20
249.2746033
11
240.8219249
21
270.7746033
0
LINE
8
SIDE_insideCutPath
10
243.8550684
20
184.7746033
11
243.8550684
21
190.1496033
0
LINE
8
SIDE_insideCutPath
10
243.8550684
20
200.8996033
11
243.8550684
21
222.3996033
0
LINE
8
SIDE_insideCutPath
10
243.8550684
20
233.1496033
11
243.8550684
21
254.6496033
0
LINE
8
SIDE_insideCutPath
10
243.8550684
20
265.3996033
11
243.8550684
21
270.7746033
0
LINE
8
SIDE_insideCutPath
10
246.8882118
20
184.7746033
11
246.8882118
21
206.2746033
0
LINE
8
SIDE_insideCutPath
10
246.8882118
20
217.0246033
11
246.8882118
21
238.5246033
0
LINE
8
SIDE_insideCutPath
10
246.8882118
20
249.2746033
11
246.8882118
21
270.7746033
0
LINE
8
SIDE_insideCutPath
10
249.9213552
20
184.7746033
11
249.9213552
21
190.1496033
0
LINE
8
SIDE_insideCutPath
10
249.9213552
20
200.8996033
11
249.9213552
21
222.3996033
0
LINE
8
SIDE_insideCutPath
10
249.9213552
20
233.1496033
11
249.9213552
21
254.6496033
0
LINE
8
SIDE_insideCutPath
10
249.9213552
20
265.3996033
11
249.9213552
21
270.7746033
0
LINE
8
SIDE_insideCutPath
10
252.9544987
20
184.7746033
11
252.9544987
21
206.2746033
0
LINE
8
SIDE_insideCutPath
10
252.9544987
20
217.0246033
11
252.9544987
21
238.5246033
0
LINE
8
SIDE_insideCutPath
10
252.9544987
20
249.2746033
11
252.9544987
21
270.7746033
0
LINE
8
SIDE_insideCutPath
10
255.9876421
20
184.7746033
11
255.9876421
21
190.1496033
0
LINE
8
SIDE_insideCutPath
10
255.9876421
20
200.8996033
11
255.9876421
21
222.3996033
0
LINE
8
SIDE_insideCutPath
10
255.9876421
20
233.1496033
11
255.9876421
21
254.6496033
0
LINE
8
SIDE_insideCutPath
10
255.9876421
20
265.3996033
11
255.9876421
21
270.7746033
0
LINE
8
SIDE_insideCutPath
10
259.0207855
20
184.7746033
11
259.0207855
21
206.2746033
0
LINE
8
SIDE_insideCutPath
10
259.0207855
20
217.0246033
11
259.0207855
21
238.5246033
0
LINE
8
SIDE_insideCutPath
10
259.0207855
20
249.2746033
11
259.0207855
21
270.7746033
0
LINE
8
SIDE_insideCutPath
10
262.053929
20
184.7746033
11
262.053929
21
190.1496033
0
LINE
8
SIDE_insideCutPath
10
262.053929
20
200.8996033
11
262.053929
21
222.3996033
0
LINE
8
SIDE_insideCutPath
10
262.053929
20
233.1496033
11
262.053929
21
254.6496033
0
LINE
8
SIDE_insideCutPath
10
262.053929
20
265.3996033
11
262.053929
21
270.7746033
0
LINE
8
SIDE_insideCutPath
10
352.8285322
20
184.7746033
11
352.8285322
21
206.2746033
0
LINE
8
SIDE_insideCutPath
10
352.8285322
20
217.0246033
11
352.8285322
21
238.5246033
0
LINE
8
SIDE_insideCutPath
10
352.8285322
20
249.2746033
11
352.8285322
21
270.7746033
0
LINE
8
SIDE_insideCutPath
10
355.8616756
20
184.7746033
11
355.8616756
21
190.1496033
0
LINE
8
SIDE_insideCutPath
10
355.8616756
20
200.8996033
11
355.8616756
21
222.3996033
0
LINE
8
SIDE_insideCutPath
10
355.8616756
20
233.1496033
11
355.8616756
21
254.6496033
0
LINE
8
SIDE_insideCutPath
10
355.8616756
20
265.3996033
11
355.8616756
21
270.7746033
0
LINE
8
SIDE_insideCutPath
10
358.8948191
20
184.7746033
11
358.8948191
21
206.2746033
0
LINE
8
SIDE_insideCutPath
10
358.8948191
20
217.0246033
11
358.8948191
21
238.5246033
0
LINE
8
SIDE_insideCutPath
10
358.8948191
20
249.2746033
11
358.8948191
21
270.7746033
0
LINE
8
SIDE_insideCutPath
10
361.9279625
20
184.7746033
11
361.9279625
21
190.1496033
0
LINE
8
SIDE_insideCutPath
10
361.9279625
20
200.8996033
11
361.9279625
21
222.3996033
0
LINE
8
SIDE_insideCutPath
10
361.9279625
20
233.1496033
11
361.9279625
21
254.6496033
0
LINE
8
SIDE_insideCutPath
10
361.9279625
20
265.3996033
11
361.9279625
21
270.7746033
0
LINE
8
SIDE_insideCutPath
10
364.9611059
20
184.7746033
11
364.9611059
21
206.2746033
0
LINE
8
SIDE_insideCutPath
10
364.9611059
20
217.0246033
11
364.9611059
21
238.5246033
0
LINE
8
SIDE_insideCutPath
10
364.9611059
20
249.2746033
11
364.9611059
21
270.7746033
0
LINE
8
SIDE_insideCutPath
10
367.9942494
20
184.7746033
11
367.9942494
21
190.1496033
0
LINE
8
SIDE_insideCutPath
10
367.9942494
20
200.8996033
11
367.9942494
21
222.3996033
0
LINE
8
SIDE_insideCutPath
10
367.9942494
20
233.1496033
11
367.9942494
21
254.6496033
0
LINE
8
SIDE_insideCutPath
10
367.9942494
20
265.3996033
11
367.9942494
21
270.7746033
0
LINE
8
SIDE_insideCutPath
10
371.0273928
20
184.7746033
11
371.0273928
21
206.2746033
0
LINE
8
SIDE_insideCutPath
10
371.0273928
20
217.0246033
11
371.0273928
21
238.5246033
0
LINE
8
SIDE_insideCutPath
10
371.0273928
20
249.2746033
11
371.0273928
21
270.7746033
0
LINE
8
SIDE_insideCutPath
10
374.0605362
20
184.7746033
11
374.0605362
21
190.1496033
0
LINE
8
SIDE_insideCutPath
10
374.0605362
20
200.8996033
11
374.0605362
21
222.3996033
0
LINE
8
SIDE_insideCutPath
10
374.0605362
20
233.1496033
11
374.0605362
21
254.6496033
0
LINE
8
SIDE_insideCutPath
10
374.0605362
20
265.3996033
11
374.0605362
21
270.7746033
0
LINE
8
SIDE_insideCutPath
10
377.0936797
20
184.7746033
11
377.0936797
21
206.2746033
0
LINE
8
SIDE_insideCutPath
10
377.0936797
20
217.0246033
11
377.0936797
21
238.5246033
0
LINE
8
SIDE_insideCutPath
10
377.0936797
20
249.2746033
11
377.0936797
21
270.7746033
0
LINE
8
SIDE_insideCutPath
10
380.1268231
20
184.7746033
11
380.1268231
21
190.1496033
0
LINE
8
SIDE_insideCutPath
10
380.1268231
20
200.8996033
11
380.1268231
21
222.3996033
0
LINE
8
SIDE_insideCutPath
10
380.1268231
20
233.1496033
11
380.1268231
21
254.6496033
0
LINE
8
SIDE_insideCutPath
10
380.1268231
20
265.3996033
11
380.1268231
21
270.7746033
0
LINE
8
SIDE_insideCutPath
10
383.1599665
20
184.7746033
11
383.1599665
21
206.2746033
0
LINE
8
SIDE_insideCutPath
10
383.1599665
20
217.0246033
11
383.1599665
21
238.5246033
0
LINE
8
SIDE_insideCutPath
10
383.1599665
20
249.2746033
11
383.1599665
21
270.7746033
0
LINE
8
SIDE_insideCutPath
10
386.1931099
20
184.7746033
11
386.1931099
21
190.1496033
0
LINE
8
SIDE_insideCutPath
10
386.1931099
20
200.8996033
11
386.1931099
21
222.3996033
0
LINE
8
SIDE_insideCutPath
10
386.1931099
20
233.1496033
11
386.1931099
21
254.6496033
0
LINE
8
SIDE_insideCutPath
10
386.1931099
20
265.3996033
11
386.1931099
21
270.7746033
0
LINE
8
SIDE_insideCutPath
10
389.2262534
20
184.7746033
11
389.2262534
21
206.2746033
0
LINE
8
SIDE_insideCutPath
10
389.2262534
20
217.0246033
11
389.2262534
21
238.5246033
0
LINE
8
SIDE_insideCutPath
10
389.2262534
20
249.2746033
11
389.2262534
21
270.7746033
0
LINE
8
SIDE_insideCutPath
10
392.2593968
20
184.7746033
11
392.2593968
21
190.1496033
0
LINE
8
SIDE_insideCutPath
10
392.2593968
20
200.8996033
11
392.2593968
21
222.3996033
0
LINE
8
SIDE_insideCutPath
10
392.2593968
20
233.1496033
11
392.2593968
21
254.6496033
0
LINE
8
SIDE_insideCutPath
10
392.2593968
20
265.3996033
11
392.2593968
21
270.7746033
0
LINE
8
SIDE_insideCutPath
10
395.2925402
20
184.7746033
11
395.2925402
21
206.2746033
0
LINE
8
SIDE_insideCutPath
10
395.2925402
20
217.0246033
11
395.2925402
21
238.5246033
0
LINE
8
SIDE_insideCutPath
10
395.2925402
20
249.2746033
11
395.2925402
21
270.7746033
0
LINE
8
SIDE_insideCutPath
10
398.3256837
20
184.7746033
11
398.3256837
21
190.1496033
0
LINE
8
SIDE_insideCutPath
10
398.3256837
20
200.8996033
11
398.3256837
21
222.3996033
0
LINE
8
SIDE_insideCutPath
10
398.3256837
20
233.1496033
11
398.3256837
21
254.6496033
0
LINE
8
SIDE_insideCutPath
10
398.3256837
20
265.3996033
11
398.3256837
21
270.7746033
0
LINE
8
SIDE_insideCutPath
10
401.3588271
20
184.7746033
11
401.3588271
21
206.2746033
0
LINE
8
SIDE_insideCutPath
10
401.3588271
20
217.0246033
11
401.3588271
21
238.5246033
0
LINE
8
SIDE_insideCutPath
10
401.3588271
20
249.2746033
11
401.3588271
21
270.7746033
0
LINE
8
SIDE_insideCutPath
10
404.3919705
20
184.7746033
11
404.3919705
21
190.1496033
0
LINE
8
SIDE_insideCutPath
10
404.3919705
20
200.8996033
11
404.3919705
21
222.3996033
0
LINE
8
SIDE_insideCutPath
10
404.3919705
20
233.1496033
11
404.3919705
21
254.6496033
0
LINE
8
SIDE_insideCutPath
10
404.3919705
20
265.3996033
11
404.3919705
21
270.7746033
0
LINE
8
SIDE_insideCutPath
10
407.425114
20
184.7746033
11
407.425114
21
206.2746033
0
LINE
8
SIDE_insideCutPath
10
407.425114
20
217.0246033
11
407.425114
21
238.5246033
0
LINE
8
SIDE_insideCutPath
10
407.425114
20
249.2746033
11
407.425114
21
270.7746033
0
LINE
8
SIDE_insideCutPath
10
410.4582574
20
184.7746033
11
410.4582574
21
190.1496033
0
LINE
8
SIDE_insideCutPath
10
410.4582574
20
200.8996033
11
410.4582574
21
222.3996033
0
LINE
8
SIDE_insideCutPath
10
410.4582574
20
233.1496033
11
410.4582574
21
254.6496033
0
LINE
8
SIDE_insideCutPath
10
410.4582574
20
265.3996033
11
410.4582574
21
270.7746033
0
LINE
8
SIDE_insideCutPath
10
413.4914008
20
184.7746033
11
413.4914008
21
206.2746033
0
LINE
8
SIDE_insideCutPath
10
413.4914008
20
217.0246033
11
413.4914008
21
238.5246033
0
LINE
8
SIDE_insideCutPath
10
413.4914008
20
249.2746033
11
413.4914008
21
270.7746033
0
LINE
8
SIDE_insideCutPath
10
416.5245442
20
184.7746033
11
416.5245442
21
190.1496033
0
LINE
8
SIDE_insideCutPath
10
416.5245442
20
200.8996033
11
416.5245442
21
222.3996033
0
LINE
8
SIDE_insideCutPath
10
416.5245442
20
233.1496033
11
416.5245442
21
254.6496033
0
LINE
8
SIDE_insideCutPath
10
416.5245442
20
265.3996033
11
416.5245442
21
270.7746033
0
LINE
8
SIDE_insideCutPath
10
507.2991475
20
184.7746033
11
507.2991475
21
206.2746033
0
LINE
8
SIDE_insideCutPath
10
507.2991475
20
217.0246033
11
507.2991475
21
238.5246033
0
LINE
8
SIDE_insideCutPath
10
507.2991475
20
249.2746033
11
507.2991475
21
270.7746033
0
LINE
8
SIDE_insideCutPath
10
510.3322909
20
184.7746033
11
510.3322909
21
190.1496033
0
LINE
8
SIDE_insideCutPath
10
510.3322909
20
200.8996033
11
510.3322909
21
222.3996033
0
LINE
8
SIDE_insideCutPath
10
510.3322909
20
233.1496033
11
510.3322909
21
254.6496033
0
LINE
8
SIDE_insideCutPath
10
510.3322909
20
265.3996033
11
510.3322909
21
270.7746033
0
LINE
8
SIDE_insideCutPath
10
513.3654344
20
184.7746033
11
513.3654344
21
206.2746033
0
LINE
8
SIDE_insideCutPath
10
513.3654344
20
217.0246033
11
513.3654344
21
238.5246033
0
LINE
8
SIDE_insideCutPath
10
513.3654344
20
249.2746033
11
513.3654344
21
270.7746033
0
LINE
8
SIDE_insideCutPath
10
516.3985778
20
184.7746033
11
516.3985778
21
190.1496033
0
LINE
8
SIDE_insideCutPath
10
516.3985778
20
200.8996033
11
516.3985778
21
222.3996033
0
LINE
8
SIDE_insideCutPath
10
516.3985778
20
233.1496033
11
516.3985778
21
254.6496033
0
LINE
8
SIDE_insideCutPath
10
516.3985778
20
265.3996033
11
516.3985778
21
270.7746033
0
LINE
8
SIDE_insideCutPath
10
519.4317212
20
184.7746033
11
519.4317212
21
206.2746033
0
LINE
8
SIDE_insideCutPath
10
519.4317212
20
217.0246033
11
519.4317212
21
238.5246033
0
LINE
8
SIDE_insideCutPath
10
519.4317212
20
249.2746033
11
519.4317212
21
270.7746033
0
LINE
8
SIDE_insideCutPath
10
522.4648647
20
184.7746033
11
522.4648647
21
190.1496033
0
LINE
8
SIDE_insideCutPath
10
522.4648647
20
200.8996033
11
522.4648647
21
222.3996033
0
LINE
8
SIDE_insideCutPath
10
522.4648647
20
233.1496033
11
522.4648647
21
254.6496033
0
LINE
8
SIDE_insideCutPath
10
522.4648647
20
265.3996033
11
522.4648647
21
270.7746033
0
LINE
8
SIDE_insideCutPath
10
525.4980081
20
184.7746033
11
525.4980081
21
206.2746033
0
LINE
8
SIDE_insideCutPath
10
525.4980081
20
217.0246033
11
525.4980081
21
238.5246033
0
LINE
8
SIDE_insideCutPath
10
525.4980081
20
249.2746033
11
525.4980081
21
270.7746033
0
LINE
8
SIDE_insideCutPath
10
528.5311515
20
184.7746033
11
528.5311515
21
190.1496033
0
LINE
8
SIDE_insideCutPath
10
528.5311515
20
200.8996033
11
528.5311515
21
222.3996033
0
LINE
8
SIDE_insideCutPath
10
528.5311515
20
233.1496033
11
528.5311515
21
254.6496033
0
LINE
8
SIDE_insideCutPath
10
528.5311515
20
265.3996033
11
528.5311515
21
270.7746033
0
LINE
8
SIDE_insideCutPath
10
531.5642949
20
184.7746033
11
531.5642949
21
206.2746033
0
LINE
8
SIDE_insideCutPath
10
531.5642949
20
217.0246033
11
531.5642949
21
238.5246033
0
LINE
8
SIDE_insideCutPath
10
531.5642949
20
249.2746033
11
531.5642949
21
270.7746033
0
LINE
8
SIDE_insideCutPath
10
534.5974384
20
184.7746033
11
534.5974384
21
190.1496033
0
LINE
8
SIDE_insideCutPath
10
534.5974384
20
200.8996033
11
534.5974384
21
222.3996033
0
LINE
8
SIDE_insideCutPath
10
534.5974384
20
233.1496033
11
534.5974384
21
254.6496033
0
LINE
8
SIDE_insideCutPath
10
534.5974384
20
265.3996033
11
534.5974384
21
270.7746033
0
LINE
8
SIDE_insideCutPath
10
537.6305818
20
184.7746033
11
537.6305818
21
206.2746033
0
LINE
8
SIDE_insideCutPath
10
537.6305818
20
217.0246033
11
537.6305818
21
238.5246033
0
LINE
8
SIDE_insideCutPath
10
537.6305818
20
249.2746033
11
537.6305818
21
270.7746033
0
LINE
8
SIDE_insideCutPath
10
540.6637252
20
184.7746033
11
540.6637252
21
190.1496033
0
LINE
8
SIDE_insideCutPath
10
540.6637252
20
200.8996033
11
540.6637252
21
222.3996033
0
LINE
8
SIDE_insideCutPath
10
540.6637252
20
233.1496033
11
540.6637252
21
254.6496033
0
LINE
8
SIDE_insideCutPath
10
540.6637252
20
265.3996033
11
540.6637252
21
270.7746033
0
LINE
8
SIDE_insideCutPath
10
543.6968687
20
184.7746033
11
543.6968687
21
206.2746033
0
LINE
8
SIDE_insideCutPath
10
543.6968687
20
217.0246033
11
543.6968687
21
238.5246033
0
LINE
8
SIDE_insideCutPath
10
543.6968687
20
249.2746033
11
543.6968687
21
270.7746033
0
LINE
8
SIDE_insideCutPath
10
546.7300121
20
184.7746033
11
546.7300121
21
190.1496033
0
LINE
8
SIDE_insideCutPath
10
546.7300121
20
200.8996033
11
546.7300121
21
222.3996033
0
LINE
8
SIDE_insideCutPath
10
546.7300121
20
233.1496033
11
546.7300121
21
254.6496033
0
LINE
8
SIDE_insideCutPath
10
546.7300121
20
265.3996033
11
546.7300121
21
270.7746033
0
LINE
8
SIDE_insideCutPath
10
549.7631555
20
184.7746033
11
549.7631555
21
206.2746033
0
LINE
8
SIDE_insideCutPath
10
549.7631555
20
217.0246033
11
549.7631555
21
238.5246033
0
LINE
8
SIDE_insideCutPath
10
549.7631555
20
249.2746033
11
549.7631555
21
270.7746033
0
LINE
8
SIDE_insideCutPath
10
552.796299
20
184.7746033
11
552.796299
21
190.1496033
0
LINE
8
SIDE_insideCutPath
10
552.796299
20
200.8996033
11
552.796299
21
222.3996033
0
LINE
8
SIDE_insideCutPath
10
552.796299
20
233.1496033
11
552.796299
21
254.6496033
0
LINE
8
SIDE_insideCutPath
10
552.796299
20
265.3996033
11
552.796299
21
270.7746033
0
LINE
8
SIDE_insideCutPath
10
555.8294424
20
184.7746033
11
555.8294424
21
206.2746033
0
LINE
8
SIDE_insideCutPath
10
555.8294424
20
217.0246033
11
555.8294424
21
238.5246033
0
LINE
8
SIDE_insideCutPath
10
555.8294424
20
249.2746033
11
555.8294424
21
270.7746033
0
LINE
8
SIDE_insideCutPath
10
558.8625858
20
184.7746033
11
558.8625858
21
190.1496033
0
LINE
8
SIDE_insideCutPath
10
558.8625858
20
200.8996033
11
558.8625858
21
222.3996033
0
LINE
8
SIDE_insideCutPath
10
558.8625858
20
233.1496033
11
558.8625858
21
254.6496033
0
LINE
8
SIDE_insideCutPath
10
558.8625858
20
265.3996033
11
558.8625858
21
270.7746033
0
LINE
8
SIDE_insideCutPath
10
561.8957292
20
184.7746033
11
561.8957292
21
206.2746033
0
LINE
8
SIDE_insideCutPath
10
561.8957292
20
217.0246033
11
561.8957292
21
238.5246033
0
LINE
8
SIDE_insideCutPath
10
561.8957292
20
249.2746033
11
561.8957292
21
270.7746033
0
LINE
8
SIDE_insideCutPath
10
564.9288727
20
184.7746033
11
564.9288727
21
190.1496033
0
LINE
8
SIDE_insideCutPath
10
564.9288727
20
200.8996033
11
564.9288727
21
222.3996033
0
LINE
8
SIDE_insideCutPath
10
564.9288727
20
233.1496033
11
564.9288727
21
254.6496033
0
LINE
8
SIDE_insideCutPath
10
564.9288727
20
265.3996033
11
564.9288727
21
270.7746033
0
LINE
8
SIDE_insideCutPath
10
567.9620161
20
184.7746033
11
567.9620161
21
206.2746033
0
LINE
8
SIDE_insideCutPath
10
567.9620161
20
217.0246033
11
567.9620161
21
238.5246033
0
LINE
8
SIDE_insideCutPath
10
567.9620161
20
249.2746033
11
567.9620161
21
270.7746033
0
LINE
8
SIDE_insideCutPath
10
570.9951595
20
184.7746033
11
570.9951595
21
190.1496033
0
LINE
8
SIDE_insideCutPath
10
570.9951595
20
200.8996033
11
570.9951595
21
222.3996033
0
LINE
8
SIDE_insideCutPath
10
570.9951595
20
233.1496033
11
570.9951595
21
254.6496033
0
LINE
8
SIDE_insideCutPath
10
570.9951595
20
265.3996033
11
570.9951595
21
270.7746033
0
LINE
8
SIDE_outsideCutPath
10
0
20
270.7746033
11
0
21
184.7746033
0
LINE
8
SIDE_outsideCutPath
10
0
20
184.7746033
11
6.9436508
21
184.7746033
0
LINE
8
SIDE_outsideCutPath
10
6.9436508
20
184.7746033
11
6.9436508
21
187.7746033
0
LINE
8
SIDE_outsideCutPath
10
6.9436508
20
187.7746033
11
12.9436508
21
187.7746033
0
LINE
8
SIDE_outsideCutPath
10
12.9436508
20
187.7746033
11
12.9436508
21
184.7746033
0
LINE
8
SIDE_outsideCutPath
10
12.9436508
20
184.7746033
11
18.9436508
21
184.7746033
0
LINE
8
SIDE_outsideCutPath
10
18.9436508
20
184.7746033
11
18.9436508
21
187.7746033
0
LINE
8
SIDE_outsideCutPath
10
18.9436508
20
187.7746033
11
24.9436508
21
187.7746033
0
LINE
8
SIDE_outsideCutPath
10
24.9436508
20
187.7746033
11
24.9436508
21
184.7746033
0
LINE
8
SIDE_outsideCutPath
10
24.9436508
20
184.7746033
11
30.9436508
21
184.7746033
0
LINE
8
SIDE_outsideCutPath
10
30.9436508
20
184.7746033
11
30.9436508
21
187.7746033
0
LINE
8
SIDE_outsideCutPath
10
30.9436508
20
187.7746033
11
36.9436508
21
187.7746033
0
LINE
8
SIDE_outsideCutPath
10
36.9436508
20
187.7746033
11
36.9436508
21
184.7746033
0
LINE
8
SIDE_outsideCutPath
10
36.9436508
20
184.7746033
11
42.9436508
21
184.7746033
0
LINE
8
SIDE_outsideCutPath
10
42.9436508
20
184.7746033
11
43.8873016
21
184.7746033
0
LINE
8
SIDE_outsideCutPath
10
43.8873016
20
184.7746033
11
110.5833137
21
184.7746033
0
LINE
8
SIDE_outsideCutPath
10
110.5833137
20
184.7746033
11
121.4706153
21
184.7746033
0
LINE
8
SIDE_outsideCutPath
10
121.4706153
20
184.7746033
11
121.4706153
21
187.7746033
0
LINE
8
SIDE_outsideCutPath
10
121.4706153
20
187.7746033
11
127.4706153
21
187.7746033
0
LINE
8
SIDE_outsideCutPath
10
127.4706153
20
187.7746033
11
127.4706153
21
184.7746033
0
LINE
8
SIDE_outsideCutPath
10
127.4706153
20
184.7746033
11
133.4706153
21
184.7746033
0
LINE
8
SIDE_outsideCutPath
10
133.4706153
20
184.7746033
11
133.4706153
21
187.7746033
0
LINE
8
SIDE_outsideCutPath
10
133.4706153
20
187.7746033
11
139.4706153
21
187.7746033
0
LINE
8
SIDE_outsideCutPath
10
139.4706153
20
187.7746033
11
139.4706153
21
184.7746033
0
LINE
8
SIDE_outsideCutPath
10
139.4706153
20
184.7746033
11
145.4706153
21
184.7746033
0
LINE
8
SIDE_outsideCutPath
10
145.4706153
20
184.7746033
11
145.4706153
21
187.7746033
0
LINE
8
SIDE_outsideCutPath
10
145.4706153
20
187.7746033
11
151.4706153
21
187.7746033
0
LINE
8
SIDE_outsideCutPath
10
151.4706153
20
187.7746033
11
151.4706153
21
184.7746033
0
LINE
8
SIDE_outsideCutPath
10
151.4706153
20
184.7746033
11
157.4706153
21
184.7746033
0
LINE
8
SIDE_outsideCutPath
10
157.4706153
20
184.7746033
11
157.4706153
21
187.7746033
0
LINE
8
SIDE_outsideCutPath
10
157.4706153
20
187.7746033
11
163.4706153
21
187.7746033
0
LINE
8
SIDE_outsideCutPath
10
163.4706153
20
187.7746033
11
163.4706153
21
184.7746033
0
LINE
8
SIDE_outsideCutPath
10
163.4706153
20
184.7746033
11
169.4706153
21
184.7746033
0
LINE
8
SIDE_outsideCutPath
10
169.4706153
20
184.7746033
11
169.4706153
21
187.7746033
0
LINE
8
SIDE_outsideCutPath
10
169.4706153
20
187.7746033
11
175.4706153
21
187.7746033
0
LINE
8
SIDE_outsideCutPath
10
175.4706153
20
187.7746033
11
175.4706153
21
184.7746033
0
LINE
8
SIDE_outsideCutPath
10
175.4706153
20
184.7746033
11
181.4706153
21
184.7746033
0
LINE
8
SIDE_outsideCutPath
10
181.4706153
20
184.7746033
11
181.4706153
21
187.7746033
0
LINE
8
SIDE_outsideCutPath
10
181.4706153
20
187.7746033
11
187.4706153
21
187.7746033
0
LINE
8
SIDE_outsideCutPath
10
187.4706153
20
187.7746033
11
187.4706153
21
184.7746033
0
LINE
8
SIDE_outsideCutPath
10
187.4706153
20
184.7746033
11
193.4706153
21
184.7746033
0
LINE
8
SIDE_outsideCutPath
10
193.4706153
20
184.7746033
11
198.3579169
21
184.7746033
0
LINE
8
SIDE_outsideCutPath
10
198.3579169
20
184.7746033
11
265.053929
21
184.7746033
0
LINE
8
SIDE_outsideCutPath
10
265.053929
20
184.7746033
11
275.9412306
21
184.7746033
0
LINE
8
SIDE_outsideCutPath
10
275.9412306
20
184.7746033
11
275.9412306
21
187.7746033
0
LINE
8
SIDE_outsideCutPath
10
275.9412306
20
187.7746033
11
281.9412306
21
187.7746033
0
LINE
8
SIDE_outsideCutPath
10
281.9412306
20
187.7746033
11
281.9412306
21
184.7746033
0
LINE
8
SIDE_outsideCutPath
10
281.9412306
20
184.7746033
11
287.9412306
21
184.7746033
0
LINE
8
SIDE_outsideCutPath
10
287.9412306
20
184.7746033
11
287.9412306
21
187.7746033
0
LINE
8
SIDE_outsideCutPath
10
287.9412306
20
187.7746033
11
293.9412306
21
187.7746033
0
LINE
8
SIDE_outsideCutPath
10
293.9412306
20
187.7746033
11
293.9412306
21
184.7746033
0
LINE
8
SIDE_outsideCutPath
10
293.9412306
20
184.7746033
11
299.9412306
21
184.7746033
0
LINE
8
SIDE_outsideCutPath
10
299.9412306
20
184.7746033
11
299.9412306
21
187.7746033
0
LINE
8
SIDE_outsideCutPath
10
299.9412306
20
187.7746033
11
305.9412306
21
187.7746033
0
LINE
8
SIDE_outsideCutPath
10
305.9412306
20
187.7746033
11
305.9412306
21
184.7746033
0
LINE
8
SIDE_outsideCutPath
10
305.9412306
20
184.7746033
11
311.9412306
21
184.7746033
0
LINE
8
SIDE_outsideCutPath
10
311.9412306
20
184.7746033
11
311.9412306
21
187.7746033
0
LINE
8
SIDE_outsideCutPath
10
311.9412306
20
187.7746033
11
317.9412306
21
187.7746033
0
LINE
8
SIDE_outsideCutPath
10
317.9412306
20
187.7746033
11
317.9412306
21
184.7746033
0
LINE
8
SIDE_outsideCutPath
10
317.9412306
20
184.7746033
11
323.9412306
21
184.7746033
0
LINE
8
SIDE_outsideCutPath
10
323.9412306
20
184.7746033
11
323.9412306
21
187.7746033
0
LINE
8
SIDE_outsideCutPath
10
323.9412306
20
187.7746033
11
329.9412306
21
187.7746033
0
LINE
8
SIDE_outsideCutPath
10
329.9412306
20
187.7746033
11
329.9412306
21
184.7746033
0
LINE
8
SIDE_outsideCutPath
10
329.9412306
20
184.7746033
11
335.9412306
21
184.7746033
0
LINE
8
SIDE_outsideCutPath
10
335.9412306
20
184.7746033
11
335.9412306
21
187.7746033
0
LINE
8
SIDE_outsideCutPath
10
335.9412306
20
187.7746033
11
341.9412306
21
187.7746033
0
LINE
8
SIDE_outsideCutPath
10
341.9412306
20
187.7746033
11
341.9412306
21
184.7746033
0
LINE
8
SIDE_outsideCutPath
10
341.9412306
20
184.7746033
11
347.9412306
21
184.7746033
0
LINE
8
SIDE_outsideCutPath
10
347.9412306
20
184.7746033
11
352.8285322
21
184.7746033
0
LINE
8
SIDE_outsideCutPath
10
352.8285322
20
184.7746033
11
419.5245442
21
184.7746033
0
LINE
8
SIDE_outsideCutPath
10
419.5245442
20
184.7746033
11
430.4118459
21
184.7746033
0
LINE
8
SIDE_outsideCutPath
10
430.4118459
20
184.7746033
11
430.4118459
21
187.7746033
0
LINE
8
SIDE_outsideCutPath
10
430.4118459
20
187.7746033
11
436.4118459
21
187.7746033
0
LINE
8
SIDE_outsideCutPath
10
436.4118459
20
187.7746033
11
436.4118459
21
184.7746033
0
LINE
8
SIDE_outsideCutPath
10
436.4118459
20
184.7746033
11
442.4118459
21
184.7746033
0
LINE
8
SIDE_outsideCutPath
10
442.4118459
20
184.7746033
11
442.4118459
21
187.7746033
0
LINE
8
SIDE_outsideCutPath
10
442.4118459
20
187.7746033
11
448.4118459
21
187.7746033
0
LINE
8
SIDE_outsideCutPath
10
448.4118459
20
187.7746033
11
448.4118459
21
184.7746033
0
LINE
8
SIDE_outsideCutPath
10
448.4118459
20
184.7746033
11
454.4118459
21
184.7746033
0
LINE
8
SIDE_outsideCutPath
10
454.4118459
20
184.7746033
11
454.4118459
21
187.7746033
0
LINE
8
SIDE_outsideCutPath
10
454.4118459
20
187.7746033
11
460.4118459
21
187.7746033
0
LINE
8
SIDE_outsideCutPath
10
460.4118459
20
187.7746033
11
460.4118459
21
184.7746033
0
LINE
8
SIDE_outsideCutPath
10
460.4118459
20
184.7746033
11
466.4118459
21
184.7746033
0
LINE
8
SIDE_outsideCutPath
10
466.4118459
20
184.7746033
11
466.4118459
21
187.7746033
0
LINE
8
SIDE_outsideCutPath
10
466.4118459
20
187.7746033
11
472.4118459
21
187.7746033
0
LINE
8
SIDE_outsideCutPath
10
472.4118459
20
187.7746033
11
472.4118459
21
184.7746033
0
LINE
8
SIDE_outsideCutPath
10
472.4118459
20
184.7746033
11
478.4118459
21
184.7746033
0
LINE
8
SIDE_outsideCutPath
10
478.4118459
20
184.7746033
11
478.4118459
21
187.7746033
0
LINE
8
SIDE_outsideCutPath
10
478.4118459
20
187.7746033
11
484.4118459
21
187.7746033
0
LINE
8
SIDE_outsideCutPath
10
484.4118459
20
187.7746033
11
484.4118459
21
184.7746033
0
LINE
8
SIDE_outsideCutPath
10
484.4118459
20
184.7746033
11
490.4118459
21
184.7746033
0
LINE
8
SIDE_outsideCutPath
10
490.4118459
20
184.7746033
11
490.4118459
21
187.7746033
0
LINE
8
SIDE_outsideCutPath
10
490.4118459
20
187.7746033
11
496.4118459
21
187.7746033
0
LINE
8
SIDE_outsideCutPath
10
496.4118459
20
187.7746033
11
496.4118459
21
184.7746033
0
LINE
8
SIDE_outsideCutPath
10
496.4118459
20
184.7746033
11
502.4118459
21
184.7746033
0
LINE
8
SIDE_outsideCutPath
10
502.4118459
20
184.7746033
11
507.2991475
21
184.7746033
0
LINE
8
SIDE_outsideCutPath
10
507.2991475
20
184.7746033
11
573.9951595
21
184.7746033
0
LINE
8
SIDE_outsideCutPath
10
573.9951595
20
184.7746033
11
580.9388104
21
184.7746033
0
LINE
8
SIDE_outsideCutPath
10
580.9388104
20
184.7746033
11
580.9388104
21
187.7746033
0
LINE
8
SIDE_outsideCutPath
10
580.9388104
20
187.7746033
11
586.9388104
21
187.7746033
0
LINE
8
SIDE_outsideCutPath
10
586.9388104
20
187.7746033
11
586.9388104
21
184.7746033
0
LINE
8
SIDE_outsideCutPath
10
586.9388104
20
184.7746033
11
592.9388104
21
184.7746033
0
LINE
8
SIDE_outsideCutPath
10
592.9388104
20
184.7746033
11
592.9388104
21
187.7746033
0
LINE
8
SIDE_outsideCutPath
10
592.9388104
20
187.7746033
11
598.9388104
21
187.7746033
0
LINE
8
SIDE_outsideCutPath
10
598.9388104
20
187.7746033
11
598.9388104
21
184.7746033
0
LINE
8
SIDE_outsideCutPath
10
598.9388104
20
184.7746033
11
604.9388104
21
184.7746033
0
LINE
8
SIDE_outsideCutPath
10
604.9388104
20
184.7746033
11
604.9388104
21
187.7746033
0
LINE
8
SIDE_outsideCutPath
10
604.9388104
20
187.7746033
11
610.9388104
21
187.7746033
0
LINE
8
SIDE_outsideCutPath
10
610.9388104
20
187.7746033
11
610.9388104
21
184.7746033
0
LINE
8
SIDE_outsideCutPath
10
610.9388104
20
184.7746033
11
616.9388104
21
184.7746033
0
LINE
8
SIDE_outsideCutPath
10
616.9388104
20
184.7746033
11
617.8824612
21
184.7746033
0
LINE
8
SIDE_outsideCutPath
10
617.8824612
20
184.7746033
11
617.8824612
21
270.7746033
0
LINE
8
SIDE_outsideCutPath
10
617.8824612
20
270.7746033
11
610.9388104
21
270.7746033
0
LINE
8
SIDE_outsideCutPath
10
610.9388104
20
270.7746033
11
610.9388104
21
267.7746033
0
LINE
8
SIDE_outsideCutPath
10
610.9388104
20
267.7746033
11
604.9388104
21
267.7746033
0
LINE
8
SIDE_outsideCutPath
10
604.9388104
20
267.7746033
11
604.9388104
21
270.7746033
0
LINE
8
SIDE_outsideCutPath
10
604.9388104
20
270.7746033
11
598.9388104
21
270.7746033
0
LINE
8
SIDE_outsideCutPath
10
598.9388104
20
270.7746033
11
598.9388104
21
267.7746033
0
LINE
8
SIDE_outsideCutPath
10
598.9388104
20
267.7746033
11
592.9388104
21
267.7746033
0
LINE
8
SIDE_outsideCutPath
10
592.9388104
20
267.7746033
11
592.9388104
21
270.7746033
0
LINE
8
SIDE_outsideCutPath
10
592.9388104
20
270.7746033
11
586.9388104
21
270.7746033
0
LINE
8
SIDE_outsideCutPath
10
586.9388104
20
270.7746033
11
586.9388104
21
267.7746033
0
LINE
8
SIDE_outsideCutPath
10
586.9388104
20
267.7746033
11
580.9388104
21
267.7746033
0
LINE
8
SIDE_outsideCutPath
10
580.9388104
20
267.7746033
11
580.9388104
21
270.7746033
0
LINE
8
SIDE_outsideCutPath
10
580.9388104
20
270.7746033
11
574.9388104
21
270.7746033
0
LINE
8
SIDE_outsideCutPath
10
574.9388104
20
270.7746033
11
573.9951595
21
270.7746033
0
LINE
8
SIDE_outsideCutPath
10
573.9951595
20
270.7746033
11
507.2991475
21
270.7746033
0
LINE
8
SIDE_outsideCutPath
10
507.2991475
20
270.7746033
11
496.4118459
21
270.7746033
0
LINE
8
SIDE_outsideCutPath
10
496.4118459
20
270.7746033
11
496.4118459
21
267.7746033
0
LINE
8
SIDE_outsideCutPath
10
496.4118459
20
267.7746033
11
490.4118459
21
267.7746033
0
LINE
8
SIDE_outsideCutPath
10
490.4118459
20
267.7746033
11
490.4118459
21
270.7746033
0
LINE
8
SIDE_outsideCutPath
10
490.4118459
20
270.7746033
11
484.4118459
21
270.7746033
0
LINE
8
SIDE_outsideCutPath
10
484.4118459
20
270.7746033
11
484.4118459
21
267.7746033
0
LINE
8
SIDE_outsideCutPath
10
484.4118459
20
267.7746033
11
478.4118459
21
267.7746033
0
LINE
8
SIDE_outsideCutPath
10
478.4118459
20
267.7746033
11
478.4118459
21
270.7746033
0
LINE
8
SIDE_outsideCutPath
10
478.4118459
20
270.7746033
11
472.4118459
21
270.7746033
0
LINE
8
SIDE_outsideCutPath
10
472.4118459
20
270.7746033
11
472.4118459
21
267.7746033
0
LINE
8
SIDE_outsideCutPath
10
472.4118459
20
267.7746033
11
466.4118459
21
267.7746033
0
LINE
8
SIDE_outsideCutPath
10
466.4118459
20
267.7746033
11
466.4118459
21
270.7746033
0
LINE
8
SIDE_outsideCutPath
10
466.4118459
20
270.7746033
11
460.4118459
21
270.7746033
0
LINE
8
SIDE_outsideCutPath
10
460.4118459
20
270.7746033
11
460.4118459
21
267.7746033
0
LINE
8
SIDE_outsideCutPath
10
460.4118459
20
267.7746033
11
454.4118459
21
267.7746033
0
LINE
8
SIDE_outsideCutPath
10
454.4118459
20
267.7746033
11
454.4118459
21
270.7746033
0
LINE
8
SIDE_outsideCutPath
10
454.4118459
20
270.7746033
11
448.4118459
21
270.7746033
0
LINE
8
SIDE_outsideCutPath
10
448.4118459
20
270.7746033
11
448.4118459
21
267.7746033
0
LINE
8
SIDE_outsideCutPath
10
448.4118459
20
267.7746033
11
442.4118459
21
267.7746033
0
LINE
8
SIDE_outsideCutPath
10
442.4118459
20
267.7746033
11
442.4118459
21
270.7746033
0
LINE
8
SIDE_outsideCutPath
10
442.4118459
20
270.7746033
11
436.4118459
21
270.7746033
0
LINE
8
SIDE_outsideCutPath
10
436.4118459
20
270.7746033
11
436.4118459
21
267.7746033
0
LINE
8
SIDE_outsideCutPath
10
436.4118459
20
267.7746033
11
430.4118459
21
267.7746033
0
LINE
8
SIDE_outsideCutPath
10
430.4118459
20
267.7746033
11
430.4118459
21
270.7746033
0
LINE
8
SIDE_outsideCutPath
10
430.4118459
20
270.7746033
11
424.4118459
21
270.7746033
0
LINE
8
SIDE_outsideCutPath
10
424.4118459
20
270.7746033
11
419.5245442
21
270.7746033
0
LINE
8
SIDE_outsideCutPath
10
419.5245442
20
270.7746033
11
352.8285322
21
270.7746033
0
LINE
8
SIDE_outsideCutPath
10
352.8285322
20
270.7746033
11
341.9412306
21
270.7746033
0
LINE
8
SIDE_outsideCutPath
10
341.9412306
20
270.7746033
11
341.9412306
21
267.7746033
0
LINE
8
SIDE_outsideCutPath
10
341.9412306
20
267.7746033
11
335.9412306
21
267.7746033
0
LINE
8
SIDE_outsideCutPath
10
335.9412306
20
267.7746033
11
335.9412306
21
270.7746033
0
LINE
8
SIDE_outsideCutPath
10
335.9412306
20
270.7746033
11
329.9412306
21
270.7746033
0
LINE
8
SIDE_outsideCutPath
10
329.9412306
20
270.7746033
11
329.9412306
21
267.7746033
0
LINE
8
SIDE_outsideCutPath
10
329.9412306
20
267.7746033
11
323.9412306
21
267.7746033
0
LINE
8
SIDE_outsideCutPath
10
323.9412306
20
267.7746033
11
323.9412306
21
270.7746033
0
LINE
8
SIDE_outsideCutPath
10
323.9412306
20
270.7746033
11
317.9412306
21
270.7746033
0
LINE
8
SIDE_outsideCutPath
10
317.9412306
20
270.7746033
11
317.9412306
21
267.7746033
0
LINE
8
SIDE_outsideCutPath
10
317.9412306
20
267.7746033
11
311.9412306
21
267.7746033
0
LINE
8
SIDE_outsideCutPath
10
311.9412306
20
267.7746033
11
311.9412306
21
270.7746033
0
LINE
8
SIDE_outsideCutPath
10
311.9412306
20
270.7746033
11
305.9412306
21
270.7746033
0
LINE
8
SIDE_outsideCutPath
10
305.9412306
20
270.7746033
11
305.9412306
21
267.7746033
0
LINE
8
SIDE_outsideCutPath
10
305.9412306
20
267.7746033
11
299.9412306
21
267.7746033
0
LINE
8
SIDE_outsideCutPath
10
299.9412306
20
267.7746033
11
299.9412306
21
270.7746033
0
LINE
8
SIDE_outsideCutPath
10
299.9412306
20
270.7746033
11
293.9412306
21
270.7746033
0
LINE
8
SIDE_outsideCutPath
10
293.9412306
20
270.7746033
11
293.9412306
21
267.7746033
0
LINE
8
SIDE_outsideCutPath
10
293.9412306
20
267.7746033
11
287.9412306
21
267.7746033
0
LINE
8
SIDE_outsideCutPath
10
287.9412306
20
267.7746033
11
287.9412306
21
270.7746033
0
LINE
8
SIDE_outsideCutPath
10
287.9412306
20
270.7746033
11
281.9412306
21
270.7746033
0
LINE
8
SIDE_outsideCutPath
10
281.9412306
20
270.7746033
11
281.9412306
21
267.7746033
0
LINE
8
SIDE_outsideCutPath
10
281.9412306
20
267.7746033
11
275.9412306
21
267.7746033
0
LINE
8
SIDE_outsideCutPath
10
275.9412306
20
267.7746033
11
275.9412306
21
270.7746033
0
LINE
8
SIDE_outsideCutPath
10
275.9412306
20
270.7746033
11
269.9412306
21
270.7746033
0
LINE
8
SIDE_outsideCutPath
10
269.9412306
20
270.7746033
11
265.053929
21
270.7746033
0
LINE
8
SIDE_outsideCutPath
10
265.053929
20
270.7746033
11
198.3579169
21
270.7746033
0
LINE
8
SIDE_outsideCutPath
10
198.3579169
20
270.7746033
11
187.4706153
21
270.7746033
0
LINE
8
SIDE_outsideCutPath
10
187.4706153
20
270.7746033
11
187.4706153
21
267.7746033
0
LINE
8
SIDE_outsideCutPath
10
187.4706153
20
267.7746033
11
181.4706153
21
267.7746033
0
LINE
8
SIDE_outsideCutPath
10
181.4706153
20
267.7746033
11
181.4706153
21
270.7746033
0
LINE
8
SIDE_outsideCutPath
10
181.4706153
20
270.7746033
11
175.4706153
21
270.7746033
0
LINE
8
SIDE_outsideCutPath
10
175.4706153
20
270.7746033
11
175.4706153
21
267.7746033
0
LINE
8
SIDE_outsideCutPath
10
175.4706153
20
267.7746033
11
169.4706153
21
267.7746033
0
LINE
8
SIDE_outsideCutPath
10
169.4706153
20
267.7746033
11
169.4706153
21
270.7746033
0
LINE
8
SIDE_outsideCutPath
10
169.4706153
20
270.7746033
11
163.4706153
21
270.7746033
0
LINE
8
SIDE_outsideCutPath
10
163.4706153
20
270.7746033
11
163.4706153
21
267.7746033
0
LINE
8
SIDE_outsideCutPath
10
163.4706153
20
267.7746033
11
157.4706153
21
267.7746033
0
LINE
8
SIDE_outsideCutPath
10
157.4706153
20
267.7746033
11
157.4706153
21
270.7746033
0
LINE
8
SIDE_outsideCutPath
10
157.4706153
20
270.7746033
11
151.4706153
21
270.7746033
0
LINE
8
SIDE_outsideCutPath
10
151.4706153
20
270.7746033
11
151.4706153
21
267.7746033
0
LINE
8
SIDE_outsideCutPath
10
151.4706153
20
267.7746033
11
145.4706153
21
267.7746033
0
LINE
8
SIDE_outsideCutPath
10
145.4706153
20
267.7746033
11
145.4706153
21
270.7746033
0
LINE
8
SIDE_outsideCutPath
10
145.4706153
20
270.7746033
11
139.4706153
21
270.7746033
0
LINE
8
SIDE_outsideCutPath
10
139.4706153
20
270.7746033
11
139.4706153
21
267.7746033
0
LINE
8
SIDE_outsideCutPath
10
139.4706153
20
267.7746033
11
133.4706153
21
267.7746033
0
LINE
8
SIDE_outsideCutPath
10
133.4706153
20
267.7746033
11
133.4706153
21
270.7746033
0
LINE
8
SIDE_outsideCutPath
10
133.4706153
20
270.7746033
11
127.4706153
21
270.7746033
0
LINE
8
SIDE_outsideCutPath
10
127.4706153
20
270.7746033
11
127.4706153
21
267.7746033
0
LINE
8
SIDE_outsideCutPath
10
127.4706153
20
267.7746033
11
121.4706153
21
267.7746033
0
LINE
8
SIDE_outsideCutPath
10
121.4706153
20
267.7746033
11
121.4706153
21
270.7746033
0
LINE
8
SIDE_outsideCutPath
10
121.4706153
20
270.7746033
11
115.4706153
21
270.7746033
0
LINE
8
SIDE_outsideCutPath
10
115.4706153
20
270.7746033
11
110.5833137
21
270.7746033
0
LINE
8
SIDE_outsideCutPath
10
110.5833137
20
270.7746033
11
43.8873016
21
270.7746033
0
LINE
8
SIDE_outsideCutPath
10
43.8873016
20
270.7746033
11
36.9436508
21
270.7746033
0
LINE
8
SIDE_outsideCutPath
10
36.9436508
20
270.7746033
11
36.9436508
21
267.7746033
0
LINE
8
SIDE_outsideCutPath
10
36.9436508
20
267.7746033
11
30.9436508
21
267.7746033
0
LINE
8
SIDE_outsideCutPath
10
30.9436508
20
267.7746033
11
30.9436508
21
270.7746033
0
LINE
8
SIDE_outsideCutPath
10
30.9436508
20
270.7746033
11
24.9436508
21
270.7746033
0
LINE
8
SIDE_outsideCutPath
10
24.9436508
20
270.7746033
11
24.9436508
21
267.7746033
0
LINE
8
SIDE_outsideCutPath
10
24.9436508
20
267.7746033
11
18.9436508
21
267.7746033
0
LINE
8
SIDE_outsideCutPath
10
18.9436508
20
267.7746033
11
18.9436508
21
270.7746033
0
LINE
8
SIDE_outsideCutPath
10
18.9436508
20
270.7746033
11
12.9436508
21
270.7746033
0
LINE
8
SIDE_outsideCutPath
10
12.9436508
20
270.7746033
11
12.9436508
21
267.7746033
0
LINE
8
SIDE_outsideCutPath
10
12.9436508
20
267.7746033
11
6.9436508
21
267.7746033
0
LINE
8
SIDE_outsideCutPath
10
6.9436508
20
267.7746033
11
6.9436508
21
270.7746033
0
LINE
8
SIDE_outsideCutPath
10
6.9436508
20
270.7746033
11
0.9436508
21
270.7746033
0
LINE
8
SIDE_outsideCutPath
10
0.9436508
20
270.7746033
11
0
21
270.7746033
0
ENDSEC
0
EOF