<?xml version="1.0" encoding="UTF-8" standalone="no"?>
<svg
   xmlns:dc="http://purl.org/dc/elements/1.1/"
   xmlns:cc="http://creativecommons.org/ns#"
   xmlns:rdf="http://www.w3.org/1999/02/22-rdf-syntax-ns#"
   xmlns:svg="http://www.w3.org/2000/svg"
   xmlns="http://www.w3.org/2000/svg"
   xmlns:sodipodi="http://sodipodi.sourceforge.net/DTD/sodipodi-0.dtd"
   xmlns:inkscape="http://www.inkscape.org/namespaces/inkscape"
   inkscape:version="1.0beta2 (unknown)"
   sodipodi:docname="tmp.svg"
   viewBox="0 0 2473.3333 2189.3333"
   height="2189.3333"
   width="2473.3333"
   id="svg94"
   version="1.1">
  <metadata
     id="metadata100">
    <rdf:RDF>
      <cc:Work
         rdf:about="">
        <dc:format>image/svg+xml</dc:format>
        <dc:type
           rdf:resource="http://purl.org/dc/dcmitype/StillImage" />
        <dc:title></dc:title>
      </cc:Work>
    </rdf:RDF>
  </metadata>
  <defs
     id="defs98" />
  <sodipodi:namedview
     inkscape:current-layer="g102"
     inkscape:window-maximized="1"
     inkscape:window-y="0"
     inkscape:window-x="0"
     inkscape:cy="731.86513"
     inkscape:cx="3499.2891"
     inkscape:zoom="0.090992338"
     showgrid="false"
     id="namedview96"
     inkscape:window-height="717"
     inkscape:window-width="1366"
     inkscape:pageshadow="2"
     inkscape:pageopacity="0"
     guidetolerance="10"
     gridtolerance="10"
     objecttolerance="10"
     borderopacity="1"
     inkscape:document-rotation="0"
     bordercolor="#666666"
     pagecolor="#ffffff" />
  <g
     id="g102"
     inkscape:label="Image"
     inkscape:groupmode="layer">
    <path
       inkscape:connector-curvature="0"
       id="path106"
       d="m 1613.6517,2218.8565 c -14.9871,-7.5232 -19.1468,-25.7066 -8.9603,-39.1679 6.0411,-7.9832 19.6224,-11.7657 29.1875,-8.1291 3.4428,1.309 4.2479,0.8111 13.4201,-8.3 l 9.7576,-9.6924 v -46.2633 -46.2633 l -4.5833,-1.5127 c -10.352,-3.4164 -16.6667,-12.6367 -16.7207,-24.4139 -0.051,-11.0068 7.9294,-22.2212 17.272,-24.2732 l 4.032,-0.8856 v -21.5476 -21.5476 l -24.163,-24.1894 -24.163,-24.1895 -7.5037,3.9755 c -6.5936,3.4934 -8.4584,3.8917 -15.3764,3.2841 -14.8119,-1.3009 -25.4312,-12.85 -25.3539,-27.5736 0.061,-11.7617 7.6124,-22.9135 17.56,-25.9351 2.7914,-0.8478 3,-1.6674 3,-11.7848 v -10.8736 l -30.6666,-30.7682 -30.6667,-30.7684 v -16.2683 c 0,-15.2757 -0.1596,-16.2683 -2.6167,-16.2683 -1.4392,0 -6.0846,-1.2976 -10.3234,-2.8834 -9.3623,-3.503 -20.9878,-14.5735 -25.6752,-24.4499 -4.6478,-9.7925 -5.3179,-26.6528 -1.4654,-36.87 5.6827,-15.0713 17.3314,-25.8865 32.414,-30.0948 l 7.6667,-2.1391 v -56.7874 -56.7874 l -55.3333,-55.3213 -55.3334,-55.3213 v 55.7505 c 0,54.5417 0.056,55.7327 2.583,54.9307 4.359,-1.3835 20.7826,-0.9668 26.9085,0.6826 15.8753,4.2748 29.196,15.4099 36.2511,30.3031 3.985,8.4125 4.2574,9.9263 4.2574,23.6544 0,13.7428 -0.2694,15.2356 -4.2781,23.6984 -16.4857,34.8036 -61.1515,43.2405 -89.0805,16.8264 -21.8636,-20.6777 -23.3968,-55.024 -3.4568,-77.4391 l 5.5577,-6.2474 -0.055,-87.0859 -0.055,-87.0857 -28.3055,-28.3334 c -15.5668,-15.5833 -28.7594,-28.3333 -29.3158,-28.3333 -0.5564,0 -1.0117,76.0355 -1.0117,168.9676 v 168.9676 l 61.3334,61.4268 61.3333,61.4269 v 13.8931 13.8932 l 24,24.1276 24,24.1276 v 34.6059 34.6057 l 48,47.9395 48,47.9394 v 23.195 23.195 l 3.6667,-0.8641 c 13.3269,-3.1405 21.0713,-2.0509 29.3456,4.1288 16.3118,12.1825 12.4722,39.7025 -6.6543,47.6941 -11.4793,4.7963 -27.2404,0.051 -34.0609,-10.2557 -4.9504,-7.4805 -5.715,-19.6744 -1.724,-27.4973 2.6118,-5.1195 2.6806,-5.8462 0.8078,-8.5202 -1.6408,-2.3425 -2.0476,-7.3037 -2.0476,-24.9741 v -22.0509 l -23.3326,-23.3048 -23.3333,-23.3048 v 31.2629 31.2628 l -4.8634,4.9805 -4.8634,4.9806 2.8634,6.6561 c 8.3946,19.5139 -4.2485,39.0952 -25.2426,39.0952 -11.253,0 -19.1564,-4.8429 -24.2274,-14.8456 -4.56,-8.9945 -4.6757,-15.8645 -0.4214,-25.0019 5.6585,-12.1532 18.4716,-17.9121 31.9892,-14.378 6.5917,1.7235 6.8598,1.6794 10.4322,-1.7189 l 3.6667,-3.4879 v -34.7677 -34.7679 l -19.3333,-19.2988 -19.3334,-19.2988 v -34.0352 -34.035 l -18.6666,-18.631 -18.6667,-18.6309 v 59.6817 59.6819 l 3.6667,1.3357 c 12.5265,4.5631 21.1466,12.8235 25.4866,24.4232 9.396,25.1132 -7.2902,51.8694 -34.3465,55.0738 -17.2903,2.0477 -36.1165,-10.0659 -42.2149,-27.1627 -2.5036,-7.0189 -2.3595,-19.9839 0.3093,-27.8319 2.7049,-7.9542 14.7495,-20.6409 22.1299,-23.3097 l 4.9689,-1.7968 -0.025,-76.7321 -0.025,-76.7322 -29.308,-29.5042 -29.3081,-29.5043 v 48.4864 48.4864 l 5,2.0885 c 19.3921,8.1006 23.6113,33.1022 7.9124,46.8859 -10.5144,9.2317 -25.9771,9.2317 -36.4915,0 -15.6862,-13.7727 -11.4798,-38.7852 7.8827,-46.8735 l 4.9703,-2.0761 0.363,-53.6612 0.3631,-53.6612 -15.98,-16.3333 c -8.789,-8.9834 -16.439,-16.3334 -17,-16.3334 -0.561,0 -1.02,5.892 -1.02,13.0934 v 13.0933 l -5,5.8413 c -4.6093,5.385 -5.002,6.4915 -5.0261,14.1623 -0.022,7.0496 -0.6361,9.1988 -4.0178,14.0653 -11.9746,17.2323 -37.1815,14.6883 -45.2258,-4.5642 -5.7488,-13.7588 2.1489,-30.3662 16.3111,-34.2994 5.777,-1.6044 10.5442,-1.6444 14.2919,-0.12 1.9131,0.7783 3.5145,0.3094 5.6667,-1.6594 l 3,-2.7443 v -115.1009 c 10e-5,-63.3052 -0.4574,-115.1007 -1.0165,-115.1007 -0.5592,0 -9.8592,8.8572 -20.6667,19.6828 l -19.65,19.6828 v 26.328 26.328 l 5.3638,2.1461 c 7.1638,2.8664 14.0448,11.1426 15.9836,19.2243 5.1579,21.5007 -15.4845,40.1568 -36.2324,32.7461 -12.256,-4.3776 -19.1724,-15.226 -18.2079,-28.559 0.799,-11.0463 5.5273,-18.0379 15.1901,-22.4618 l 7.2361,-3.3128 v -28.31 -28.31 l 26,-25.783 26,-25.7832 v -10.4758 c 0,-5.7617 -0.4536,-10.4758 -1.0082,-10.4758 -0.5545,0 -19.1545,18.1536 -41.3333,40.3413 l -40.3251,40.3415 0.061,48.6585 0.061,48.6587 6.9374,3.3333 c 18.0067,8.6519 20.8278,31.162 5.6578,45.1452 -6.4371,5.9336 -11.8401,7.5345 -22.1004,6.5487 -8.916,-0.8568 -16.2679,-6.1363 -20.5718,-14.7731 -7.6714,-15.3947 -1.0639,-32.7633 14.6221,-38.4355 l 4.6671,-1.6877 v -50.6885 -50.6887 l 46.6667,-46.7349 46.6667,-46.735 v -106.9752 c -10e-5,-58.8364 -0.4452,-106.9753 -0.9892,-106.9753 -0.544,0 -14.344,13.345 -30.6666,29.6556 l -29.6776,29.6555 v 34.0315 34.0315 l 6.4425,2.2882 c 33.5196,11.9051 42.3639,55.758 16.1842,80.2461 -7.8108,7.306 -14.4502,10.7313 -24.7153,12.7509 -9.4355,1.8563 -20.3378,0.3191 -29.6261,-4.1773 l -5.889,-2.8508 -23.8648,23.8372 -23.8648,23.8372 v 46.8949 46.895 l 5.9907,2.9 c 13.64,6.603 17.5204,23.5836 8.3367,36.481 -8.5563,12.0162 -30.586,11.2376 -38.8162,-1.3718 -8.6083,-13.1886 -4.1738,-29.46 9.7385,-35.7336 l 5.417,-2.4427 v -42.1257 -42.1258 l -21.2606,21.3282 -21.2606,21.3282 1.8755,7.091 c 5.5003,20.7962 -9.8044,40.627 -31.3543,40.627 -29.0979,0 -43.9617,-35.1598 -23.5098,-55.6117 8.7786,-8.7785 20.3393,-11.8972 32.0501,-8.6457 l 5.207,1.4457 50.3074,-50.2944 50.3075,-50.2944 -2.7148,-6.1372 c -1.4931,-3.3756 -3.001,-10.1379 -3.3509,-15.0275 -1.4565,-20.3569 9.8548,-39.2377 28.3285,-47.2857 l 8.5954,-3.7446 0.3898,-38.3885 0.3898,-38.3884 40.9999,-41.0141 41,-41.014 v -19.5702 -19.5701 l -3.6682,-0.5555 c -2.0167,-0.3055 4.1333,-0.5554 13.6666,-0.5554 9.5334,0 15.6834,0.2499 13.6667,0.5554 l -3.6667,0.5555 v 75.5699 75.5699 l 39.6667,39.6797 39.6667,39.6797 0.4169,15.6618 0.4169,15.6618 65.5831,65.6708 65.5831,65.6708 0.4028,62.3292 0.4028,62.3292 8.1492,4.6667 c 13.279,7.6044 23.7118,23.9565 23.7118,37.1656 0,4.9079 1.6282,6.6612 52.3334,56.3556 l 52.3333,51.29 6,-2.3331 c 18.6375,-7.2472 43.314,1.1635 54.4837,18.5702 15.4047,24.006 6.4003,55.9201 -19.1504,67.8752 -7.0056,3.278 -9.5744,3.7432 -20.6666,3.7432 -11.8766,0 -13.188,-0.2827 -21.0244,-4.5322 -14.5648,-7.8978 -23.4648,-21.0005 -25.1379,-37.0078 -0.9015,-8.6242 1.6417,-20.2456 6.1163,-27.9498 l 2.414,-4.1565 -46.2926,-46.2783 -46.2924,-46.2782 -8.5582,8.5514 c -8.3798,8.3731 -19.4276,14.318 -26.6082,14.318 -2.4293,0 -2.6166,0.9758 -2.6166,13.63 v 13.6302 l 30.6666,30.7682 30.6667,30.7684 0.013,12.6016 0.013,12.6016 7.7678,3.6135 c 10.3366,4.8083 15.1659,11.5981 15.949,22.4235 0.3112,4.3017 -0.044,9.5694 -0.7884,11.7058 -1.3236,3.797 -0.771,4.4672 24.5114,29.7247 l 25.8658,25.8403 v 22.8562 22.8564 l 7.3012,3.5722 c 16.6258,8.1342 20.2662,27.0236 7.8554,40.7608 -2.5662,2.8405 -6.7264,5.8445 -9.2446,6.6757 l -4.5787,1.5111 v 48.2612 48.2612 l -10.5824,10.5204 -10.5824,10.5202 2.7729,5.4354 c 3.3364,6.54 3.6626,17.1525 0.7014,22.826 -4.5004,8.6226 -14.9787,15.3021 -24.0048,15.3021 -2.4463,0 -7.4156,-1.4897 -11.043,-3.3105 z m 18.5829,-6.5387 c 11.7964,-4.9288 14.3435,-20.362 4.86,-29.4477 -3.0984,-2.9684 -5.5612,-3.9434 -11.1276,-4.405 -6.547,-0.5429 -7.5577,-0.2336 -12.0109,3.6763 -15.9607,14.0137 -1.2327,38.3287 18.2785,30.1764 z m -11.738,-97.9984 c 4.3523,-2.654 8.56,-9.9384 8.56,-14.8191 0,-4.852 -4.1941,-12.1518 -8.56,-14.8982 -6.0021,-3.7759 -15.609,-2.7162 -20.8441,2.2994 -7.9227,7.5904 -7.5793,18.451 0.8163,25.8224 5.6046,4.921 13.5381,5.553 20.0278,1.5955 z m -107.4925,-22.2869 c 14.5956,-5.84 14.1685,-26.2908 -0.6672,-31.9567 -5.6017,-2.1392 -6.2921,-2.1392 -11.8939,0 -14.5773,5.5672 -15.4384,24.4932 -1.4298,31.4276 6.4921,3.2136 7.2134,3.2408 13.9909,0.5291 z m 158.1592,-41.7131 c 4.3205,-2.6347 8.56,-9.9299 8.56,-14.73 0,-8.1095 -7.1428,-16.6405 -15.1977,-18.1516 -6.2751,-1.1772 -14.8187,2.6956 -18.2715,8.2823 -2.2683,3.6702 -2.7191,6.0189 -2.1972,11.4494 0.5503,5.7267 1.4361,7.5466 5.4752,11.2482 4.0479,3.7096 5.8349,4.4152 11.1716,4.411 3.8613,0 7.9636,-0.9872 10.4596,-2.5093 z m -218.4279,-42.8119 c 9.562,-5.83 12.6902,-19.1084 6.6227,-28.1118 -3.9289,-5.8302 -13.4336,-9.9384 -20.0995,-8.6879 -10.2856,1.9296 -18.3965,14.816 -15.5572,24.7164 3.5399,12.3429 18.4387,18.5435 29.034,12.0833 z m 146.2424,-96.1169 c 2.5744,-2.2603 5.247,-6.1603 5.939,-8.6667 2.8948,-10.484 -5.5726,-21.8948 -16.2399,-21.8853 -3.1441,0 -7.4296,1.1084 -9.7269,2.5093 -4.3523,2.654 -8.56,9.9384 -8.56,14.8191 0,4.8807 4.2077,12.1651 8.56,14.8191 6.4897,3.9574 14.4232,3.3254 20.0278,-1.5955 z m 113.8199,-31.7581 c 10.0837,-5.1444 16.2589,-15.3227 16.2589,-26.7988 0,-27.3067 -33.3656,-40.3659 -52.2626,-20.4555 -7.7678,8.1844 -10.0356,22.5999 -5.2226,33.1965 3.0039,6.6132 12.0168,14.5703 18.6031,16.4235 6.656,1.8729 16.2895,0.8655 22.6232,-2.3657 z m -336.9492,-0.8635 c 8.8245,-4.5635 11.7771,-16.3956 6.1681,-24.7187 -12.152,-18.0324 -39.5515,-1.7426 -29.562,17.5752 4.224,8.1683 15.0308,11.4682 23.3939,7.1435 z m -76.9233,-123.7945 c 5.9669,-2.4931 8.7981,-6.9006 8.7981,-13.6964 0,-13.3795 -15.9845,-19.0624 -25.4068,-9.0328 -4.5768,4.8717 -4.5421,13.6605 0.073,18.6268 5.5813,6.0053 9.5967,7.0016 16.5352,4.1024 z m 234.2658,-20.9916 c 11.8223,-3.9583 19.0944,-14.0903 19.0076,-26.4826 -0.059,-8.3742 -2.3372,-13.5068 -8.6949,-19.5849 -5.5584,-5.314 -10.1632,-7.0817 -18.4471,-7.0817 -8.1425,0 -11.762,1.3684 -17.92,6.7753 -6.6717,5.8579 -9.1613,11.2277 -9.222,19.8913 -0.132,18.8414 17.8283,32.3244 35.2764,26.4826 z m -299.9775,-71.6591 c 4.4689,-4.4688 5.1765,-5.9911 5.1765,-11.1361 0,-8.0987 -4.3586,-14.4186 -11.7101,-16.9796 -11.6575,-4.061 -22.9566,4.2962 -22.9566,16.9796 0,5.145 0.7076,6.6673 5.1765,11.1361 4.6947,4.6948 5.8261,5.1765 12.1569,5.1765 6.3307,0 7.4621,-0.4817 12.1568,-5.1765 z m 206.1189,-30.624 c 16.3794,-8.3561 23.8073,-27.4164 17.3068,-44.4095 -5.1595,-13.4876 -22.4188,-23.8924 -36.4435,-21.9701 -30.7323,4.2124 -41.8973,42.4497 -18.1404,62.126 9.9116,8.2092 25.9387,10.038 37.2771,4.2536 z m -168.2418,-14.8872 c 4.5454,-2.8091 8.6327,-9.7013 8.6327,-14.5565 0,-9.2248 -8.3606,-17.4083 -17.7943,-17.4175 -10.0172,-0.013 -16.8723,7.1292 -16.8723,17.5708 0,13.3372 14.6471,21.4407 26.0339,14.4032 z m -106.1657,-7.2441 c 5.2361,-2.7078 8.1318,-7.7174 8.1318,-14.0682 0,-12.7388 -12.7675,-19.9936 -23.5816,-13.3997 -5.2694,3.2129 -7.4488,7.1399 -7.4488,13.4212 0,11.8576 12.4103,19.4704 22.8986,14.0467 z m -73.0447,-53.9114 c 4.131,-4.1309 5.1765,-6.1638 5.1765,-10.0661 0,-10.2755 -6.7307,-16.7573 -17.4005,-16.7573 -4.5145,0 -6.3673,0.8344 -10.0662,4.5333 -3.8515,3.8515 -4.5333,5.4628 -4.5333,10.7136 0,10.3104 6.2039,16.5932 16.4902,16.6997 4.2488,0.044 6.0682,-0.8581 10.3333,-5.1232 z m 153.5688,-140.2432 c 10.6277,-2.9512 19.5785,-15.4268 19.6002,-27.3185 0.012,-6.5664 -6.2969,-17.6508 -12.3119,-21.6313 -6.9517,-4.6005 -19.7164,-5.7014 -26.4722,-2.2832 -11.3342,5.7348 -16.413,14.4177 -15.6296,26.7208 0.6995,10.9858 5.055,17.6816 14.5934,22.4348 7.5882,3.7813 12.33,4.2685 20.2201,2.0774 z m 587.668,419.9628 c -20.3656,-3.9906 -35.2666,-20.5586 -36.9913,-41.1292 -1.8257,-21.7785 11.1984,-40.9488 32.3504,-47.6164 6.996,-2.2052 7.2472,-2.4496 7.2472,-7.0494 0,-4.4674 -2.4367,-7.2006 -39.0084,-43.7566 l -39.0083,-38.9914 h -29.3338 -29.334 l -36.9911,-37.0088 -36.9911,-37.0088 v -42.7296 -42.7298 l -4.6666,-4.523 -4.6667,-4.5231 v 50.6027 50.6026 l 42.3411,42.3256 42.3409,42.3255 h 25.1856 25.1856 l 13.8068,13.5865 c 7.5936,7.4726 13.8067,14.326 13.8067,15.2299 0,0.9039 2.1152,2.3416 4.7005,3.1948 10.8761,3.5895 18.1567,14.0364 18.1567,26.0535 0,8.7133 -2.8707,15.0992 -9.4658,21.0574 -11.1552,10.0782 -27.9334,9.0974 -38.3874,-2.2438 -13.0266,-14.1323 -8.8006,-35.2575 8.8384,-44.1808 l 4.509,-2.281 -9.809,-9.8749 -9.809,-9.8749 h -25.3452 -25.345 l -45.6883,-45.6883 -45.6883,-45.6883 v -58.0622 -58.0623 l -4,-3.8323 -4,-3.8322 v 70.5896 70.5897 l 48.4062,48.3925 c 47.2013,47.1879 48.4977,48.3576 52.0868,46.9931 5.4701,-2.0797 16.3873,-1.6943 21.24,0.75 11.2817,5.6824 18.2089,18.3565 16.2784,29.7833 -2.663,15.7623 -18.8132,26.38 -34.4278,22.6342 -17.1024,-4.1028 -25.9076,-23.4155 -18.0636,-39.6192 l 2.8535,-5.8943 -49.5201,-49.5332 -49.52,-49.5333 v -77.9258 -77.9257 l -15.3334,-15.5245 -15.3333,-15.5246 v -42.5481 -42.548 l -67.3333,-67.3235 -67.3334,-67.3234 v 46.6482 46.6482 l 23.4176,23.4448 23.4178,23.4448 7.5593,-2.5521 c 9.0184,-3.0445 15.6788,-2.3589 23.9032,2.4605 6.2073,3.6375 11.6563,11.7503 13.0635,19.45 2.0218,11.0626 -5.0836,23.9828 -16.2951,29.6297 -9.0315,4.5491 -25.0544,1.5317 -32.0027,-6.0263 -6.847,-7.4481 -9.2458,-22.4033 -4.9317,-30.746 l 2.1319,-4.1226 -25.4652,-25.4904 -25.4652,-25.4904 v -53.9222 -53.9222 l -16,-16.1842 -16,-16.1842 V 1154.47 c 0,-10.7501 -0.015,-10.7947 -3.6667,-11.348 -2.0167,-0.3055 3.8333,-0.5636 13,-0.5736 9.1667,-0.011 15.3167,0.2418 13.6667,0.5596 -2.602,0.5012 -3,1.4065 -3,6.8252 v 6.2473 l 49.0066,48.9933 49.0067,48.9932 h 42.0012 42.0011 l 42.6589,42.7498 c 23.4623,23.5123 43.7303,43.3449 45.0399,44.0724 1.7616,0.9786 4.6948,0.397 11.2757,-2.2358 7.7476,-3.0995 10.278,-3.4822 19.6191,-2.9667 17.8114,0.9829 30.942,9.7178 38.8654,25.855 3.356,6.8349 3.8524,9.3349 3.8111,19.192 -0.081,19.2464 -8.1792,32.3421 -25.2036,40.756 -9.4669,4.6788 -10.2407,4.8334 -21.6169,4.3218 -14.0418,-0.6316 -22.0674,-3.9514 -30.905,-12.784 -9.0414,-9.0364 -12.8358,-18.5826 -12.8358,-32.2938 0,-9.5843 0.5705,-12.5615 3.6972,-19.2909 l 3.6972,-7.9576 -42.4355,-42.3757 -42.4356,-42.3758 h -30.2905 c -16.6598,0 -30.2906,0.4454 -30.2906,0.9898 0,0.5444 14.25,15.2482 31.6667,32.6751 l 31.6667,31.6854 0.3842,42.3249 0.3843,42.3248 36.2733,36.3333 36.2734,36.3333 h 49.2798 49.28 l 32.1836,32.0856 32.1836,32.0858 8.5456,-2.8932 c 15.7412,-5.3296 34.4259,-1.6591 46.7823,9.19 l 4.7819,4.1985 h 53.1812 53.181 l 13.9524,14 13.9524,14 h 12.2126 c 11.5861,0 12.2516,-0.1553 12.9725,-3.0277 0.9161,-3.65 7.9931,-11.1208 12.9748,-13.6971 9.968,-5.1545 22.1255,-3.3948 30.8337,4.4632 6.7759,6.1141 9.054,11.3827 9.054,20.9385 0,16.0628 -11.4421,27.3682 -27.6238,27.2938 -12.4915,-0.057 -22.9308,-7.8619 -26.0336,-19.463 l -1.5623,-5.841 h -13.4129 -13.4128 l -14.6212,-14.6667 -14.6212,-14.6667 h -47.1654 c -44.3769,0 -47.1117,0.138 -46.2561,2.3334 5.8599,15.0361 5.6361,27.9789 -0.7192,41.5977 l -4.0121,8.5977 21.038,21.069 21.0381,21.0689 h 17.9607 17.9608 l 36.9232,36.8369 36.9232,36.8368 6.3692,-2.1701 c 25.7934,-8.7888 51.6308,9.1771 51.4772,35.7943 -0.1607,27.8572 -28.201,45.6954 -53.9355,34.3118 -16.8484,-7.4529 -26.1181,-28.2518 -20.3927,-45.7564 l 2.2788,-6.9669 -33.757,-33.7765 -33.7571,-33.7766 h -16.2563 c -8.941,0 -17.9454,-0.629 -20.0098,-1.3978 -2.0644,-0.7688 -14.3139,-11.9231 -27.221,-24.7872 l -23.4674,-23.3892 -6.5326,2.296 c -3.8909,1.3674 -10.6761,2.3242 -16.7792,2.3661 -9.2088,0.063 -11.2609,-0.4313 -20.2613,-4.8795 -11.3499,-5.6094 -17.98,-12.3101 -23.2937,-23.5417 -2.9254,-6.1831 -3.4744,-9.2156 -3.5006,-19.3333 -0.028,-10.7206 0.415,-12.9414 4.152,-20.8286 l 4.183,-8.8284 -28.1944,-28.1716 -28.1944,-28.1714 h -49.3586 c -42.5154,0 -49.7694,-0.2878 -52.322,-2.0756 l -2.9633,-2.0756 v 35.0852 35.0852 l 34.3428,34.3237 34.3428,34.3237 h 30.0193 30.0194 l 40.9712,41.0498 40.9712,41.0497 v 7.4587 7.4586 l 6.3333,1.5795 c 23.8855,5.9569 39.0913,31.2215 33.0715,54.9484 -6.0284,23.7603 -29.283,38.916 -52.6778,34.3317 z m 17.609,-16.4454 c 13.0942,-4.6728 20.2016,-14.7531 20.2813,-28.7643 0.067,-11.5945 -4.4761,-19.6377 -14.3447,-25.4019 -6.2496,-3.6502 -7.879,-4.0125 -16.3929,-3.6438 -7.6553,0.3314 -10.5064,1.1061 -14.9887,4.0722 -16.6494,11.0182 -18.3714,34.322 -3.5033,47.4095 8.9444,7.8732 18.6648,9.9981 28.9483,6.3283 z m 207.5053,-22.1687 c 13.2965,-7.4731 15.6073,-25.18 4.6364,-35.5268 -8.9212,-8.4137 -21.0228,-8.5249 -30.4139,-0.2793 -11.463,10.0646 -8.8642,29.5472 4.8423,36.3014 6.146,3.0287 15.0396,2.8183 20.9352,-0.4953 z m -341.2059,-50.3355 c 1.8504,-1.3618 4.5042,-4.556 5.897,-7.098 6.5018,-11.866 -5.6144,-27.0124 -19.4024,-24.2548 -8.7991,1.7599 -15.5915,13.1767 -13.07,21.9687 3.3038,11.5196 17.0689,16.3804 26.5754,9.3841 z m 66.6667,0.023 c 8.9347,-6.5172 9.8449,-18.3795 2.0116,-26.2128 -15.3212,-15.3212 -39.0607,5.6656 -25.668,22.6917 5.73,7.2846 16.3331,8.8627 23.6564,3.5211 z m 63.376,-122.7688 c 11.0516,-5.0207 17.6149,-16.546 16.2044,-28.4555 -1.0165,-8.584 -5.1969,-15.137 -12.6856,-19.8862 -7.5712,-4.8015 -18.7416,-5.3152 -26.7489,-1.23 -19.9195,10.1621 -19.745,38.6932 0.2978,48.6809 8.0314,4.0021 15.4492,4.2903 22.9323,0.8908 z m 219.1901,-6.1119 c 7.8103,-4.0388 11.1484,-14.2914 7.1764,-22.0416 -5.9658,-11.6406 -19.587,-14.023 -27.957,-4.8897 -5.5402,6.0452 -6.6644,10.6011 -4.2944,17.4011 3.4262,9.8304 15.5696,14.4457 25.075,9.5302 z m -354.9134,-210.8689 c 23.869,-13.8363 17.7962,-49.5073 -9.3892,-55.151 -17.9928,-3.7362 -35.5656,10.7334 -35.5656,29.2842 0,23.1732 24.8922,37.4956 44.9548,25.8658 z m -215.8128,-21.2428 c 8.144,-6.8528 8.6844,-17.9028 1.2505,-25.5725 -10.6329,-10.9704 -29.0592,-3.9205 -29.0592,11.118 0,11.5501 6.0556,17.6794 17.5644,17.7781 4.7727,0.041 7.1703,-0.7371 10.2443,-3.3236 z m 786.858,217.1914 c -8.2983,-3.2306 -17.3334,-13.5318 -17.3334,-19.7624 0,-1.808 -5.3657,-2.053 -44.9421,-2.053 h -44.942 l -34.8061,-34.7154 -34.806,-34.7153 -7.8654,2.0487 c -9.8009,2.5528 -13.0938,2.5616 -21.5266,0.057 -21.8295,-6.4827 -33.4092,-31.7611 -23.9024,-52.1787 1.7508,-3.7601 3.9122,-7.287 4.8032,-7.8377 1.0744,-0.664 -7.0732,-9.7017 -24.1963,-26.8392 l -25.8163,-25.8381 -0.4002,-21.6575 -0.4003,-21.6575 -39.5915,-39.6666 -39.5913,-39.6667 h -10.3416 -10.3417 v 17.0135 17.0135 l 24.6666,24.6397 24.6667,24.6396 v 58.3469 58.3468 l 6.3333,0.029 c 15.8447,0.073 27,11.6394 27,27.994 0,12.2294 -7.9221,22.7167 -19.7596,26.158 -20.6545,6.0044 -39.8938,-12.0605 -34.9212,-32.7893 0.911,-3.7971 3.4499,-8.7016 6.119,-11.8197 l 4.5618,-5.3295 v -58.4683 -58.4682 l -24.6666,-24.639 -24.6667,-24.6397 v -19.0135 -19.0135 h -6.6667 -6.6666 v 19.6867 19.6867 l 16.6666,16.6266 16.6667,16.6267 v 10.4213 10.4215 l 4.3333,1.8108 c 11.1712,4.6682 17.4968,14.0533 17.56,26.053 0.076,14.4876 -10.4001,26.086 -24.9153,27.5842 -6.4612,0.6668 -8.612,0.2556 -14.9952,-2.8675 -9.7557,-4.7731 -14.2879,-11.4041 -15.0565,-22.0293 -0.3078,-4.2559 0.1213,-9.8016 0.9537,-12.3236 1.9831,-6.0088 8.7163,-12.8184 15.7867,-15.9659 l 5.6666,-2.5227 v -8.2909 -8.2909 l -16.6666,-16.6267 -16.6667,-16.6266 v -22.0312 -22.0311 l -29.6776,-29.6555 c -16.3225,-16.3106 -30.1225,-29.6556 -30.6667,-29.6556 -0.544,0 -0.989,4.0299 -0.989,8.9554 v 8.9553 l 24.6666,24.7912 24.6667,24.7911 v 22.9202 22.9201 h 3.3864 c 4.2731,0 12.3827,4.1116 16.2167,8.2218 9.2804,9.9492 9.2804,28.2806 0,38.2201 -10.064,10.7785 -27.69,11.6244 -38.5114,1.8479 -6.1453,-5.5519 -8.6953,-10.0079 -9.8462,-17.2058 -1.6646,-10.4093 4.7542,-22.924 14.2857,-27.853 l 3.8021,-1.9661 v -21.5878 -21.5878 l -24.6666,-24.7911 -24.6667,-24.7911 v -17.261 -17.261 l -44.3407,-44.3259 -44.3406,-44.3258 h -26.6468 -26.6468 l -25.6792,-25.6539 -25.6792,-25.6538 v 34.6686 34.6685 l 22.3476,22.3186 22.3476,22.3186 h 12.8782 12.8783 l -1.3711,-4.9657 c -1.9373,-7.0161 0.598,-17.2281 5.863,-23.6153 15.6536,-18.9905 47.0293,-9.2077 48.7958,15.2142 0.7139,9.8689 -1.264,15.7802 -7.2988,21.8151 -9.3108,9.3108 -21.9486,11.2048 -33.7437,5.0569 -4.7839,-2.4935 -7.6707,-2.8385 -23.7508,-2.8385 h -18.3051 l -25.6538,-25.6792 -25.6539,-25.6791 v -41.4744 c 0,-39.9395 -0.1027,-41.6043 -2.7635,-44.9875 -1.5198,-1.9322 -3.3198,-3.5131 -4,-3.5131 -0.7414,0 -1.2365,23.9759 -1.2365,59.8873 v 59.8874 l 43,42.1736 c 35.0907,34.4163 43.4905,42.0154 45.6667,41.3131 14.4474,-4.6624 22.7942,-3.4803 31.6126,4.477 6.7759,6.1141 9.054,11.3827 9.054,20.9385 0,15.9255 -11.4018,27.3231 -27.3333,27.3231 -15.9623,0 -27.7449,-11.8827 -27.7645,-28 0,-4.1887 0.907,-9.0486 2.127,-11.3334 l 2.1359,-4 -44.5825,-44.712 -44.5826,-44.7122 v -67.9737 -67.9739 l -17.1713,-17.1332 c -11.2779,-11.2527 -17.4197,-16.5089 -17.8948,-15.3141 -0.3979,1.0005 -0.7011,-5.68083 -0.674,-14.84749 0.027,-9.16667 0.3239,-15.61667 0.6592,-14.33334 0.3355,1.28334 1.6004,2.33334 2.8112,2.33334 1.2108,0 29.2256,26.99999 62.2551,59.99999 l 60.0536,60 h 26.6513 26.6515 l 79.9916,80 79.9916,80 h 103.5194 103.5195 l 0.8892,-5.9293 c 1.3293,-8.8645 8.1133,-21.2864 14.8765,-27.2395 19.2795,-16.9706 46.8047,-16.9818 65.1988,-0.027 8.0759,7.444 12.3914,15.0003 14.5158,25.4164 l 1.7226,8.4458 59.8587,0.3472 59.8587,0.3473 7.3653,7.2885 c 6.9077,6.8356 7.6753,7.2381 12.3553,6.4787 15.3959,-2.4984 31.6887,11.6265 31.6544,27.4424 -0.043,19.4649 -20.6352,33.4329 -38.3686,26.0251 -17.7147,-7.3998 -23.3307,-30.7583 -10.6424,-44.2643 l 2.8541,-3.0381 -5.1884,-5.3134 -5.1884,-5.3134 h -57.5508 -57.5507 l -2.9101,7.9813 c -5.5105,15.1132 -16.8015,25.8184 -31.8428,30.191 -10.2076,2.9675 -24.1528,1.9648 -33.7441,-2.4262 -8.0252,-3.6742 -19.939,-14.8316 -22.5388,-21.1082 l -1.645,-3.9713 -71.5049,0.031 -71.5049,0.031 6.2557,5.9691 6.2557,5.9691 h 56.436 56.4359 l 13.2833,13.3333 13.2834,13.3335 h 34.7225 34.7225 l 17.8891,-18 17.8891,-18 h 10.6198 10.6199 l 8.7935,9.3242 8.7936,9.3242 5.3333,-1.9323 c 10.5523,-3.8232 21.3159,-1.7209 29.1221,5.688 14.8819,14.1245 10.3182,38.2284 -8.746,46.1919 -23.0686,9.6363 -46.3282,-15.7077 -35.0901,-38.235 l 2.1069,-4.2234 -7.6548,-7.7355 c -7.0928,-7.1677 -8.0994,-7.7355 -13.7149,-7.7355 -6.0051,0 -6.2236,0.1638 -24.0232,18 l -17.9629,18 h -38.7103 -38.7101 l -13.2834,-13.3333 -13.2833,-13.3333 h -49.3436 -49.3436 l 22.6011,22.6305 22.6012,22.6305 65.042,0.3695 65.0421,0.3695 34.5924,34.5741 34.5924,34.5741 5.7497,-1.9074 c 7.9146,-2.6258 21.6018,-2.3251 30.3512,0.6665 10.3742,3.5472 22.683,15.89 26.6858,26.7593 8.1854,22.2276 -2.3016,47.7439 -23.7567,57.8027 -6.2991,2.9532 -9.3888,3.5307 -18.892,3.5307 -10.1496,0 -12.3109,-0.4675 -20.2632,-4.3823 -25.56,-12.5832 -33.4727,-44.41 -16.8021,-67.5819 l 3.8112,-5.2974 -31.6819,-31.7026 -31.6819,-31.7025 h -58.3437 -58.3437 v 15.6801 15.6803 l 24.4888,24.4619 c 23.5141,23.4884 24.6152,24.3932 27.6666,22.7334 5.1896,-2.8225 19.5158,-2.1568 27.1779,1.2631 22.8993,10.2205 30.1684,37.0327 15.706,57.9316 l -3.5181,5.0839 32.5625,32.5828 32.5625,32.5829 h 42.8656 42.8658 l 0.915,-3.6667 c 3.7563,-15.0521 24.7699,-23.0528 39.3148,-14.9686 13.26,7.3701 18.084,22.3938 11.681,36.3798 -4.7318,10.3356 -11.5384,14.7391 -23.4744,15.1862 -4.8478,0.1816 -9.714,-0.02 -10.814,-0.4486 z m 18.8193,-12.1501 c 11.2268,-6.5273 10.1193,-24.4192 -1.8635,-30.1053 -5.8709,-2.786 -9.3332,-2.8055 -15.0666,-0.084 -9.823,4.6612 -13.0366,17.913 -6.2887,25.9324 6.5561,7.7916 14.6027,9.267 23.2188,4.2576 z m -333.0004,-68.8371 c 6.5661,-2.7434 10.1811,-8.0958 10.1811,-15.0742 0,-11.4442 -6.3375,-17.754 -17.8315,-17.754 -14.4364,0 -22.2172,18.6014 -11.8185,28.2546 7.27,6.749 11.746,7.8004 19.4689,4.5736 z m 128.3129,-24.7021 c 7.384,-3.3535 11.5426,-9.5113 12.2591,-18.1533 1.4759,-17.796 -16.0711,-29.8423 -31.6463,-21.7256 -7.0953,3.6976 -10.7278,8.3326 -11.9714,15.2752 -1.872,10.4513 2.0616,18.8097 11.3521,24.1222 6.3377,3.6242 12.7469,3.7784 20.0065,0.4815 z m 155.0042,-13.8372 c 3.0293,-2.0048 7.163,-6.1461 9.186,-9.2029 3.2676,-4.9378 3.678,-6.7834 3.678,-16.5404 0,-10.0631 -0.3368,-11.4618 -4.0228,-16.7063 -5.2103,-7.4132 -15.9258,-13.1776 -24.4628,-13.1596 -13.3304,0.028 -26.1071,9.9999 -29.6444,23.1364 -3.5987,13.3645 4.3941,28.8255 18.13,35.0697 2.4498,1.1136 7.4157,1.6691 12.814,1.4332 6.9601,-0.3042 9.9725,-1.1518 14.322,-4.0301 z m -332.4354,-68.9767 c 4.5775,-2.829 8.6327,-9.7086 8.6327,-14.6456 0,-9.0129 -8.8536,-17.3333 -18.4443,-17.3333 -10.5096,0 -18.9533,11.4931 -16.0825,21.8903 0.692,2.5064 3.3645,6.4064 5.9389,8.6666 5.6974,5.0024 13.287,5.5432 19.9552,1.422 z m -53.2092,-39.4766 c 6.3176,-2.9979 9.8419,-8.4078 9.8419,-15.1077 0,-9.8598 -5.3052,-16.3131 -14.8051,-18.009 -8.9696,-1.6012 -19.8616,7.8757 -19.8616,17.2811 0,5.5944 4.8808,12.7442 10.6932,15.6645 5.7543,2.8911 8.3338,2.9223 14.1316,0.1711 z m 405.9987,-39.0121 c 4.6684,-4.6683 5.1765,-5.8483 5.1765,-12.0196 0,-5.8763 -0.6186,-7.5182 -4.379,-11.6215 -7.9354,-8.6589 -21.609,-7.3995 -27.675,2.549 -7.2294,11.8568 1.4727,26.2513 15.8775,26.2636 4.9903,0 6.5644,-0.7358 11,-5.1715 z m 63.9684,-20.8883 c 15.5879,-8.0608 9.4716,-32.6019 -8.1252,-32.6019 -14.0988,0 -22.6751,17.4471 -13.7755,28.0238 5.739,6.8202 14.1606,8.5807 21.9007,4.5781 z m -637.2755,-22.6966 c 5.1084,-2.6416 9.7048,-12.3452 8.483,-17.9085 -1.095,-4.9849 -5.2183,-10.1911 -10.0508,-12.6901 -13.6896,-7.0791 -29.4922,8.0357 -23.47,22.4486 3.7689,9.0204 15.7888,12.9329 25.0378,8.15 z m 452.7447,-10.2909 c 14.2676,-9.8875 16.0565,-29.3773 3.818,-41.5973 -8.9823,-8.9686 -19.4617,-10.8075 -30.9932,-5.4385 -16.4931,7.6791 -20.8041,28.9346 -8.6088,42.4454 6.6079,7.3205 11.0608,9.0921 21.686,8.6275 7.0603,-0.3087 9.8853,-1.1177 14.098,-4.0371 z m -436.0104,-101.4232 c 3.7996,-4.1461 4.416,-5.7739 4.416,-11.6618 0,-6.1713 -0.5081,-7.3513 -5.1765,-12.0196 -4.4688,-4.4689 -5.9911,-5.1765 -11.1362,-5.1765 -8.0986,0 -14.4185,4.3587 -16.9796,11.7102 -1.7229,4.9459 -1.7229,6.3004 0,11.2464 2.8187,8.091 9.2082,12.1421 17.8763,11.3339 5.4641,-0.5094 7.3349,-1.4334 11,-5.4326 z m -812.63048,398.88 c -6.2439,-2.1151 -16.2461,-11.3693 -19.1155,-17.6863 -3.6651,-8.0685 -3.3163,-19.9997 0.8231,-28.1589 3.0169,-5.9464 3.3283,-8.1085 3.3334,-23.1396 l 0.01,-16.5803 22.9501,-23.0864 22.9502,-23.0864 h -9.2974 -9.2974 l -23.942,23.9698 -23.942,23.9697 -22.6698,0.3636 -22.6698,0.3636 -1.0813,5.4737 c -2.1519,10.8934 -15.3301,21.7624 -26.4684,21.8303 -27.7623,0.1693 -39.0211,-35.1412 -16.2927,-51.0981 12.4791,-8.7612 31.257,-4.886 39.2877,8.1078 l 2.6902,4.353 h 21.5122 21.5122 l 24.1276,-24 24.1277,-24 h 16.592 16.592 l 45.6594,-45.6739 45.65968,-45.6737 v -25.915 -25.915 l 25.6217,-25.7446 25.6217,-25.7445 h -33.9693 -33.9693 l -22.91188,23 -22.9118,23 -0.299,16.411 -0.299,16.4109 4.5584,2.7139 c 24.08648,14.3401 12.9097,51.8167 -15.4415,51.7771 -4.7812,-0.013 -16.4251,-5.2449 -19.5933,-8.8145 -3.4598,-3.8981 -7.6789,-14.0296 -7.7033,-18.4984 -0.037,-6.7949 2.586,-13.8572 7.0246,-18.9124 4.4848,-5.1079 12.9109,-9.6759 17.9387,-9.725 2.959,-0.029 3,-0.2709 3,-17.7398 v -17.7106 l 26.4093,-26.2894 26.40928,-26.2895 h 41.3583 41.3582 l 3.1316,-3.3333 3.1315,-3.3333 h -60.0065 -60.00658 l -72.6196,73.6666 -72.6196,73.6667 2.0029,4 c 3.3447,6.6797 2.6539,17.7135 -1.5593,24.9027 -11.1844,19.0848 -38.95,18.1097 -49.0681,-1.7234 -5.002,-9.8046 -2.3255,-25.5078 5.5875,-32.7824 7.5574,-6.9475 21.9637,-9.1794 31.1072,-4.8191 l 4.7066,2.2444 74.124,-74.9111 74.124,-74.9111 h 67.55938 67.5593 l 28.9886,-29.0111 28.9887,-29.0111 v -6.2337 c 0,-5.7768 -0.2688,-6.2743 -3.6667,-6.7891 -2.0167,-0.3055 4.1333,-0.5554 13.6667,-0.5554 9.5333,0 15.6833,0.2499 13.6666,0.5554 -3.6555,0.5538 -3.6666,0.5886 -3.6666,11.4498 v 10.8943 l -68.7066,68.7537 -68.7066,68.7537 0.1365,27.1623 0.1366,27.1623 -73.42998,73.4389 -73.43,73.4389 v 5.6622 5.6622 h 6.4276 c 20.1708,0 36.0293,21.058 30.3748,40.3335 -4.5613,15.5491 -14.5601,23.7288 -29.9021,24.4624 -4.8952,0.234 -10.8712,-0.2421 -13.2802,-1.058 z m 17.7268,-16.3243 c 8.252,-3.4478 12.273,-14.1504 8.2807,-22.0402 -2.2728,-4.4916 -9.8546,-9.3734 -14.5577,-9.3734 -8.3335,0 -17.0533,8.1863 -17.0649,16.0208 -0.01,5.2132 4.4076,12.1931 9.4105,14.8762 5.4797,2.9388 7.9179,3.0292 13.9314,0.5166 z m -114.4296,-55.889 c 10.2245,-11.157 2.5785,-28.8675 -12.4564,-28.853 -9.5361,0.013 -17.7943,8.1958 -17.7943,17.6398 0,4.514 4.104,11.3578 8.6667,14.4526 3.0849,2.0923 5.5064,2.5834 10.584,2.1462 5.4971,-0.4734 7.3129,-1.3623 11,-5.3856 z m 17.4282,-104.8507 c 9.1717,-5.592 11.9483,-16.2728 6.4226,-24.7061 -6.8883,-10.513 -23.9369,-9.9328 -29.594,1.0069 -4.8451,9.3692 -1.7149,19.2799 7.5873,24.0232 5.9441,3.0311 10.2276,2.9419 15.5841,-0.324 z m 147.113,-39.4053 c 5.5318,-2.8606 9.1971,-9.4023 9.2032,-16.4254 0,-4.9902 -0.7358,-6.5643 -5.1715,-11 -4.6279,-4.6279 -5.8805,-5.1765 -11.8202,-5.1765 -13.7565,0 -21.7076,13.1797 -15.2337,25.2511 4.4347,8.269 14.8289,11.5878 23.0222,7.3508 z m 29.95188,208.0753 c -7.37998,-2.6291 -11.46358,-5.9988 -14.60498,-12.0521 -3.2794,-6.3194 -3.4531,-16.8826 -0.3754,-22.8342 2.5894,-5.0072 9.2565,-10.8274 13.6727,-11.9358 3.08498,-0.7743 3.23058,-1.2963 3.23058,-11.5799 v -10.7691 l 22.7021,-22.8369 22.702,-22.8368 -2.8485,-6.4396 c -8.348,-18.872 4.636,-39.3928 24.9247,-39.3928 3.8835,0 8.6212,0.7109 10.5282,1.5799 3.3473,1.525 4.204,0.8442 24.7295,-19.6511 l 21.262,-21.2309 v -40.6466 -40.6466 l 57.3333,-57.3894 57.3334,-57.3894 v -15.5577 -15.5577 l -3.6667,-0.5555 c -2.0167,-0.3055 4.1333,-0.5372 13.6667,-0.5149 9.5333,0.022 14.4833,0.2653 10.9999,0.54 l -6.3333,0.4994 v 19.5994 19.5995 l -56.6666,56.6549 -56.6667,56.655 v 39.9923 39.9923 l -23.5992,23.6266 -23.5991,23.6265 1.7369,6.7771 c 4.1215,16.0812 -5.8463,31.8934 -22.2641,35.3184 -2.4157,0.504 -7.433,0.1868 -11.1496,-0.7048 l -6.7573,-1.6211 -21.8505,21.8204 -21.8504,21.8204 v 7.6547 c 0,7.5008 0.1005,7.7062 5,10.2188 12.5854,6.4537 17.9852,19.7625 12.9292,31.8662 -3.0619,7.33 -8.327,12.1074 -15.784,14.3219 -7.9296,2.3548 -8.0665,2.3547 -14.7348,-0.021 z m 17.7316,-10.7208 c 10.4865,-8.8239 7.2205,-24.0484 -6.1596,-28.7128 -9.2996,-3.2419 -20.31578,4.8512 -20.31578,14.9249 0,10.6216 6.3085,17.0099 16.89768,17.1115 4.0616,0.039 6.6483,-0.8587 9.5777,-3.3236 z m 62.043,-108.1489 c 7.2536,-5.2887 9.4016,-15.3088 4.8736,-22.7351 -3.5214,-5.7752 -8.1498,-8.5557 -14.385,-8.6417 -10.5475,-0.1456 -17.6789,6.7844 -17.6687,17.1697 0.014,13.9925 16.008,22.3528 27.1801,14.2071 z m -369.18498,-94.2652 c -8.9034,-2.9394 -13.4486,-5.84 -18.9565,-12.0973 -5.6577,-6.4274 -9.7102,-16.7315 -9.7102,-24.6894 0,-6.544 3.3966,-17.7184 6.5725,-21.6231 l 2.5479,-3.1325 -9.8935,-10.1802 -9.8936,-10.1802 v -22.8198 -22.8198 h -17.0263 -17.0263 l -12.6126,12.6652 -12.6125,12.6652 5.1444,4.2405 c 22.6738,18.6897 3.7778,55.3798 -24.2369,47.0603 -12.6539,-3.7578 -19.4444,-12.7898 -19.5349,-25.9832 -0.057,-8.258 4.9373,-18.6895 10.2803,-21.4738 1.627,-0.8478 13.2126,-11.6589 25.7457,-24.0245 l 22.7876,-22.483 h 29.2388 29.2387 l 12.614,-12.6667 12.614,-12.6667 h -70.6303 -70.6303 l -32.1683,32.1482 -32.1682,32.1482 1.8548,6.1631 c 5.2302,17.3787 -8.1035,34.9209 -26.4852,34.8446 -16.5745,-0.069 -27.7198,-11.3192 -27.7198,-27.981 0,-21.5104 24.3456,-34.7213 42.5103,-23.0678 3.1345,2.0108 3.625,1.5903 36.6763,-31.4419 l 33.4993,-33.48 h 77.9227 77.9228 l 15.5245,-15.3334 15.5246,-15.3333 h 42.5738 42.5738 l 38.3026,-38.3864 38.3026,-38.3863 v -9.6137 -9.6136 h -41.0217 -41.0217 l -15.172,15.2151 c -14.7602,14.8022 -15.1507,15.3456 -14.3911,20.026 1.1836,7.2941 -2.2857,17.1361 -7.7237,21.9107 -14.1023,12.382 -35.8937,5.9185 -40.7413,-12.0842 -1.7462,-6.485 0.035,-15.3984 4.2632,-21.3367 6.2487,-8.7756 21.3376,-11.7393 32.0202,-6.2895 l 5.439,2.7748 16.2935,-16.1081 16.2934,-16.1081 h 42.8811 42.8811 v -10.2453 -10.2454 l 19.9628,-20.08795 19.9626,-20.08798 33.9518,-0.39697 c 30.64908,-0.35835 34.00988,-0.61776 34.54928,-2.66667 0.3286,-1.24833 0.5772,5.23031 0.5524,14.39698 -0.025,9.16666 -0.2951,15.01669 -0.6005,12.99999 l -0.5555,-3.66666 h -29.60078 -29.6009 l -14.3106,14.35506 -14.3106,14.3551 v 25.5985 25.5985 l -4,4.5558 -4,4.5557 v 41.8067 41.8068 l -18.1211,18.1558 -18.1211,18.1559 3.7315,7.1947 c 3.2575,6.2807 3.7387,8.7193 3.7878,19.1947 0.048,10.215 -0.4583,13.0909 -3.4028,19.3334 -4.4112,9.3517 -13.1892,18.1297 -22.5409,22.5409 -9.9705,4.703 -28.0357,4.9655 -37.623,0.5466 -9.4201,-4.3418 -18.7527,-13.7881 -23.1595,-23.4418 -5.277,-11.5599 -5.3549,-26.092 -0.2001,-37.3389 10.5238,-22.9613 37.8198,-33.29 60.7388,-22.9834 l 8.4229,3.7878 15.2438,-15.2005 15.2437,-15.2006 v -31.3446 -31.3447 l -32.0086,31.9896 -32.0087,31.9896 -42.3247,0.373 -42.3246,0.373 -37,36.9514 -37,36.9514 v 11.9755 11.9754 l 8.8499,8.9182 8.8498,8.9183 6.9168,-0.7139 c 10.2895,-1.062 20.326,2.3202 28.3839,9.5649 16.1003,14.4756 17.4447,38.057 3.1008,54.3937 -8.5718,9.7628 -26.4912,15.0278 -38.1012,11.1947 z m 20.7711,-18.574 c 10.4595,-7.0487 13.5011,-18.7094 7.613,-29.186 -8.032,-14.291 -28.3918,-14.4594 -37.1384,-0.3071 -3.6433,5.8948 -3.2193,18.0413 0.8196,23.4859 6.6311,8.9388 20.1557,11.7691 28.7058,6.0072 z m -125.3222,-49.344 c 2.6581,-2.0408 5.2178,-6.7695 5.2178,-9.6392 0,-3.4746 -7.3622,-9.9851 -11.2914,-9.9851 -4.8395,0 -10.042,5.5262 -10.042,10.6667 0,7.9796 10.0869,13.5863 16.1156,8.9576 z m -110.7822,-10.1461 c 8.3356,-5.7939 9.8644,-17.4732 3.3072,-25.266 -6.6166,-7.8635 -16.6724,-8.7123 -24.5623,-2.0734 -7.8459,6.6019 -8.112,17.7386 -0.6033,25.2473 6.3503,6.3503 14.5965,7.1396 21.8584,2.0921 z m 378.9425,-20.9017 c 7.9491,-5.5681 12.9946,-15.1087 12.997,-24.5765 0,-9.282 -3.2786,-16.5777 -10.3034,-22.9113 -9.1554,-8.2543 -20.3662,-9.8728 -31.7306,-4.581 -23.6393,11.0075 -23.5833,43.2124 0.095,54.3922 8.3484,3.9418 21.506,2.8856 28.9425,-2.3234 z m -81.5067,-160.4739 c 5.5456,-5.5456 5.4637,-12.9978 -0.2051,-18.6667 -8.7016,-8.7016 -22.5641,-3.0306 -22.5641,9.2308 0,4.3437 0.8408,6.3792 3.8975,9.4359 3.0566,3.0566 5.0922,3.8974 9.4358,3.8974 4.3437,0 6.3793,-0.8408 9.4359,-3.8974 z m 1588.27878,178.042 c -19.3611,-6.3227 -32.1278,-22.0474 -34.5096,-42.5055 -0.7382,-6.3397 0.9844,-16.3656 4.1188,-23.9724 0.8945,-2.171 -0.6955,-2.3335 -22.8479,-2.3359 H 2304.39 l -48,-47.9888 -48,-47.9888 -44.1167,-0.01 c -66.3243,-0.013 -116.55,1.4202 -116.55,3.3259 0,0.8651 -1.8217,5.2185 -4.0484,9.6744 -4.6139,9.2331 -11.3823,15.9097 -21.5704,21.2776 -6.4188,3.382 -8.2975,3.7125 -21.0479,3.7029 -11.9116,-0.01 -14.9221,-0.4677 -20.1814,-3.0754 -12.4942,-6.195 -21.4219,-16.1017 -25.551,-28.3529 l -1.9866,-5.8945 -7.8072,-0.3859 -7.8071,-0.386 -66.8852,-66.8276 -66.8852,-66.82765 -7.1148,3.10747 c -8.6821,3.79203 -25.1587,4.21477 -34.1295,0.87568 -13.1942,-4.91116 -24.8304,-16.46412 -29.323,-29.11353 l -2.2882,-6.44163 h -38.6365 -38.6365 l -40.0792,-40 -40.0791,-40 h -15.5269 c -11.174,0 -15.7155,0.46725 -16.1995,1.66667 -0.3699,0.91666 -0.7107,-5.83334 -0.7573,-15 -0.048,-9.42592 0.4,-15.90196 1.0312,-14.9065 0.8917,1.40654 15.6401,1.91787 73.404,2.545 l 72.2881,0.78482 38.2952,-38.21166 38.2952,-38.21166 h 15.2624 15.2625 l 66.049,-66 66.0489,-66 61.9689,-0.003 61.9688,-0.003 3.8108,-7.29318 c 11.5379,-22.08176 38.2852,-31.61633 61.1272,-21.78994 l 6.6266,2.85061 28.5962,-28.5963 28.5964,-28.59632 -2.1776,-8.49963 c -5.7062,-22.27411 4.7535,-44.39059 26.3002,-55.60947 6.3977,-3.33117 8.4732,-3.70781 20.4536,-3.71162 16.0889,-0.005 22.4441,2.40484 33.2221,12.59826 29.0201,27.4461 14.018,76.16158 -25.3944,82.46176 -12.3413,1.9728 -25.6235,-1.01648 -35.3777,-7.96212 l -4.062,-2.89238 -27.4543,27.45427 -27.4543,27.45428 2.894,6.40239 c 1.5918,3.52131 3.3959,8.50239 4.0091,11.06905 l 1.1149,4.66667 13.2512,0.37248 13.2514,0.37248 10.6353,-10.70581 10.6355,-10.70582 h 10.3021 10.3023 l 2.561,-5.66666 c 8.7056,-19.26235 32.732,-22.92939 46.6172,-7.115 9.6902,11.03642 9.0638,26.74198 -1.4868,37.27693 -5.3804,5.37149 -13.0528,8.83707 -19.5666,8.83707 -10.281,0 -24.4652,-9.9927 -26.1514,-18.42344 l -0.8486,-4.24456 h -8.7423 -8.7424 l -10.928,10.66667 -10.9281,10.66666 h -15.4963 c -15.1811,0 -15.4963,0.0611 -15.4973,3 0,3.99154 -6.6962,17.94476 -11.1298,23.19654 -5.0076,5.93184 -14.8644,11.86864 -24.1248,14.53065 -25.1573,7.23168 -52.3724,-8.84789 -59.3408,-35.06052 l -1.5064,-5.66667 h -56.9546 -56.9546 l -55.3213,55.33334 -55.3213,55.33333 h 55.3889 55.3889 l -0.556,-12.71471 c -0.471,-10.76914 -0.096,-13.98248 2.4527,-21 14.23,-39.18402 61.2643,-50.58662 91.3388,-22.14338 28.5208,26.97372 20.7696,73.97309 -14.9936,90.91327 -8.4628,4.00864 -9.9556,4.27815 -23.6984,4.27815 -13.2011,0 -15.4461,-0.36512 -22.4661,-3.65371 -4.2898,-2.00953 -10.7132,-6.09321 -14.2744,-9.07482 l -6.475,-5.42112 -87.0589,0.10333 -87.0589,0.10334 -26.3334,26.29229 c -14.4833,14.46077 -26.3333,26.74793 -26.3333,27.3048 0,0.55688 76.0355,1.0125 168.9676,1.0125 h 168.9676 l 59.0328,-58.98267 c 32.468,-32.44048 60.0825,-59.39831 61.3657,-59.9063 1.2831,-0.50797 15.8383,-0.96577 32.3448,-1.0173 l 30.012,-0.0937 27.9024,-27.92617 c 27.0484,-27.07145 27.854,-28.03236 26.3214,-31.39607 -2.184,-4.79362 -1.9814,-16.0358 0.3712,-20.58514 2.7306,-5.28066 9.2029,-10.39911 15.5568,-12.30275 16.3434,-4.89661 33.5304,11.97112 29.0713,28.53124 -3.334,12.38139 -12.596,19.16745 -24.4796,17.9358 -3.722,-0.38576 -7.9673,-1.07361 -9.434,-1.52855 -2.1477,-0.66618 -7.3348,3.85334 -26.6528,23.22224 l -23.9861,24.04947 h 14.775 14.7751 l 1.5761,-5.2606 c 2.4283,-8.10476 13.5268,-19.38753 22.2996,-22.66989 21.195,-7.93004 43.8475,1.12166 53.0447,21.19608 3.9769,8.68042 3.8593,23.69756 -0.2563,32.73441 -8.7328,19.17456 -30.8362,28.98084 -50.0362,22.19869 -10.2994,-3.6381 -18.2535,-10.36442 -23.0014,-19.45061 l -3.871,-7.40841 -49.345,-0.003 -49.3449,-0.003 -28.3217,28.34471 c -15.577,15.58959 -28.3218,28.78958 -28.3218,29.33333 0,0.54375 21.556,0.98863 47.9023,0.98863 h 47.9023 l 3.3128,-7.23616 c 2.364,-5.16377 4.9417,-8.31409 9.0004,-11 4.9949,-3.30549 6.929,-3.76384 15.8822,-3.76384 8.8276,0 10.9196,0.47971 15.6002,3.57713 6.6256,4.38456 12.3998,15.1474 12.3998,23.11224 0,8.67552 -6.0332,19.17081 -13.7157,23.85969 -12.2908,7.50151 -28.504,4.23334 -36.9688,-7.452 -2.1901,-3.02344 -3.9821,-6.58157 -3.9821,-7.90696 0,-2.27837 -2.9634,-2.43108 -54.3334,-2.79994 l -54.3333,-0.39116 -15.3263,15 -15.3262,15 h 11.0592 c 7.0397,0 12.3676,0.69473 14.6596,1.91154 1.9801,1.05135 18.5958,16.95135 36.9237,35.33334 l 33.3233,33.42178 h 15.9835 15.9835 l 43.4066,-43.33333 c 23.8736,-23.83333 44.1356,-43.33333 45.0266,-43.33333 0.8909,0 1.6198,-1.0822 1.6198,-2.40488 0,-4.92311 7.0898,-16.38084 14.1011,-22.7888 9.5635,-8.74053 19.3585,-12.5004 32.5656,-12.5004 19.1628,0 34.4868,9.54305 42.9592,26.75294 4.0148,8.15528 4.3741,9.92775 4.3741,21.57976 0,11.22439 -0.4352,13.58104 -3.7578,20.34728 -4.7895,9.75362 -13.5142,18.47608 -23.2582,23.25259 -6.7514,3.30957 -9.1393,3.75099 -20.3173,3.75592 -10.9283,0.005 -13.6731,-0.47481 -20,-3.49493 -10.1377,-4.83919 -17.5759,-11.70448 -22.1357,-20.43106 -2.1254,-4.06748 -4.1694,-7.39685 -4.542,-7.39858 -0.3728,-10e-4 -14.1679,13.49682 -30.6556,29.99682 l -29.9778,30 h 78.3794 78.3793 l 6.4144,6 c 5.3727,5.02543 7.274,6 11.7055,6 13.504,0 29.2818,10.90531 35.1668,24.30652 4.2556,9.69118 4.2556,23.02912 0,32.7203 -4.229,9.6302 -14.777,19.11613 -24.7416,22.25043 -34.2314,10.767 -64.9911,-24.50714 -49.183,-56.40117 l 4.069,-8.20941 h -103.8155 c -86.0251,0 -104.5508,-0.31971 -108.106,-1.86567 -2.3599,-1.0261 -19.286,-16.9261 -37.6139,-35.33333 l -33.3233,-33.46767 h -113.9928 -113.9927 l 19.2988,19.33334 19.2988,19.33333 h 25.666 25.6662 l 2.0885,-5 c 6.1275,-14.66848 23.2652,-21.62776 37.2805,-15.13885 17.5048,8.10445 22.0404,29.898 9.184,44.12852 -4.7025,5.2052 -13.7701,9.35065 -20.4214,9.33622 -10.653,-0.0231 -21.328,-7.07753 -25.714,-16.99256 l -2.5067,-5.66666 h -27.6177 -27.6179 l -24.6396,-24.66667 -24.6396,-24.66667 h -11.3417 -11.3418 l 64.6564,64.66667 64.6564,64.66667 h 48.2326 48.2325 l 0.826,-3.76107 c 1.1547,-5.25705 8.0116,-13.15708 14.1284,-16.27763 3.1216,-1.59256 7.8157,-2.62797 11.9139,-2.62797 16.5605,0 28.0102,11.11587 28.0102,27.19338 0,9.1674 -1.3248,12.6469 -7.3572,19.3241 -13.764,15.2351 -37.7002,10.64 -46.1046,-8.8508 l -2.4434,-5.6667 h -51.2694 -51.2694 l -68.7718,-69.66665 -68.7719,-69.66666 -108.0061,-0.43635 c -59.4034,-0.23999 -108.0062,0.0652 -108.0062,0.67829 0,0.61306 12.7551,13.85942 28.3447,29.43635 l 28.3448,28.32171 h 34.7432 34.7433 l 3.1678,-7.66667 c 11.4269,-27.65568 46.4806,-38.12736 71.4517,-21.34495 19.1132,12.8455 26.5748,38.61976 17.2093,59.44576 l -3.7928,8.43415 63.8888,63.89922 c 44.8556,44.8629 64.7467,63.8992 66.7683,63.8992 2.2333,0 3.772,-1.9071 6.8563,-8.4979 5.3873,-11.5125 12.1742,-18.6289 22.7198,-23.8226 16.7622,-8.2553 36.4354,-6.35 51.2526,4.9638 6.7617,5.163 13.6326,14.8124 15.874,22.2932 l 1.517,5.0635 h 37.4283 37.4283 l 42.0754,-42 42.0756,-42.0001 h 59.5151 59.5151 l 1.4618,-4.4294 c 1.6576,-5.02252 8.0242,-11.57072 14.3454,-14.75461 6.3636,-3.20522 17.4638,-2.7738 24.5232,0.95309 21.5494,11.37682 18.3265,44.23482 -5.0042,51.01722 -8.9809,2.6108 -15.8064,1.6072 -23.3006,-3.4261 -5.7506,-3.862 -11.7999,-12.2408 -11.812,-16.3602 0,-2.1022 -1.7238,-2.3333 -17.3402,-2.3333 -9.5333,0 -17.3333,0.4535 -17.3333,1.0078 0,0.5543 19.0535,20.0543 42.3411,43.3334 l 42.3409,42.3261 h 19.7107 19.7105 l 5.5729,-5.1983 5.5728,-5.1983 -3.127,-6.6766 c -4.3651,-9.3197 -3.5867,-20.6175 1.9637,-28.4994 10.39,-14.7545 32.7755,-15.6615 44.2084,-1.7912 17.1204,20.7699 -1.8461,51.4335 -27.7129,44.804 l -6.8458,-1.7545 -6.9096,6.8238 -6.9096,6.8238 h -25.2984 -25.2982 l -47.9862,-48 -47.9861,-48 h -32.0161 -32.0163 l -35.9815,36 -35.9814,36 h 16.6752 16.6753 l 18.6309,-18.6666 18.631,-18.6667 h 22.6765 22.6764 l 40.0081,39.9583 40.008,39.9583 59.3334,0.074 c 32.6333,0.041 61.582,-0.477 64.3304,-1.1505 11.4202,-2.7988 24.5825,3.7971 29.7577,14.9123 4.2543,9.1374 4.1385,16.0074 -0.4215,25.002 -12.2232,24.1106 -48.6904,17.8068 -51.8612,-8.9648 -0.5497,-4.6418 -0.1369,-8.8426 1.2768,-12.9915 l 2.0892,-6.1315 h -54.2606 -54.2608 l -39.9834,-40 -39.9833,-40 h -18.7 -18.7 l -13.2833,13.3334 -13.2834,13.3333 h 14.5999 14.5999 l 48.7322,48.6666 48.7323,48.6667 h 29.0424 c 22.3153,0 29.8804,-0.4333 32.6599,-1.8707 1.9896,-1.0288 7.2349,-2.5823 11.6562,-3.4522 20.6002,-4.0528 43.1016,7.8515 52.312,27.6752 3.0071,6.4723 3.5579,9.4921 3.5842,19.6477 0.027,10.3935 -0.4731,13.0907 -3.7342,20.1472 -7.71,16.6829 -23.6809,27.3082 -42.2084,28.0808 -6.0389,0.2518 -12.2609,-0.3116 -15.645,-1.4168 z m 26.1706,-22.0861 c 19.9195,-10.1622 19.745,-38.6933 -0.2978,-48.681 -10.8843,-5.4239 -22.0028,-3.8477 -30.7556,4.3599 -14.4951,13.5922 -9.891,38.0896 8.5413,45.4458 5.6883,2.2702 16.9616,1.707 22.5121,-1.1247 z m 63.3895,-80.0302 c 11.8504,-5.7366 13.6611,-20.9372 3.4531,-28.987 -4.9643,-3.9148 -10.7083,-4.7444 -16.7839,-2.4241 -15.7235,6.0048 -14.7201,28.9707 1.4449,33.0769 4.7882,1.2162 6.3988,0.9905 11.8859,-1.6658 z m -455.7515,-48.7358 c 10.442,-6.1195 15.3687,-18.893 11.853,-30.7318 -3.5783,-12.0494 -13.7144,-19.6534 -26.2132,-19.6649 -21.0212,-0.019 -34.08,22.5963 -23.486,40.6735 7.9946,13.6418 24.0994,17.7794 37.8462,9.7232 z m 441.697,-34.9612 c 16.1096,-8.2475 9.6922,-32.3313 -8.615,-32.3313 -9.7558,0 -16.6053,7.2498 -16.6053,17.5757 0,13.0726 13.304,20.8563 25.2203,14.7556 z m -96.7347,-60.8364 c 6.5661,-2.7434 10.1811,-8.0958 10.1811,-15.0742 0,-11.4153 -6.3387,-17.75399 -17.754,-17.75399 -12.3014,0 -20.5858,13.07299 -15.0394,23.73289 5.0072,9.6237 13.3328,12.9725 22.6123,9.0953 z m -262.2247,-12.7695 c 5.9303,-3.6159 8.8502,-8.6325 8.8502,-15.2049 0,-10.30635 -7.1028,-16.85379 -18.2832,-16.85379 -12.0079,0 -20.309,13.49956 -14.6936,23.89559 5.262,9.742 15.7289,13.2835 24.1266,8.1631 z m 329.8752,-36.4186 c 16.488,-11.01471 8.9352,-35.61896 -10.9389,-35.63511 -14.7428,-0.012 -24.1973,15.21515 -17.3951,28.01582 5.5114,10.37134 18.8466,13.95732 28.334,7.61929 z m -639.0933,-19.04416 c 10.2061,-4.26335 17.5376,-14.81981 17.5945,-25.33415 0.043,-7.76021 -5.7588,-18.64252 -12.2148,-22.91494 -14.0716,-9.31215 -34.6249,-3.04656 -40.504,12.34745 -5.2464,13.73765 0.1383,28.10557 12.9204,34.47516 7.9963,3.98469 15.0023,4.43479 22.2039,1.42648 z m 211.0824,-34.66067 c 8.8245,-4.56337 11.7771,-16.3955 6.1681,-24.71866 -3.8332,-5.68798 -8.0588,-7.83867 -15.4501,-7.86362 -4.9997,-0.0169 -6.556,0.7127 -11,5.15682 -4.3569,4.35685 -5.1765,6.05625 -5.1765,10.73288 0,14.20258 13.3485,22.9549 25.4585,16.69258 z m 363.384,-66.77474 c 6.5176,-3.09279 13.4468,-11.73714 14.9108,-18.60158 2.7161,-12.73478 -2.9856,-24.61125 -14.5923,-30.39506 -11.5657,-5.76343 -21.967,-4.09474 -31.0418,4.98001 -13.8304,13.83052 -9.8034,36.47487 7.8808,44.31229 5.5529,2.46104 17.355,2.30828 22.8425,-0.29566 z m -102.7317,-38.6358 c 14.4972,-6.8794 12.1708,-28.00389 -3.6046,-32.73032 -4.2257,-1.26605 -5.7762,-1.07356 -10.7512,1.33477 -3.1973,1.5478 -6.8502,4.56951 -8.1174,6.7149 -4.9922,8.45081 -1.537,20.24301 7.191,24.54271 5.6956,2.80587 9.5859,2.84098 15.2822,0.13794 z m -257.1114,-39.91669 c 16.3642,-6.81655 25.34,-26.1956 19.8244,-42.80127 -9.6786,-29.13979 -49.28,-33.0134 -63.7749,-6.23816 -4.8052,8.87599 -5.8171,17.10687 -3.2069,26.08544 2.2957,7.89667 10.4754,18.39601 16.934,21.73584 9.0813,4.69611 20.7456,5.16623 30.2234,1.21815 z m 330.6794,-33.93416 c 15.8877,-9.68683 11.1949,-33.09914 -7.3791,-36.81392 -13.192,-2.63842 -25.9917,12.26644 -21.7004,25.26944 1.6505,5.00117 7.1037,11.19406 11.4007,12.94702 4.8672,1.9856 13.207,1.32396 17.6788,-1.40254 z m -227.2471,-73.25122 c 5.3255,-2.02476 13.1419,-9.67377 15.7483,-15.41121 4.807,-10.58141 1.9489,-22.85796 -7.1896,-30.88173 -17.8868,-15.70479 -44.9904,-3.37516 -44.9904,20.46645 0,15.58677 11.2568,26.88751 26.9132,27.01832 3.4356,0.0287 7.7189,-0.50763 9.5185,-1.19183 z m 216.7699,-8.68784 c 10.1261,-5.23644 10.9513,-19.81514 1.5262,-26.96512 -8.7941,-6.6713 -24.0612,1.24508 -24.0612,12.47634 0,12.42885 11.821,20.02916 22.535,14.48878 z m -72.3267,-23.5302 c 15.1719,-9.37674 8.6704,-31.87128 -9.2116,-31.87128 -5.9397,0 -7.1923,0.54856 -11.8201,5.17647 -4.357,4.35685 -5.1766,6.05625 -5.1766,10.73288 0,14.76304 14.1772,23.39755 26.2083,15.96193 z m -19.1719,-86.61811 c 10.6647,-2.96159 19.6303,-14.79511 19.6303,-25.90954 0,-16.08937 -11.3989,-27.36776 -27.6136,-27.32169 -24.4308,0.0695 -36.1389,29.43836 -18.5369,46.49888 7.3826,7.15547 16.5846,9.49148 26.5202,6.73235 z M 331.71472,1266.2546 c -11.2735,-3.4293 -20.1565,-12.3254 -23.3803,-23.4149 -7.5826,-26.0834 16.4486,-48.4777 43.48,-40.5184 4.0377,1.1889 8.1073,3.9734 12.8507,8.7928 l 6.9418,7.0529 h 13.7388 13.7388 l 23.871,-23.8987 23.8711,-23.8987 -7.6361,-6.9789 c -7.9123,-7.2314 -13.4189,-16.2403 -15.2107,-24.8849 l -1.0375,-5.0055 -13.9428,-0.3675 -13.9428,-0.3676 -17.3141,17.3676 -17.3141,17.3675 h -12.8082 -12.8082 l -1.6045,5.3555 c -4.709,15.7173 -23.3053,24.2406 -38.1624,17.4912 -17.882,-8.1236 -22.0542,-31.1319 -8.164,-45.0221 13.9106,-13.9105 35.7623,-10.1017 44.9914,7.8421 l 2.5716,5 h 10.3248 10.3247 l 17.9242,-17.9612 17.9243,-17.9611 15.9996,-0.3722 15.9996,-0.3721 1.0379,-5.0055 c 2.68,-12.9242 14.6641,-27.5133 27.4544,-33.4222 9.0654,-4.188 30.1806,-4.188 39.246,0 12.7891,5.9084 24.7705,20.4932 27.4561,33.4222 l 1.0398,5.0055 56.6072,0.3447 56.6072,0.3447 55.3273,-55.3447 55.3273,-55.3447 -54.6606,-3e-4 -54.6606,-3e-4 -0.032,14.3336 c -0.042,18.5562 -2.9132,26.3038 -14.2357,38.4076 -11.5208,12.3158 -21.4823,16.9794 -37.7919,17.6927 -9.2363,0.404 -14.1223,-0.04 -19.469,-1.7686 -26.7658,-8.6542 -43.3346,-35.245 -38.722,-62.1438 4.1595,-24.25613 22.1028,-42.22245 46.7454,-46.80522 15.0048,-2.79044 33.457,2.70403 45.9184,13.67307 l 6.0826,5.35408 86.4188,-0.052 86.4188,-0.052 29.3296,-29.31948 29.3296,-29.31938 h -169.1154 -169.1153 l -62.2143,61.31088 -62.2142,61.31085 -19.3542,0.022 -19.3542,0.022 -15.9791,16.1067 c -8.7886,8.8587 -30.1803,29.8587 -47.5372,46.6667 l -31.558,30.56 h -12.5723 -12.5724 l -7.5363,7.9011 c -4.145,4.3455 -7.5363,8.2694 -7.5363,8.7197 0,0.4504 1.1268,3.0449 2.5039,5.7657 5.6532,11.1686 4.636,22.53 -2.8277,31.5848 -11.463,13.9066 -34.1003,12.8088 -44.4713,-2.1565 -7.291,-10.521 -5.3888,-27.9417 3.9452,-36.1307 7.608,-6.6747 19.0117,-9.3308 27.0081,-6.2906 3.4611,1.3159 4.2654,0.7963 14.448,-9.3333 l 10.7828,-10.726 12.6388,-0.064 12.6389,-0.064 13.212,-12.6028 13.2122,-12.6028 h -35.2173 -35.2173 l -64.5298,-64.5401 -64.529902,-64.54017 -5.4649,2.85272 c -6.5887,3.43928 -18.1292,3.68973 -24.2319,0.52589 -17.3037,-8.97083 -20.9542,-32.88008 -7.0083,-45.90135 10.5006,-9.80434 29.8509,-9.24286 39.2859,1.13994 7.0102,7.71456 9.4758,20.31016 5.7407,29.32741 l -1.6724,4.03757 63.205202,63.21569 63.2052,63.2158 h 38.6867 38.6866 l 22.3186,-22.3476 c 12.2753,-12.2912 22.3187,-22.7912 22.3187,-23.3334 0,-0.5421 -13.05,-0.9754 -29,-0.9629 l -29,0.023 -3.171,7.3247 c -3.7861,8.7455 -11.3254,16.6549 -19.9026,20.8797 -8.8694,4.3688 -26.3914,4.3988 -34.556,0.059 -14.7095,-7.8182 -23.0342,-20.9741 -23.0361,-36.4049 -5e-4,-4.8194 0.9542,-11.5659 2.1217,-14.9923 3.0861,-9.0572 12.0891,-18.4119 22.0005,-22.8599 7.2987,-3.2754 9.442,-3.6373 18.4518,-3.1158 7.9942,0.4628 11.7261,1.4241 17.295,4.4551 7.73,4.2072 14.9009,12.0081 18.1196,19.7115 l 2.0462,4.8972 h 52.3268 52.3268 l 29.3106,-29.3333 29.3106,-29.33335 h -48.8827 -48.8827 l -0.8261,3.76107 c -1.2086,5.50292 -8.3945,13.55211 -14.6248,16.38185 -18.1597,8.24793 -39.3691,-5.47694 -39.3691,-25.47625 0,-24.84221 30.2844,-37.15767 47.4773,-19.30712 3.0448,3.1612 5.9396,7.58536 6.4329,9.83147 l 0.8969,4.08382 53.9397,0.36258 53.9396,0.36258 7.5858,-7.66666 7.5858,-7.66667 h -34.6477 -34.6477 l -14.6211,-14.66667 -14.6212,-14.66666 h -58.6264 -58.6264 l -16.8443,16.66666 -16.8442,16.66667 -16.5521,0.0483 -16.5521,0.0483 -2.6667,5.55032 c -5.4534,11.35044 -19.0322,17.72999 -31,14.56431 -25.0384,-6.6231 -29.5136,-39.68407 -7.0524,-52.10003 14.9573,-8.26796 34.4871,-0.64888 40.1774,15.67425 l 1.4692,4.21464 h 14.8904 14.8904 l 15.9584,-16 15.9583,-16 h 63.3769 63.3769 l 14.6212,14.66667 14.6212,14.66667 h 37.4399 37.44 l 3.8322,-4 3.8323,-4 h -13.8583 -13.8582 l -34.7573,-34.66667 -34.7572,-34.66667 h -135.9969 -135.9968 l -4.9068,4.04466 c -2.6988,2.22454 -8.149,5.52893 -12.111602,7.34305 -21.6123,9.89444 -44.6821,5.93292 -62.078,-10.65995 -22.6641,-21.61788 -23.2428,-55.62504 -1.3408,-78.78323 20.9425,-22.14359 57.2648,-22.61192 78.962202,-1.01812 12.3781,12.31898 17.6312,25.9735 16.5274,42.96029 -0.3614,5.56232 -1.097,11.1633 -1.6346,12.44664 -0.927,2.21321 5.9095,2.33333 132.7998,2.33333 h 133.7772 l 35.6413,35.55172 35.6413,35.55173 63.0575,-0.88352 c 34.6816,-0.48593 86.45,-0.88421 115.0408,-0.88506 l 51.9834,-0.002 -19.9667,-20 -19.9666,-20 -26.0167,0.0605 -26.0167,0.0605 -3.3333,6.93946 c -7.7669,16.16938 -28.4128,20.16428 -42.3881,8.20195 -7.0087,-5.9992 -10.1522,-14.06296 -9.333,-23.94137 2.0032,-24.15511 32.4494,-33.36275 48.7877,-14.7545 2.4074,2.74188 4.7273,6.73607 5.1552,8.87598 l 0.7782,3.89074 h 28.1798 28.1798 l 25.307,25.33334 25.3071,25.33333 h 12.0073 12.0074 l -57.3218,-57.33333 -57.3217,-57.33333 h -63.6545 -63.6546 l -2.0887,4.99999 c -8.9578,21.44438 -38.5925,23.72784 -49.9921,3.85208 -10.6701,-18.60366 2.6547,-42.1283 23.8903,-42.17797 10.3888,-0.0243 24.1971,9.74619 26.115,18.47851 l 0.9182,4.18072 h 66.1947 66.1946 l 62.7181,62.66666 62.7181,62.66667 h 138.8886 138.88858 l 0.5778,-3 c 0.3178,-1.65 0.5778,4.5 0.5778,13.66667 0,9.16666 -0.26,15.31666 -0.5778,13.66666 l -0.5778,-3 h -71.58268 -71.5827 l -37.9913,38.08798 c -20.8951,20.94838 -39.6114,38.94841 -41.5916,40.00001 -2.4552,1.3038 -7.9706,1.912 -17.3386,1.912 h -13.7381 l -63.9948,64.0865 c -35.1971,35.2477 -65.615,64.9476 -67.5952,66 -2.9761,1.5816 -14.1284,1.9134 -64.3109,1.9134 h -60.7104 l -3.2227,6.3598 c -3.9559,7.8064 -14.9089,18.2772 -22.7451,21.7435 -3.2095,1.4197 -8.7398,2.9501 -12.2896,3.4009 -6.3321,0.804 -7.0732,1.4343 -39.1821,33.3244 l -32.7279,32.5054 -16.6054,0.01 -16.6054,0.01 -2.4623,5.9874 c -6.0401,14.6875 -24.8095,23.9063 -39.5464,19.4235 z m 18.1237,-18.2856 c 8.2076,-5.3778 9.7193,-17.5274 3.1164,-25.0476 -7.0158,-7.9906 -16.8719,-8.0472 -24.7767,-0.1425 -3.6901,3.6901 -4.4532,5.4504 -4.446,10.2548 0.01,6.4196 3.337,12.6064 8.2443,15.3295 4.3521,2.4151 13.896,2.2045 17.862,-0.3942 z m -145.0348,-49.8362 c 4.4556,-2.7165 8.2531,-9.4902 8.2531,-14.7215 0,-1.5627 -0.9639,-4.8725 -2.142,-7.3551 -5.2562,-11.0767 -19.7857,-13.1623 -28.1455,-4.0401 -3.7605,4.1033 -4.3792,5.7452 -4.3792,11.6215 0,6.1713 0.5082,7.3513 5.1765,12.0196 4.4357,4.4357 6.0098,5.1758 11,5.1715 3.4865,0 7.5947,-1.0849 10.2371,-2.6959 z m 114.5037,-21.7746 c 3.5586,-3.883 4.4151,-5.9228 4.4111,-10.5049 -0.01,-6.88 -3.7198,-13.4526 -9.2032,-16.2882 -15.0321,-7.7734 -31.1672,8.3617 -23.3938,23.3938 3.2667,6.317 9.4124,9.4594 17.1859,8.7873 5.4955,-0.4751 7.3141,-1.3659 11,-5.388 z m 160.5629,-22.9097 c 20.1936,-7.1247 24.9665,-33.3773 8.5311,-46.9247 -8.9076,-7.3424 -19.4018,-8.3881 -30.0113,-2.9905 -21.598,10.9881 -18.436,42.917 4.9713,50.1979 6.9061,2.1482 9.7576,2.0993 16.5089,-0.2827 z m -232.468,-91.2743 c 8.6042,-5.246 12.151,-16.6748 7.7812,-25.0734 -8.6702,-16.6638 -31.4824,-14.5192 -36.871,3.4662 -4.885,16.3047 14.3516,30.5932 29.0898,21.6072 z m 345.0644,-3.2866 c 12.126,-5.0666 20.7603,-18.3014 20.839,-31.9428 0.079,-13.7407 -6.0592,-24.3301 -17.9098,-30.89584 -6.0133,-3.33164 -8.4224,-3.87716 -17.0058,-3.85081 -7.6235,0.0235 -11.2674,0.70852 -15.3333,2.88296 -19.6723,10.52069 -25.4317,35.37209 -12.2177,52.71889 4.462,5.8575 12.7818,11.3136 20.0817,13.1693 5.1774,1.3161 15.8912,0.281 21.5459,-2.0817 z m -268.6181,-73.45196 c 5.1648,-2.67081 9.1982,-9.36608 9.1982,-15.2686 0,-15.69372 -19.6051,-23.12995 -30.2775,-11.48429 -3.7136,4.05224 -4.3792,5.77908 -4.3792,11.36241 0,13.48273 13.4381,21.60648 25.4585,15.39048 z M 69.542318,976.32861 c 17.7324,-7.40905 12.7007,-33.05046 -6.4856,-33.05046 -18.9968,0 -24.2165,25.40172 -6.7798,32.99368 5.2924,2.30428 7.8601,2.31526 13.2654,0.0568 z m 95.244702,-15.0593 c 1.685,-1.0526 4.2328,-3.83123 5.6617,-6.17471 9.3329,-15.30645 -10.5303,-32.51171 -24.8898,-21.55919 -4.9017,3.73868 -8.022,11.71763 -6.6775,17.07475 2.8528,11.36632 16.0687,16.80415 25.9056,10.65915 z m 420.1875,-81.53863 c 8.1886,-4.39159 11.5883,-14.82775 7.4422,-22.84545 -3.203,-6.19391 -8.3034,-9.38486 -15.0008,-9.38486 -10.4417,0 -17.6925,6.80522 -17.6925,16.60527 0,13.75716 13.3411,22.01245 25.2511,15.62504 z M 89.853518,854.44075 c 6.5113,-3.3218 14.405302,-11.78304 17.172902,-18.40684 3.2184,-7.70268 2.6452,-20.74215 -1.2497,-28.42834 -5.7566,-11.35995 -19.408902,-20.10519 -31.386702,-20.10519 -6.7386,0 -16.8233,3.97429 -22.573,8.89581 -20.1047,17.20894 -13.9307,50.45234 11.0868,59.69602 7.2722,2.68699 19.971,1.9088 26.9497,-1.65146 z M 473.18192,805.43564 c 8.5281,-4.41008 11.6589,-15.89945 6.5954,-24.20386 -9.2244,-15.12859 -32.0539,-8.52491 -32.0539,9.27194 0,5.93967 0.5485,7.19227 5.1764,11.82019 4.3569,4.35685 6.0563,5.17646 10.7329,5.17646 3.056,0 7.3531,-0.92913 9.5492,-2.06473 z M 1841.9064,1157.6235 c -10.8916,-4.044 -18.2439,-14.7755 -18.0894,-26.4034 0.052,-3.8792 0.5931,-8.2531 1.2035,-9.7197 0.9481,-2.2786 -5.71,-9.5064 -45.7533,-49.6667 l -46.8631,-47 h -33.3472 -33.3471 l -49.3198,-49.33333 -49.3199,-49.33333 h -12.2633 -12.2635 l -0.5104,5.66667 c -0.2807,3.11666 -0.5104,-1.83334 -0.5104,-11 0,-9.16667 0.2297,-14.11667 0.5104,-11 l 0.5104,5.66666 h 14.2153 14.2155 l 49.3981,49.33334 49.398,49.33329 h 33.3168 33.3168 l 47.8484,47.8622 47.8483,47.8622 6.01,-3.1955 c 15.7789,-8.3897 35.8576,0.4628 40.2045,17.7259 5.3014,21.0537 -16.2342,40.6924 -36.4086,33.2017 z m 17.953,-11.8311 c 10.5392,-7.0748 11.8363,-18.8974 2.9888,-27.2416 -3.8294,-3.6116 -5.6998,-4.3838 -10.6194,-4.3838 -11.1947,0 -18.2024,6.7663 -18.2024,17.5753 0,6.0095 3.0012,10.9663 8.7693,14.4834 5.6407,3.4393 11.5172,3.2901 17.0637,-0.4333 z M 778.77142,877.56604 c -18.0233,-5.63271 -30.7166,-20.37657 -33.8093,-39.27091 -1.5134,-9.24594 0.4371,-21.31789 4.6819,-28.97777 l 3.0569,-5.51633 -64.1605,-64.15033 c -46.9847,-46.97714 -64.9712,-64.15032 -67.1885,-64.15032 -2.0826,0 -3.455,1.14473 -4.3961,3.66666 -7.8386,21.00684 -23.0706,32.42562 -44.5658,33.40895 -8.4682,0.38739 -12.22,-0.0951 -18.2034,-2.341 -13.9178,-5.22416 -25.5713,-16.99783 -29.3683,-29.67113 l -1.5171,-5.06348 h -37.4282 -37.4283 l -42.0755,42 -42.0756,42 h -77.4739 -77.4739 l -0.8451,3.36694 c -1.1664,4.64748 -9.8798,13.99828 -15.0679,16.17022 -2.3597,0.98789 -7.5154,1.79617 -11.4569,1.79617 -29.041,0 -38.2592,-38.83743 -12.4182,-52.31916 12.5913,-6.56908 29.0447,-1.95213 36.1302,10.13841 1.8528,3.1616 3.3688,6.74566 3.3688,7.96456 0,2.01028 3.2829,2.21619 35.3333,2.21619 19.4334,0 35.3334,-0.45352 35.3334,-1.00781 0,-0.5543 -19.0535,-20.0543 -42.3411,-43.33334 l -42.341,-42.32552 h -29.3039 -29.3038 l -14.1301,14.08627 -14.1301,14.08628 3.1083,6.13969 c 14.0823,27.81598 -22.026802,53.98048 -44.053602,31.92114 -10.8954,-10.91151 -11.632,-26.58792 -1.7768,-37.81246 7.5536,-8.60301 19.6823,-11.91273 30.2084,-8.24333 l 4.3342,1.51092 15.551402,-15.51092 15.5514,-15.51092 h 34.6536 34.6536 l 47.9861,48 47.9861,48 h 8.4482 8.4481 l -53.0712,-54 -53.0713,-54 h -66.2801 -66.280102 l -0.8899,3 c -1.9567,6.59643 -7.7384,13.02339 -14.8428,16.49921 -6.0398,2.95502 -8.326,3.39532 -14.0867,2.71304 -14.9454,-1.77006 -25.7125,-13.63481 -25.5033,-28.10338 0.4238,-29.32318 39.7693,-38.12283 52.4764,-11.73639 l 3.3333,6.92173 67.965502,0.0196 67.9654,0.0196 59.3876,59.33334 59.3876,59.33333 h 15.3229 15.3228 l 35.9815,-36 35.9815,-36 h -16.6753 -16.6752 l -18.631,18.66667 -18.6309,18.66666 h -22.6777 -22.6777 l -47.3402,-47.31118 -47.3401,-47.3112 -49.4192,-0.0832 c -31.3688,-0.0528 -50.7588,0.42608 -53.0868,1.31118 -16.6772,6.34067 -36.777002,-8.0987 -36.819902,-26.45088 -0.033,-14.27681 13.8704,-28.18065 28.147202,-28.14725 19.0244,0.0445 33.1339,20.75425 25.9134,38.03539 l -1.932,4.62373 h 45.5557 45.5556 l 47.4008,47.33333 47.4007,47.33334 h 18.6672 18.6673 l 13.2833,-13.33334 13.2833,-13.33333 h -14.6056 -14.6055 l -56.7028,-56.64188 -56.7027,-56.64188 -2.499,6.05642 c -3.4039,8.24944 -13.8308,18.59278 -23.1412,22.95561 -6.7533,3.16464 -9.3221,3.60506 -21.0265,3.60506 -11.8977,0 -14.1503,-0.40117 -20.9201,-3.72565 -9.7717,-4.7986 -19.9477,-15.85764 -23.8736,-25.94546 -4.0905,-10.51055 -4.0239,-24.70932 0.1672,-35.65239 3.7083,-9.68257 14.7074,-21.26423 24.6265,-25.93085 8.1848,-3.85072 22.8738,-5.09491 32.601,-2.76138 13.6836,3.28263 30.034,18.09231 32.8218,29.72895 0.4924,2.05499 2.4573,4.54683 4.4001,5.57988 1.9307,1.02667 29.6078,28.00572 61.5047,59.95345 l 57.9942,58.08679 48.6724,-0.003 c 26.7699,-10e-4 62.5556,-0.39564 79.5239,-0.87544 l 30.8516,-0.87236 1.4545,-4.85472 c 3.7319,-12.45593 15.4643,-24.25616 29.3057,-29.47513 10.9745,-4.13796 27.1665,-3.23768 37.9858,2.11201 12.4704,6.16608 21.3779,17.38103 25.6561,32.30204 0.3113,1.08588 3.1623,1.66667 8.1814,1.66667 h 7.7037 l 66.8356,66.8258 66.8356,66.8258 7.8359,-2.99143 c 25.3045,-9.66017 53.9572,3.21949 62.8474,28.25048 l 2.2812,6.42268 h 38.5166 38.5166 l 10.9281,10.66666 10.9281,10.66667 h 44.1496 44.14958 l 0.5778,-3 c 0.3178,-1.65 0.5778,4.5 0.5778,13.66667 0,9.16666 -0.26,15.31666 -0.5778,13.66666 l -0.5778,-3 h -48.07018 -48.0702 l -10.9281,-10.66666 -10.9281,-10.66667 h -34.8018 -34.8018 l -2.2012,6.62699 c -2.4439,7.35793 -11.7318,18.56606 -19.3929,23.4023 -10.7793,6.80468 -27.6539,9.09446 -39.5722,5.36971 z m 26.0051,-21.93591 c 10.5315,-5.40088 15.466,-14.18861 14.7023,-26.18281 -0.7269,-11.41576 -5.3517,-18.32732 -15.3158,-22.88903 -13.1594,-6.02458 -26.4708,-2.00546 -34.7391,10.48876 -8.0975,12.23612 -3.0693,31.02127 10.1758,38.01647 7.4454,3.93215 18.1446,4.17295 25.1768,0.56661 z M 190.39002,768.7717 c 11.9573,-6.13683 11.9086,-24.40424 -0.082,-30.83496 -5.6338,-3.02146 -9.505,-3.0737 -15.5403,-0.20975 -9.2391,4.38421 -12.5013,16.27677 -6.9354,25.28268 1.5265,2.46988 2.8765,4.49975 3,4.51079 0.1235,0.0107 2.6246,0.87041 5.5579,1.90972 5.0839,1.80124 9.6234,1.58772 14,-0.65848 z M 94.338518,724.19368 c 6.436502,-3.32844 9.384902,-8.25973 9.384902,-15.69665 0,-5.93967 -0.5486,-7.19227 -5.176502,-11.82019 -4.3569,-4.35685 -6.0563,-5.17646 -10.7329,-5.17646 -7.1004,0 -12.8465,2.98898 -16.1446,8.39806 -8.9691,14.70972 7.3611,32.21131 22.6691,24.29524 z m 490.718202,-36.3841 c 6.9772,-4.25086 13.3414,-15.18328 13.3203,-22.88162 -0.022,-8.10825 -5.6769,-18.20022 -12.69,-22.64777 -10.538,-6.683 -20.7866,-6.67095 -30.5746,0.0359 -8.0876,5.54178 -10.7224,11.07493 -10.7224,22.51765 0,8.5872 0.5068,10.93504 3.2131,14.8846 8.8386,12.89912 24.1374,16.20419 37.4536,8.09127 z M 58.421518,648.13684 c 5.9403,-5.69108 7.4101,-11.55605 4.6847,-18.69253 -5.4461,-14.26035 -25.3347,-15.23937 -31.8229,-1.56651 -2.8627,6.03274 -2.8032,8.25654 0.3981,14.86828 3.6246,7.48584 8.4265,10.30614 16.4376,9.65422 4.7474,-0.38632 7.4026,-1.48512 10.3025,-4.26346 z m 64.125402,-41.81293 c 4.4441,-4.44412 5.1737,-6.00037 5.1568,-11 -0.025,-7.39144 -2.1756,-11.61705 -7.8636,-15.45017 -15.4217,-10.39265 -34.136002,8.32172 -23.743402,23.74337 3.8331,5.68797 8.058802,7.83867 15.450202,7.86361 4.9996,0.0169 6.5559,-0.71269 11,-5.15681 z m 80.2708,-30.91969 c 6.145,-1.70637 14.5071,-8.96604 17.4353,-15.13668 2.7551,-5.80608 2.7375,-17.09865 -0.036,-22.94301 -1.1951,-2.51838 -4.5302,-6.59667 -7.4114,-9.06287 -20.4832,-17.53284 -50.8652,2.14519 -43.8033,28.37087 2.0031,7.43905 11.0366,16.66034 18.168,18.5457 7.0179,1.85534 9.643,1.89326 15.6472,0.22599 z m 824.90558,222.09616 c 0,-3.28707 -0.1532,-3.33334 -11.0357,-3.33334 h -11.0358 l -8.96418,-9.03346 -8.9643,-9.03346 v -18.6457 -18.64571 l -26.3455,-26.32084 -26.3455,-26.32083 h -43.962 -43.962 l -80.0406,-80 -80.0406,-79.99999 h -104.1373 -104.1373 l -0.8406,6.13305 c -1.1187,8.16169 -7.9987,20.78281 -14.5607,26.71119 -2.9193,2.63742 -8.6798,6.37641 -12.8012,8.30886 -6.4522,3.0254 -9.2532,3.51279 -20.16,3.50798 -11.148,-0.005 -13.5743,-0.4507 -20.2373,-3.71807 -11.2206,-5.50235 -21.6077,-17.29639 -25.0508,-28.444 -1.4916,-4.82895 -2.7119,-9.91671 -2.7119,-11.30613 0,-2.42718 -1.6856,-2.52622 -42.9933,-2.52622 h -42.9933 l -48.8837,-48.87024 -48.8836,-48.87025 -8.5627,-0.12973 c -7.0549,-0.10694 -9.6997,-0.83415 -15.0195,-4.12976 -9.2788,-5.74822 -13.0164,-13.22766 -12.4,-24.81403 0.6265,-11.77581 4.8015,-18.22075 15.0522,-23.23595 6.3833,-3.12302 8.534,-3.53429 14.9953,-2.86742 14.5152,1.49809 24.9914,13.09648 24.9152,27.58406 -0.04,7.54415 -3.5209,16.37127 -7.8849,19.99306 -1.9477,1.6165 2.8818,6.88446 44.2288,48.24413 l 46.4152,46.42947 h 41.6738 c 39.5793,0 41.6739,-0.12332 41.6739,-2.45371 0,-1.34953 1.8381,-6.13209 4.0846,-10.62791 11.5564,-23.12633 41.4518,-33.0451 64.3656,-21.35537 7.1177,3.6312 17.8956,13.91439 21.0364,20.07083 l 2.5676,5.03282 h 70.9171 70.9172 l -5.8885,-6 -5.8886,-6 h -56.0796 -56.0795 l -13.9523,-14 -13.9524,-14 h -34.082 -34.082 l -17.8345,18 -17.8345,18 h -11.4072 -11.4072 l -8.9369,-8.86842 -8.9369,-8.86842 -4.3967,1.82116 c -2.4181,1.00163 -7.5161,1.77607 -11.3289,1.72095 -13.8006,-0.19948 -24.9509,-10.90128 -26.6942,-25.62052 -0.6656,-5.62031 -0.2074,-7.96637 2.7275,-13.96507 5.0121,-10.24442 11.7902,-14.67958 23.3362,-15.26974 11.1033,-0.56752 18.937,3.04408 24.7504,11.41082 5.3158,7.65066 6.2622,19.72759 2.1623,27.59408 l -2.7561,5.28819 6.9577,7.04515 c 6.7197,6.80422 7.2079,7.04516 14.2775,7.04516 h 7.3199 l 18.1658,-18 18.1658,-18 h 37.7591 37.7591 l 14.2071,14 14.2071,14 h 48.5794 48.5793 l -23.3047,-23.33334 -23.3048,-23.33333 h -89.3363 -89.3362 l -28.1567,-28.13388 -28.1568,-28.13388 -9.6496,2.34535 c -8.0728,1.96208 -10.9569,2.10225 -17.6489,0.85774 -10.7235,-1.99424 -18.5973,-5.99908 -25.6388,-13.0406 -22.0641,-22.06409 -15.9112,-59.11649 12.1741,-73.31133 6.8268,-3.4504 9.1099,-3.90301 19.7206,-3.90945 10.2033,-0.007 13.1275,0.52135 19.5306,3.52333 25.3132,11.86768 34.361,43.84534 18.9044,66.81371 l -4.585,6.81321 25.0619,25.08789 25.0618,25.08791 h 34.6581 34.6581 l -15.0818,-15.12467 -15.0818,-15.12468 -5.7134,1.30742 c -21.0133,4.80853 -39.1528,-17.49028 -30.2225,-37.15239 3.2192,-7.08774 10.9711,-13.35858 18.8503,-15.24877 21.766,-5.22157 39.9316,18.56452 29.4847,38.60733 l -3.047,5.84588 18.4096,18.44493 18.4096,18.44495 h 41.0179 41.0179 v -15.68056 -15.68056 l -23.76,-23.73241 -23.7599,-23.73243 -6.3186,1.59104 c -29.119,7.33226 -54.3406,-17.85012 -46.9135,-46.84062 l 2.1626,-8.44142 -8.2291,-8.30281 c -7.3001,-7.36564 -8.5935,-8.1642 -11.4587,-7.07484 -9.188,3.49325 -22.0607,-0.24911 -29.3282,-8.52631 -9.8109,-11.17396 -9.207,-27.11757 1.4299,-37.75452 14.2812,-14.28122 37.6167,-9.59101 45.4381,9.13262 3.6494,8.73644 1.857,21.31565 -3.9518,27.73429 -1.7048,1.88387 -1.1068,2.92617 5.3209,9.27403 l 7.2416,7.15164 5.3273,-3.69184 c 15.715,-10.89048 36.128,-9.49636 49.1066,3.35374 8.0948,8.01467 11.4149,15.9213 11.4306,27.22096 0.012,9.10322 -1.5914,14.27086 -7.1392,22.99987 -1.8365,2.8896 -0.9636,3.94377 23.7474,28.67917 l 25.654,25.67931 v 20.66236 20.66236 l 40.3414,40.32513 40.3413,40.32513 h 10.3253 10.3253 v -16.34685 -16.34684 l -24.6667,-24.63964 -24.6666,-24.63964 v -34.02601 -34.02601 l -26.6667,-26.64167 -26.6667,-26.64167 -0.044,-12.01249 -0.044,-12.01251 -6.9262,-4 c -19.6399,-11.34226 -18.1845,-38.70734 2.6158,-49.18406 6.3636,-3.20522 17.4638,-2.7738 24.5232,0.95309 17.0334,8.9926 19.6036,32.93431 4.8878,45.53047 -2.9949,2.5636 -7.4477,5.03672 -9.8951,5.49585 l -4.4498,0.83476 v 10.14333 10.14334 l 26.6667,26.78248 26.6667,26.78249 v 33.93968 33.93969 l 24,23.97221 24,23.97222 v 19.01389 19.01389 h 7.3333 7.3333 v -18.93906 -18.93907 l -17.3333,-17.50483 -17.3333,-17.50484 v -46.68693 -46.68693 l -5.2357,-2.36097 c -20.4783,-9.23442 -21.754,-39.47048 -2.0977,-49.71558 11.8051,-6.15288 23.5576,-4.42094 32.8595,4.84243 7.9679,7.93481 10.1199,14.96465 7.8026,25.48853 -1.3142,5.96872 -2.8077,8.49834 -7.9911,13.53546 -3.5061,3.40718 -8.2414,6.60485 -10.5229,7.10594 l -4.1481,0.91107 v 44.91406 44.91407 l 16.6667,16.62665 16.6667,16.62666 v 21.41409 21.41411 l 30.3333,30.25658 30.3333,30.25659 0.3959,-9.52215 0.3959,-9.52216 -16.0625,-16.24742 -16.0626,-16.24743 v -48.18903 -48.18904 l -3.6667,-0.88126 c -15.4003,-3.7014 -23.9824,-15.30471 -22.7058,-30.69903 1.1676,-14.07992 12.7939,-24.4705 27.3806,-24.4705 8.8758,0 14.8139,2.6707 20.8888,9.39482 8.5018,9.41048 9.3797,22.25369 2.2853,33.43201 -2.0385,3.21191 -5.9134,7.02627 -8.611,8.47636 l -4.9046,2.63655 v 47.38431 47.38429 l 16,15.95832 16,15.95832 v 17.36164 17.36163 l 44.3407,44.32587 44.3407,44.32587 h 43.0803 c 29.002,0 44.032,0.48495 45.9926,1.48396 1.6018,0.81619 6.6624,5.14885 11.2457,9.62815 l 8.3333,8.14418 v -27.97109 -27.97109 l -34.3427,-34.32372 -34.3428,-34.32372 h -12.2611 -12.261 l 0.7476,6.33333 c 1.5939,13.50307 -5.8694,26.15049 -17.838,30.22863 -10.7314,3.65656 -20.0126,2.01052 -27.9477,-4.95659 -24.5843,-21.58525 1.8278,-60.42102 31.0198,-45.61096 6.0307,3.0596 8.0123,3.32822 24.5905,3.33334 l 18.0312,0.005 37.6956,37.78085 37.6955,37.78084 -0.1863,35.07339 -0.1863,35.07338 16.1304,16.16924 c 11.20708,11.23407 16.53608,17.58375 17.45958,20.80363 0.731,2.54892 1.3291,11.88377 1.3291,20.74411 0,15.11534 0.1905,16.28866 3.0859,19.00881 2.2483,2.11216 4.7565,2.89908 9.2406,2.89908 5.3225,0 6.2328,-0.40561 6.7325,-3 0.3178,-1.65 0.6595,4.35 0.7594,13.33333 0.1,8.98334 -0.1184,16.33333 -0.4851,16.33333 -0.3667,0 -0.6667,-1.5 -0.6667,-3.33333 z M 851.84852,585.43564 c 5.5318,-2.86061 9.1972,-9.40237 9.2032,-16.42546 0,-4.99016 -0.7358,-6.56429 -5.1715,-11 -4.6683,-4.66827 -5.8483,-5.17647 -12.0196,-5.17647 -5.8763,0 -7.5182,0.61871 -11.6215,4.37914 -14.9128,13.6665 1.6529,37.50849 19.6094,28.22279 z m -405.7758,-39.56701 c 7.837,-5.18625 12.9575,-16.0989 11.8686,-25.29354 -1.5263,-12.88724 -11.6954,-23.09452 -24.5215,-24.61358 -5.4796,-0.64898 -8.0922,-0.17021 -14.1133,2.58631 -9.9835,4.57064 -14.6111,11.47521 -15.3376,22.88453 -0.7664,12.03515 4.0883,20.59171 15.0878,26.59275 6.3381,3.45788 20.2047,2.35103 27.016,-2.15647 z M 314.01262,474.6071 c 13.6729,-6.4882 12.6938,-26.37677 -1.5665,-31.82284 -20.0714,-7.66533 -32.8697,21.76469 -13.6106,31.29788 6.7297,3.33116 9.0913,3.41285 15.1771,0.52496 z m -114.8492,-60.28763 c 4.3523,-2.65401 8.56,-9.93838 8.56,-14.81909 0,-4.85204 -4.1942,-12.15185 -8.56,-14.89831 -6.0021,-3.77585 -15.6091,-2.71605 -20.8442,2.29944 -7.9227,7.59046 -7.5794,18.45104 0.8163,25.82251 5.6046,4.92093 13.5381,5.55292 20.0279,1.59545 z m 533.8111,-10.58878 c 5.1481,-2.76098 9.4155,-9.6941 9.4155,-15.29716 0,-7.49546 -5.958,-14.94719 -13.5953,-17.00368 -6.7592,-1.82008 -15.9272,1.99049 -18.9767,7.88746 -4.6479,8.98814 -1.2362,20.31504 7.4007,24.56986 5.8602,2.88693 10.1606,2.84422 15.7558,-0.15648 z m -323.4322,-24.7354 c 6.5921,-2.75435 10.1811,-8.0919 10.1811,-15.14139 0,-4.99289 -0.7315,-6.685 -4.5334,-10.48685 -3.8192,-3.81925 -5.4833,-4.53333 -10.5643,-4.53333 -7.2383,0 -13.2686,4.36302 -15.5391,11.24272 -1.8859,5.71421 -0.7016,10.38607 3.7688,14.86843 5.9446,5.96043 9.848,6.9079 16.6869,4.05042 z m -103.4438,-14.6775 c 11.2063,-5.79502 16.7995,-15.8201 16.0662,-28.79697 -0.8974,-15.88264 -11.2237,-26.66153 -26.6079,-27.77433 -10.6559,-0.77077 -18.2811,2.2478 -25.0214,9.90519 -14.3934,16.35176 -7.9138,40.25672 13.0347,48.08879 5.8069,2.17104 16.9383,1.4681 22.5284,-1.42268 z m 359.8295,-38.82891 c 4.5077,-2.95351 8.4511,-9.85056 8.457,-14.79132 0.012,-9.45911 -11.4595,-19.01148 -20.7393,-17.27058 -2.6886,0.50439 -6.5759,2.81583 -9.2754,5.51528 -3.9959,3.99594 -4.6463,5.52814 -4.642,10.9359 0.012,14.85849 14.3286,23.38896 26.1997,15.61072 z m -172.9926,-1.90216 c 4.9749,-3.54242 9.3961,-12.05266 9.3961,-18.08634 0,-6.02069 -4.4175,-14.5413 -9.3656,-18.06462 -3.0323,-2.15922 -6.8207,-3.30915 -12.1784,-3.69668 -6.7439,-0.48782 -8.4962,-0.0865 -13.1919,3.0209 -6.0094,3.97683 -10.4626,12.0814 -10.5096,19.12686 -0.042,6.24164 4.4808,14.27973 10.308,18.3209 4.3038,2.98476 6.1123,3.40039 13.0527,2.99982 5.8046,-0.33502 9.2957,-1.34716 12.4887,-3.62084 z m 80.0824,-58.06622 c 11.8945,-6.15092 12.6581,-23.80798 1.3191,-30.50606 -8.5539,-5.05291 -20.0382,-1.69522 -24.6402,7.20413 -7.4205,14.34967 8.9677,30.72437 23.3211,23.30193 z m -143.6917,-8.34077 c 7.7973,-7.79731 6.1348,-21.29308 -3.3341,-27.06665 -14.8181,-9.03514 -32.204,7.37526 -24.2039,22.84581 5.1537,9.96624 19.5812,12.17759 27.538,4.22084 z M 1541.438,784.16704 c -0.013,-9.53333 0.2418,-15.98333 0.5596,-14.33333 0.5394,2.80073 1.2585,3 10.8242,3 h 10.2463 l 57.6609,-57.67235 57.661,-57.67234 v -41.9489 -41.94887 l 44.6328,-44.71211 44.6328,-44.71209 -3.6328,-7.33035 c -3.1643,-6.38484 -3.6251,-8.8786 -3.5732,-19.33333 0.047,-9.39727 0.6888,-13.38048 2.9577,-18.34826 4.3104,-9.43746 13.6515,-18.68332 23.3369,-23.0992 14.3882,-6.55996 35.3686,-4.58633 45.1271,4.24511 2.0597,1.86401 5.7827,-1.69752 45.0012,-43.05092 l 42.7557,-45.08305 0.048,-32.63079 0.048,-32.6308 8.1339,-8.20678 c 7.1363,-7.20032 7.9539,-8.54299 6.6667,-10.94822 -0.807,-1.50778 -1.4672,-5.20014 -1.4672,-8.20525 0,-19.7252 22.6536,-31.17381 38.2084,-19.30963 13.985,10.66698 11.8625,32.81834 -3.8747,40.4366 -7.0124,3.3946 -12.4224,3.5714 -19.7363,0.64496 l -5.4564,-2.18325 -5.9038,5.79419 -5.9039,5.7942 -0.044,32.72238 -0.045,32.72239 -43.9554,46.37954 c -24.1765,25.50875 -43.9565,46.62444 -43.9565,46.92379 0,0.29933 1.1764,2.53819 2.6144,4.97524 4.2334,7.17528 7.0588,20.34957 6.0426,28.17673 -1.9916,15.34247 -12.2625,29.87459 -25.7998,36.50406 -6.5128,3.18938 -9.1366,3.68605 -19.5239,3.69592 -10.1944,0.009 -13.1276,-0.51734 -19.494,-3.50244 l -7.4939,-3.51382 -42.1728,42.18818 -42.1726,42.18818 v 30.62212 30.62211 l 31.7304,-31.6298 31.7304,-31.62981 h 42.6118 42.6119 l 36.9911,-37.00878 36.991,-37.00877 v -49.92749 -49.9275 l 31.4482,-31.5481 31.448,-31.54811 -2.3802,-6.51562 c -1.5254,-4.17588 -2.3929,-10.34602 -2.4156,-17.1823 -0.031,-9.21126 0.5335,-11.87669 4.1338,-19.535 19.4406,-41.3526 77.8457,-36.53957 90.493,7.45732 6.2612,21.78123 -5.3541,46.51074 -26.4148,56.23832 -7.2178,3.3338 -9.899,3.83936 -20.3616,3.83936 -10.9088,0 -12.8648,-0.40739 -20.6666,-4.3043 l -8.6175,-4.30432 -28.3333,28.36695 -28.3334,28.36696 v 49.34919 c 0,41.32672 -0.3182,49.76992 -1.9576,51.93735 -1.0766,1.42349 -1.9766,3.03817 -2,3.58817 -0.023,0.55 15.7004,1 34.9415,1 h 34.9839 l 19.6828,-19.65 19.6828,-19.64999 v -29.93881 -29.93881 l 25.5418,-25.66432 25.5419,-25.66434 -4.1428,-4.71836 c -13.0267,-14.83665 -1.672,-39.28501 18.3048,-39.41275 6.6491,-0.0425 15.7571,4.85813 19.4505,10.46558 10.511,15.9578 1.2799,35.11368 -18.0449,37.44585 -5.7568,0.69475 -7.0889,1.82084 -31,26.20508 l -24.9847,25.47915 v 29.86891 29.86889 l -22.3476,22.31863 -22.3476,22.31862 h -43.3909 -43.3908 l -4.5231,4.66667 -4.523,4.66667 h 58.6044 58.6045 l 34.3237,-34.34278 34.3238,-34.34276 v -24.7371 -24.73711 l 11.9525,-11.72036 c 6.5739,-6.4462 12.3436,-13.01027 12.8215,-14.5868 4.4102,-14.54969 24.0518,-21.60476 38.8898,-13.96887 19.2727,9.91811 19.2727,38.95344 0,48.87155 -8.1013,4.16905 -18.376,4.28899 -26.184,0.30564 -5.6254,-2.86991 -13.4798,-12.1294 -13.4798,-15.89135 0,-1.29088 -2.5355,0.4142 -6.6667,4.48327 l -6.6667,6.56643 v 24.66282 24.66284 l -37.6354,37.72062 -37.6355,37.72062 h -65.9583 -65.9582 l -3.7396,3.58279 c -2.0568,1.97053 -3.7396,4.07053 -3.7396,4.66667 0,0.59613 39.7632,1.08388 88.3628,1.08388 h 88.3628 l 11.0306,-11.08832 c 10.4279,-10.48236 10.9546,-11.28862 9.6372,-14.75347 -2.3966,-6.3038 -1.6608,-15.89913 1.709,-22.28184 11.3957,-21.58543 44.2352,-18.32468 51.0356,5.06751 2.5024,8.60806 1.7174,14.66644 -2.9395,22.68734 -7.0364,12.11952 -23.5637,16.62239 -36.4141,9.92106 l -5.8823,-3.06754 -11.4775,11.4243 -11.4774,11.42429 h -96.5726 -96.5726 l -15.5246,15.33333 -15.5245,15.33333 h -41.8644 -41.8643 l -98.0333,98 -98.0332,98 h -14.8903 -14.8904 l -0.5553,3.66667 c -0.3056,2.01666 -0.5637,-4.13333 -0.5737,-13.66667 z m 582.7345,-244.58401 c 4.8144,-1.83041 10.0971,-8.085 11.0303,-13.05966 1.203,-6.41231 -0.432,-11.01562 -5.6655,-15.95148 -3.8524,-3.63327 -5.7165,-4.40484 -10.6419,-4.40484 -11.5014,0 -17.8388,6.30718 -17.8388,17.75397 0,11.68893 12.0651,19.86353 23.1159,15.66201 z m -306.4492,-54.5702 c 2.9333,-1.33594 7.5435,-4.88029 10.2447,-7.87634 10.8788,-12.0663 10.2486,-28.52459 -1.5456,-40.37076 -19.1583,-19.24255 -50.5592,-6.03404 -50.6698,21.31369 -0.068,16.76125 12.44,29.28372 29.304,29.33855 4.3014,0.014 9.5384,-0.98043 12.6667,-2.40514 z m 337.1051,-64.66449 c 2.394,-1.00028 6.0393,-3.82303 8.1006,-6.27275 3.2595,-3.87374 3.6672,-5.2928 3.1292,-10.89148 -1.3268,-13.80858 -15.8497,-20.86806 -27.3834,-13.31088 -9.1848,6.0181 -9.164,22.5832 0.036,28.61123 5.7989,3.7996 10.2522,4.3146 16.1176,1.86388 z m -38.969,-58.55809 c 2.8587,-1.92035 5.2296,-5.04955 6.425,-8.47963 1.7346,-4.9777 1.6714,-5.87361 -0.7507,-10.6232 -3.6673,-7.19161 -10.8912,-10.75093 -17.6872,-8.71482 -14.0272,4.20265 -16.2677,22.50361 -3.5249,28.7925 5.7382,2.83201 10.2966,2.54601 15.5378,-0.97485 z m -80.4164,-19.49344 c 21.052,-10.79608 19.4467,-40.81751 -2.6769,-50.05903 -9.2851,-3.87858 -19.6693,-1.84257 -27.726,5.4361 -13.9181,12.57422 -11.5187,34.9185 4.7387,44.12658 6.8524,3.88119 18.6202,4.10878 25.6642,0.49635 z m -69.3446,-90.25287 c 1.7494,-1.14637 4.1062,-4.28764 5.2372,-6.9806 2.7866,-6.63612 0.2752,-14.20809 -6.1428,-18.51949 -6.5619,-4.40805 -12.4764,-3.98949 -18.238,1.29067 -14.5323,13.31788 2.634,35.02688 19.1436,24.20942 z m -794.3751,367.08973 v -9.70004 l -9.698,-9.63329 -9.698,-9.6333 h -20.3682 c -15.0735,0 -21.3041,-0.4947 -23.9687,-1.90309 -1.9802,-1.04671 -8.3863,-6.74671 -14.2358,-12.66666 l -10.6354,-10.76358 h -42.0387 -42.03868 l -44.4076,-44.42237 -44.4075,-44.42237 -6.9116,3.42237 c -9.9173,4.91069 -25.199,5.46745 -36.2486,1.32065 -10.8257,-4.06278 -21.8077,-14.9731 -25.793,-25.6248 -6.5456,-17.49476 -2.627,-36.07662 10.3432,-49.04681 12.9702,-12.97019 31.552,-16.8888 49.0468,-10.34316 10.6517,3.98531 21.562,14.96724 25.6248,25.79299 4.1468,11.04969 3.59,26.33132 -1.3207,36.24876 l -3.4225,6.91173 42.7634,42.74817 42.76328,42.74818 h 30.5988 30.5987 l -32.273,-32.44678 -32.273,-32.44677 v -42.56232 -42.56232 l -36.33328,-36.28971 -36.3333,-36.28971 -50.3243,-0.36787 -50.3243,-0.36785 -31.6757,-31.6024 -31.6757,-31.60239 -8,2.74328 c -26.2188,8.99069 -55.2709,-6.92913 -62.094,-34.02597 l -1.5559,-6.17919 h -23.4324 -23.4324 l -26.1186,-26 -26.1185,-26 h -13.6241 c -12.0817,0 -13.6255,0.26416 -13.6366,2.33333 -0.021,3.89052 -7.6612,15.94872 -12.3915,19.55674 -13.1349,10.01844 -32.6702,9.75029 -45.2526,-0.62115 -7.1381,-5.8838 -12.3302,-17.362 -12.335,-27.26892 -0.01,-15.44343 10.8867,-30.28019 25.0477,-34.11241 7.0889,-1.91839 20.4303,-0.91115 25.9861,1.96189 9.4025,4.86218 15.6626,12.94541 19.478,25.15052 0.6406,2.04905 2.6448,2.33333 16.4508,2.33333 h 15.7213 l 25.9744,26 25.9743,26 20.6795,-0.001 20.6795,-0.001 2.2933,-7.80476 c 1.2614,-4.29262 4.4446,-11.00143 7.0738,-14.90847 l 4.7805,-7.10373 -6.4072,-6.39788 -6.4071,-6.39788 -6.6667,2.0673 c -27.8086,8.62339 -55.0119,-18.27492 -46.8558,-46.33069 4.4365,-15.26127 17.1041,-25.70854 33.1844,-27.36818 26.2117,-2.705284 47.2446,24.01781 38.7086,49.18076 l -2.5779,7.59944 8.2356,8.16242 8.2357,8.16241 7.9502,-1.44165 c 21.3116,-3.86452 44.7106,9.62419 52.4849,30.25572 4.2301,11.22585 3.3058,28.55447 -2.0995,39.3582 l -3.8504,7.69597 27.9469,27.9707 27.9469,27.97068 h 49.4987 c 48.0577,0 49.6011,0.0804 53.0119,2.76344 l 3.5132,2.76344 v -19.7992 -19.7992 l -9.0335,-8.96424 -9.0334,-8.96527 h -29.943 -29.9429 l -41.6903,-41.69029 -41.6903,-41.69028 v -7.64305 c 0,-7.03692 -0.2379,-7.64313 -3,-7.6441 -5.4796,-0.002 -18.8576,-7.44192 -24.5719,-13.6654 -8.8477,-9.6361 -11.4882,-15.94988 -12.1281,-29.00021 -0.7109,-14.496804 2.4196,-23.581354 11.4317,-33.174524 19.5759,-20.8381 52.9279,-19.26385 70.1658,3.31191 6.8618,8.98668 9.2054,17.365824 8.4892,30.352054 -0.7116,12.90198 -4.4076,21.19018 -13.2744,29.76745 -6.0768,5.87835 -18.3631,12.37468 -23.4456,12.39675 -2.5764,0.0112 -3,0.72027 -3,5.0215 0,4.78644 1.7293,6.73702 39.0083,44 l 39.0084,38.99152 h 29.3513 29.3513 l 12.307,12.35839 12.307,12.35839 v 27.39216 27.39216 l 3.7397,3.58278 c 2.0568,1.97054 4.1568,3.58279 4.6666,3.58279 0.5099,0 0.9271,-15.42545 0.9271,-34.27879 v -34.27878 l -17.7212,-17.72122 -17.7212,-17.72121 h -25.359 -25.3589 L 865.30992,212.361 c -7.4726,-7.59369 -13.5866,-14.44601 -13.5866,-15.2274 0,-0.78137 -1.8674,-1.83084 -4.1498,-2.33213 -5.8828,-1.29209 -13.966,-9.10232 -16.6243,-16.06297 -2.8278,-7.40459 -1.922,-18.71758 2.0078,-25.07619 9.4741,-15.32935 32.2926,-17.12599 44.5929,-3.51107 8.227,9.10633 9.5295,19.54552 3.8401,30.776 -3.2973,6.50863 -5.2152,8.37482 -14.5059,14.1147 -2.285,1.41172 -1.7211,2.32736 6.727,10.92289 l 9.221,9.382 25.7654,0.41044 25.7654,0.41044 20.0135,19.98333 20.0136,19.98332 v 42.75512 42.75512 l 4.6667,4.52311 4.6666,4.52311 V 244.08098 137.47181 l -23.2193,-23.19091 -23.2193,-23.190914 -6.1195,1.71335 c -12.5851,3.5236 -26.4984,-2.1818 -32.4408,-13.30296 -4.5638,-8.54101 -3.8989,-21.30369 1.517,-29.11886 6.806,-9.82114 20.4473,-14.43651 31.6163,-10.697 16.2653,5.44583 24.3522,25.06502 16.0981,39.05471 l -3.0565,5.18034 24.7454,24.870234 24.7453,24.87024 v 113.8993 113.89932 l 14.99998,15.04091 15,15.04092 0.3724,42.31328 0.3725,42.31328 46.2871,46.33333 46.287,46.33333 h 18.3405 18.3405 v -28.34722 -28.34723 l -23.7265,-23.69901 -23.7265,-23.69903 -4.8973,2.04625 c -2.6936,1.12543 -7.6359,2.04624 -10.983,2.04624 -22.9288,0 -35.8344,-24.7614 -23.0015,-44.13194 3.4869,-5.26327 15.5072,-11.87164 21.5739,-11.86062 10.8462,0.0197 23.1024,7.72384 26.9647,16.94974 2.3966,5.72461 2.2761,16.64665 -0.2504,22.69321 l -2.0465,4.89808 25.3799,25.40495 25.3799,25.40493 v 32.58113 32.58115 l 14,14.20709 14,14.20709 v 13.5326 13.53259 H 1182.39 1171.7233 Z M 891.46072,467.25955 c 9.2278,-2.32358 19.4196,-12.85834 21.4076,-22.12802 4.7074,-21.9499 -14.1595,-40.81679 -36.1094,-36.10939 -9.8204,2.10611 -20.079,12.38149 -22.1904,22.22689 -2.4255,11.30971 -0.023,19.24771 8.3652,27.63562 9.1341,9.13412 16.6958,11.35405 28.527,8.3749 z m 208.94838,-11.77096 c 3.8792,-2.3975 5.4152,-4.81184 7.7759,-12.22208 1.1972,-3.75818 -1.5671,-11.04888 -5.6852,-14.99429 -7.9355,-7.60269 -21.7091,-5.23439 -27.0068,4.64371 -3.0214,5.63381 -3.0737,9.50502 -0.2097,15.54036 4.3468,9.16025 16.279,12.49989 25.1258,7.0323 z M 759.31782,243.11477 c 14.1493,-9.80551 15.9873,-29.44609 3.8862,-41.52905 -9.1965,-9.18271 -19.8409,-10.96927 -31.3084,-5.25479 -16.1539,8.04981 -20.3929,27.97648 -8.8262,41.4896 6.6193,7.73323 11.6157,9.84333 22.1503,9.35476 7.0348,-0.32625 9.9006,-1.15164 14.0981,-4.06052 z m -212.161,-53.60259 c 8.2077,-4.81 11.8824,-11.43597 11.8921,-21.4425 0.01,-6.61019 -0.6659,-9.11541 -3.6604,-13.64033 -4.7237,-7.13801 -12.1133,-10.93101 -21.2787,-10.92213 -20.7836,0.0201 -31.8827,23.22592 -19.2763,40.3024 6.6436,8.9994 22.0575,11.71875 32.3233,5.70256 z m 317.9207,-5.79154 c 15.9841,-8.41686 9.8098,-32.22026 -8.3575,-32.22026 -5.9397,0 -7.1923,0.54856 -11.8202,5.17648 -4.5297,4.52968 -5.1765,5.95161 -5.1765,11.38024 0,14.00919 13.1123,22.10983 25.3542,15.66354 z m -175.9928,-26.23472 c 13.7097,-7.0896 14.2859,-28.54926 0.9842,-36.65941 -5.8131,-3.54428 -16.2113,-3.54428 -22.0244,0 -13.0252,7.94155 -12.9101,28.14165 0.2058,36.13958 5.0577,3.08411 15.3776,3.3416 20.8344,0.51983 z m 115.1284,-21.14472 c 16.7785,-9.83281 19.8173,-32.11974 6.358,-46.629604 -10.6612,-11.49338 -30.4939,-12.03232 -41.9699,-1.14049 -16.7936,15.938854 -10.157,43.823964 12.1409,51.012654 6.0551,1.95215 17.2447,0.40629 23.471,-3.24256 z m 128.2836,-55.355054 c 4.3523,-2.65402 8.56,-9.93839 8.56,-14.8191 0,-4.85204 -4.1942,-12.15186 -8.56,-14.8983 -9.2147,-5.79683 -23.0518,-0.21618 -26.0076,10.48917 -4.1195,14.91957 12.6914,27.34842 26.0076,19.22823 z M 1241.0567,561.86326 v -66.97044 l -38.6667,-38.7484 -38.6667,-38.74839 V 402.1325 386.86897 L 1097.0567,320.15385 1030.39,253.43872 V 183.46726 113.4958 l -6.046,-3.20738 c -27.63658,-14.661204 -26.66448,-56.422584 1.6368,-70.319534 11.0384,-5.42023 24.4466,-5.42023 35.485,0 14.3873,7.06465 23.4704,23.39485 21.8336,39.25395 -1.5163,14.69086 -11.44,28.125654 -24.4435,33.091734 l -5.7992,2.21477 v 66.15828 66.1583 l 54.3393,54.32722 c 29.8867,29.87999 54.7867,54.32724 55.3333,54.32724 0.5467,0 0.994,-24.57078 0.994,-54.60176 v -54.60176 l -11.1512,0.78695 c -31.8289,2.2462 -57.802,-19.91595 -60.4515,-51.58177 -1.2797,-15.29375 3.9019,-30.11403 14.7452,-42.17439 15.5356,-17.27938 42.8554,-22.67371 64.2135,-12.67904 34.4014,16.09834 43.4609,61.05091 17.8939,88.78783 l -5.2499,5.69549 v 86.45491 86.45491 l 28.6583,28.72931 28.6582,28.72932 0.01,-100.12135 c 0,-55.06673 0.3991,-109.14851 0.8767,-120.18174 l 0.8683,-20.06043 -6.0672,-2.68378 c -7.7385,-3.42314 -16.4696,-12.14111 -20.1172,-20.08714 -4.2027,-9.1551 -4.0405,-25.18557 0.345,-34.0961 6.8357,-13.88872 19.0688,-22.02185 34.748,-23.102 16.6498,-1.14702 31.1223,7.42867 38.7769,22.97733 3.8424,7.80513 4.1574,9.42079 3.6929,18.94404 -0.8261,16.93807 -9.486,29.79219 -24.1294,35.81592 l -6.3089,2.59525 -0.01,53.99107 v 53.99108 l 37.3333,-37.31548 37.3318,-37.31548 v -67.365 -67.365 l -14.3334,-14.216 -14.3333,-14.216004 -8,2.08501 c -10.4205,2.715874 -17.3367,0.9545 -25.3861,-6.4652 -18.692,-17.22973 -6.7188,-47.809 18.7194,-47.809 6.9671,0 14.5393,2.79869 19.1116,7.06364 8.4462,7.87844 11.0863,22.37663 5.9611,32.73548 l -2.6416,5.33917 15.7845,15.743354 15.7844,15.74334 v 63.97073 63.97072 l 6.6667,-6.56643 6.6667,-6.56642 V 161.90173 88.869496 l -5,-2.08862 c -23.2221,-9.70044 -23.2489,-42.1827 -0.043,-51.87643 17.5809,-7.34397 38.3612,6.70196 38.3612,25.92927 0,10.85929 -7.851,22.2006 -18.0699,26.10324 l -5.9152,2.25904 v 34.485534 c 0,18.96704 0.4207,34.48552 0.9348,34.48552 0.514,0 8.2176,-7.2 17.1188,-16 l 16.1841,-16 h 9.53 9.5299 l 2.0815,-4.98181 c 6.886,-16.48047 26.7777,-22.161454 42.0862,-12.01964 5.2632,3.48688 11.8716,15.50717 11.8606,21.57387 -0.02,10.84618 -7.7239,23.10242 -16.9498,26.96474 -14.4044,6.03027 -32.764,-1.94305 -37.3113,-16.20382 -1.2025,-3.77121 -1.7219,-4.02329 -9.0796,-4.40712 l -7.804,-0.40711 -19.0907,19.05653 -19.0905,19.05653 v 32.6779 32.67788 l -54.2826,54.29477 -54.2827,54.29477 -0.547,62.04459 c -0.3127,35.47542 -0.042,62.04458 0.6322,62.04458 0.6485,0 10.3218,-9.15704 21.4962,-20.34897 l 20.3172,-20.34897 v -9.58863 -9.58864 l -5.6664,-2.51544 c -7.3254,-3.25175 -15.2588,-12.07948 -16.4204,-18.27137 -1.5956,-8.5051 0.057,-17.7343 4.2337,-23.64632 5.469,-7.74105 12.4406,-11.02499 23.4052,-11.02499 7.7462,0 9.6262,0.52031 14.6666,4.0592 18.652,13.09555 15.753,41.32616 -5.0149,48.83592 l -4.5369,1.64059 v 11.99126 11.99128 l -26.6667,26.7825 -26.6666,26.78248 v 11.28365 11.28365 l 41.3333,-41.3172 41.3333,-41.3172 v -32.90466 -32.90467 l -4.5596,-1.5048 c -2.5077,-0.82764 -6.9225,-4.06828 -9.8105,-7.20142 -10.494,-11.38459 -10.2169,-27.87304 0.6456,-38.42746 6.1975,-6.02169 10.9891,-7.92864 19.9243,-7.92956 15.6224,-10e-4 27.1776,11.85602 27.1042,27.81362 -0.053,11.75416 -7.1502,21.97834 -17.9702,25.89086 l -4.6671,1.68767 v 34.73929 34.73928 l -46.6667,46.65239 -46.6666,46.65238 v 51.00714 51.00714 h -10.6667 -10.6666 z m 78.0339,-162.38389 c 4.5454,-2.80918 8.6327,-9.70135 8.6327,-14.55666 0,-9.22468 -8.3606,-17.40817 -17.7943,-17.41734 -14.552,-0.0141 -22.6187,16.96129 -13.3144,28.01876 6.0093,7.14164 14.8135,8.69097 22.476,3.95524 z m 38.4774,-47.16147 c 10.4192,-4.35341 13.9089,-17.64466 7.0081,-26.69197 -6.7631,-8.86688 -19.5573,-9.2192 -26.6962,-0.73515 -7.9757,9.4786 -4.4448,23.1439 7.1774,27.77834 4.6611,1.85862 7.4061,1.78157 12.5107,-0.35122 z M 1160.5504,224.18596 c 13.7132,-5.72974 21.8596,-17.91147 21.8103,-32.61403 -0.068,-20.37669 -14.4087,-34.77648 -34.5658,-34.70893 -10.4112,0.0349 -17.597,2.9184 -24.5164,9.83778 -6.2502,6.25016 -8.848,11.39708 -9.7971,19.41004 -1.1308,9.54799 0.533,17.69863 4.9846,24.41943 4.0138,6.05965 12.2856,12.48403 18.5018,14.36955 5.7965,1.75822 18.5932,1.37086 23.5826,-0.71384 z m 103.5652,-21.6041 c 8.294,-4.17996 11.9408,-15.59645 7.8999,-24.73153 -3.7427,-8.46103 -10.1895,-12.18786 -19.7162,-11.39784 -11.7643,0.97559 -18.7227,9.44721 -17.5745,21.39635 0.5074,5.28096 1.55,7.49193 5.3023,11.24424 6.9436,6.94354 14.9364,8.10117 24.0885,3.48878 z m 198.0046,-55.97921 c 4.4306,-2.76769 8.259,-9.72522 8.2648,-15.01976 0.01,-8.37764 -8.9837,-17.41584 -17.3284,-17.41584 -4.8806,0 -12.165,4.20767 -14.819,8.55995 -9.5256,15.62092 8.4038,33.54508 23.8826,23.87565 z M 1056.9535,94.466286 c 6.5061,-4.81724 9.4365,-10.70677 9.4365,-18.96591 0,-13.36946 -7.9099,-21.53805 -21.681,-22.39025 -7.5858,-0.46942 -8.8142,-0.15406 -13.9378,3.57811 -7.804,5.68461 -10.138,10.72289 -9.4396,20.37717 0.5955,8.23324 3.0458,12.81348 9.3877,17.54844 6.8903,5.14434 19.1803,5.07521 26.2342,-0.14756 z m 246.906,-8.65017 c 2.4917,-1.65968 5.6424,-5.28577 7.0013,-8.05798 3.3336,-6.80023 2.0587,-12.97269 -3.9127,-18.94409 -3.9352,-3.9352 -5.5694,-4.647 -10.6688,-4.647 -10.3585,0 -16.7776,5.13606 -18.5037,14.80507 -1.6012,8.96957 7.8756,19.8616 17.281,19.8616 2.3498,0 6.3111,-1.35792 8.8029,-3.0176 z m 71.989,-9.7138 c 15.5879,-8.06081 9.4716,-32.60194 -8.1252,-32.60194 -14.0988,0 -22.6751,17.4471 -13.7755,28.02375 5.739,6.82027 14.1606,8.58076 21.9007,4.57819 z m -67.8879,532.834794 c 0.399,-18.48793 0.6418,-20.12241 3.4294,-23.08595 1.65,-1.75412 3,-3.54036 3,-3.9694 0,-0.42904 -2.0444,-3.81794 -4.543,-7.53087 -6.8816,-10.22606 -9.2214,-18.65568 -8.5237,-30.70806 1.0532,-18.19446 10.9024,-32.94313 27.4141,-41.05128 6.7626,-3.32082 9.1256,-3.75784 20.3192,-3.75784 10.8995,0 13.712,0.49016 20.1594,3.51323 l 7.4925,3.51323 56.1741,-56.18571 c 44.768,-44.77735 56.174,-56.87921 56.174,-59.60121 0,-2.88243 -1.1438,-3.88959 -7.3288,-6.45314 -19.3572,-8.0231 -31.994,-29.51619 -29.324,-49.87502 2.1998,-16.77209 14.2782,-32.74343 29.4138,-38.894 l 7.9057,-3.21261 0.3496,-39.73571 0.3496,-39.73572 39.8535,-40 c 33.994,-34.11907 39.6902,-40.39206 38.7441,-42.66667 -2.1883,-5.26019 -1.3687,-19.71159 1.4745,-26 14.6242,-32.344474 62.052,-27.236714 69.2547,7.45842 1.9345,9.31883 -0.067,19.46596 -5.4381,27.5756 -9.9196,14.97589 -30.8619,20.43155 -46.7972,12.19109 l -4.211,-2.17756 -36.4565,36.52573 -36.4565,36.52574 v 34.99233 c 0,32.15928 0.1889,35.0514 2.3333,35.72177 14.3145,4.47486 26.3825,14.59964 31.9759,26.82703 2.9389,6.42495 3.5333,9.67141 3.6049,19.69319 0.077,10.75996 -0.3409,12.89558 -4.0439,20.66666 -2.2713,4.76667 -6.6148,11.06667 -9.6518,14 -5.7916,5.59351 -17.9051,12.58867 -21.8851,12.63784 -1.9113,0.0236 -2.3333,1.25033 -2.3333,6.78315 0,3.71488 -0.6627,8.06488 -1.4727,9.66666 -0.8099,1.60179 -27.6328,29.13776 -59.6063,61.19103 l -58.1337,58.27868 2.4924,5.05465 c 1.6727,3.39231 2.6811,9.00116 3.0661,17.05466 0.7342,15.35446 -2.2662,24.11357 -11.8532,34.60322 -11.2057,12.26088 -27.1132,17.97676 -42.9374,15.42835 -12.1821,-1.96187 -12.8886,-0.92907 -12.8886,18.84174 v 15.79335 h -10.7627 -10.7627 z m 49.5644,-36.2108 c 7.1802,-1.99372 15.919,-11.08502 18.0823,-18.81161 4.4515,-15.89904 -6.5573,-32.57627 -22.5163,-34.10971 -10.9065,-1.04798 -15.673,0.54038 -22.6956,7.56295 -9.4493,9.44936 -11.199,20.88189 -5.0201,32.80225 2.7489,5.30319 5.8335,7.95938 13.0387,11.22759 6.7462,3.06007 11.648,3.40081 19.111,1.32853 z m 155.417,-209.16746 c 10.3041,-5.25676 15.5194,-15.13992 14.4968,-27.47188 -1.7883,-21.56325 -28.1999,-31.94931 -44.609,-17.54192 -14.0078,12.29907 -12.6864,32.82508 2.7868,43.28866 5.443,3.68067 7.5983,4.33334 14.3106,4.33334 5.212,0 9.6428,-0.88794 13.0148,-2.6082 z m 100.0881,-227.7272 c 14.2845,-7.17684 14.3121,-27.6155 0.047,-35.19579 -9.7575,-5.185134 -21.8268,-1.176284 -26.6874,8.86428 -4.8834,10.0879 -2.0614,19.7382 7.457,25.49981 6.187,3.74514 12.8124,4.03239 19.183,0.8317 z m -235.9735,486.68411 v -6.31793 L 1512.39,480.84025 1647.7233,345.48268 V 297.1582 c 0,-30.16602 -0.4836,-48.32448 -1.2869,-48.32448 -2.4595,0 -10.8855,-8.44423 -13.4583,-13.48731 -3.7049,-7.2622 -3.4892,-19.03852 0.4879,-26.63632 3.6014,-6.88031 12.9641,-13.76789 20.3429,-14.96531 12.2677,-1.9908 25.0548,4.50027 30.5369,15.50147 7.2234,14.49531 2.0342,31.94079 -11.6225,39.07408 -3.6165,1.88903 -3.6667,2.09207 -3.6667,14.85463 v 12.93942 l 12.6667,-12.614 12.6667,-12.614 -0.051,-36.693 -0.051,-36.693 -5.0442,-3.48418 c -12.6138,-8.71269 -13.3732,-27.6717 -1.5084,-37.65526 17.354,-14.60253 43.4305,1.21954 38.461,23.33659 -0.6841,3.04498 -2.4712,7.25988 -3.9712,9.36644 -2.7818,3.9068 -11.4106,9.10308 -15.1162,9.10308 -1.7898,0 -2.0531,3.97645 -2.0531,30.99567 v 30.99568 l 25.4077,-25.40774 25.4078,-25.40772 -2.8716,-8.74762 c -2.5578,-7.79118 -2.7007,-9.57146 -1.3075,-16.28248 6.1136,-29.44894 46.0117,-35.35234 59.5591,-8.81246 3.5753,7.00408 4.2268,20.15375 1.3398,27.04283 -6.2152,14.83173 -24.6406,23.28301 -39.4818,18.10933 l -4.3446,-1.51449 -49.8545,49.84116 -49.8543,49.84117 v 10.34 10.34 h 16.3419 16.3417 l 39.317,-39.33333 39.3164,-39.33333 h 30.0514 30.0514 l 0.1067,-7.34574 c 0.152,-10.51521 5.3988,-18.75962 15.0536,-23.65426 11.3389,-5.74847 21.6563,-4.38998 31.0525,4.08873 6.7107,6.05528 9.0352,11.37027 9.0352,20.65873 0,14.58284 -10.4225,26.12671 -24.6544,27.30694 -8.6762,0.7195 -17.3201,-2.05983 -22.0437,-7.08796 l -3.1,-3.29978 h -30.7761 -30.776 l -39.3164,39.33334 -39.3164,39.33333 h -18.3418 -18.3418 v 6.66667 6.66666 h 18.939 18.9391 l 17.5048,-17.33333 17.5048,-17.33333 h 50.6869 50.6871 l 2.4345,-5.39902 c 11.1379,-24.69921 49.7475,-18.87154 52.3196,7.89702 0.9686,10.07949 -0.6036,15.70342 -6.0912,21.78994 -9.6589,10.71314 -21.2336,13.01958 -33.6841,6.71206 -7.5217,-3.81054 -12.8453,-10.0719 -14.1704,-16.66667 l -0.7368,-3.66667 h -48.8525 -48.8527 l -17.2948,17.33334 -17.2948,17.33333 h -21.3637 -21.3638 l -29.9777,30 -29.9777,30 h 10.0105 10.0107 l 15.2898,-15.33334 15.2899,-15.33333 h 23.0217 23.0218 v -3.38645 c 0,-5.08254 4.642,-13.18292 10.1622,-17.73314 11.3326,-9.34129 27.3387,-8.11606 37.4632,2.86772 16.8068,18.23319 4.5142,46.25187 -20.2921,46.25187 -10.6268,0 -19.7297,-5.14903 -24.1609,-13.66667 l -1.9076,-3.66666 h -21.6542 -21.6541 l -15.2899,15.33333 -15.2898,15.33333 h -17.3595 -17.3595 l -75.9912,76 -75.9912,76 h 62.0099 62.0099 l 22.9857,-23.01389 22.9857,-23.01391 v -12.21196 -12.21196 l -4.9657,1.37111 c -11.8111,3.26121 -27.1893,-4.92024 -31.764,-16.899 -7.1293,-18.66791 5.938,-38.02039 25.6723,-38.02039 21.3992,0 35.1132,23.38123 24.2202,41.29323 -2.4628,4.04968 -2.74,6.48387 -2.5681,22.55069 l 0.1925,18.01099 -26.381,26.40588 -26.3811,26.40588 h -69.4297 -69.4298 l -3.8322,4 -3.8323,4 h 75.9239 75.9237 l 43.0404,-43.0556 43.0403,-43.0556 -2.048,-4.90157 c -4.0062,-9.58794 -1.8071,-22.7845 5.0156,-30.09879 10.3556,-11.10172 29.9948,-11.44544 40.1658,-0.70297 11.54,12.18808 11.395,27.59418 -0.37,39.31032 -9.0426,9.00521 -21.2922,11.00469 -32.0726,5.23518 -3.0236,-1.61818 -4.9554,0.11814 -47.9759,43.12482 l -44.826,44.81087 h -83.3619 -83.3617 l -8.9643,9.03347 c -4.9304,4.9684 -8.9642,10.0684 -8.9642,11.33333 0,1.98595 -1.456,2.29987 -10.6667,2.29987 h -10.6667 z m 320.994,-114.44055 c 4.3968,-2.88094 8.3284,-9.82064 8.3344,-14.71099 0.013,-9.27187 -10.9488,-18.73509 -19.8566,-17.14491 -9.2331,1.64824 -14.8051,8.15218 -14.8051,17.28107 0,14.03504 14.7168,22.18229 26.3273,14.57483 z m -85.0762,-12.34452 c 5.2326,-2.80628 9.4178,-9.71864 9.4106,-15.54284 0,-4.85128 -3.9905,-11.74936 -8.4893,-14.6971 -7.2857,-4.77378 -20.2525,-1.57044 -24.1499,5.96599 -8.0849,15.6346 7.9986,32.44192 23.2286,24.27395 z M 1742.39,398.31186 c 5.1102,-3.55197 8.4525,-11.31487 7.3657,-17.10795 -1.1828,-6.30426 -8.0984,-13.21986 -14.4025,-14.40254 -10.1363,-1.90158 -20.0743,6.62873 -20.0743,17.23076 0,14.20821 15.482,22.36278 27.1111,14.27973 z m 140.0708,-70.21261 c 11.4846,-11.00307 4.291,-29.94175 -11.3675,-29.92721 -6.8817,0.007 -12.9855,3.75354 -15.81,9.70577 -2.8403,5.98541 -2.8131,9.9074 0.1067,15.33548 5.544,10.30688 18.8969,12.71695 27.0708,4.88596 z m -5.3606,-78.62144 c 7.5874,-3.92351 10.8252,-16.73375 6.0658,-23.99763 -1.2399,-1.89224 -4.1716,-4.60956 -6.5151,-6.03846 -14.0875,-8.58964 -30.8891,6.40104 -24.4491,21.81393 3.743,8.95817 15.7851,12.93484 24.8984,8.22216 z m -209.0436,-19.32848 c 5.287,-5.80261 4.5007,-12.22711 -2.156,-17.61929 -9.9472,-8.05751 -23.9609,4.77073 -17.65,16.15692 4.25,7.66781 13.528,8.35284 19.806,1.46237 z m 125.6006,-49.30079 c 3.4617,-3.46174 4.0661,-5.06945 4.0661,-10.8165 0,-5.93941 -0.5231,-7.21782 -4.3544,-10.64103 -3.4689,-3.09957 -5.5971,-3.89063 -10.4667,-3.89063 -5.1734,0 -6.8085,0.69631 -10.6456,4.53334 -3.52,3.52002 -4.5333,5.63477 -4.5333,9.46094 0,14.51872 15.836,21.45175 25.9339,11.35388 z m -83.2819,-12.67388 c 5.5488,-2.86941 8.0147,-7.10632 8.0147,-13.77095 0,-4.85999 -0.7586,-6.59524 -4.5334,-10.36999 -3.8694,-3.86951 -5.4509,-4.53333 -10.8,-4.53333 -5.349,0 -6.9305,0.66382 -10.8,4.53333 -12.6896,12.68963 2.1159,32.41628 18.1187,24.14094 z"
       style="fill:#000000;stroke-width:1.33333" />
  </g>
</svg>
